G75*
G70*
%OFA0B0*%
%FSLAX24Y24*%
%IPPOS*%
%LPD*%
%AMOC8*
5,1,8,0,0,1.08239X$1,22.5*
%
%ADD10R,0.0950X0.0320*%
%ADD11R,0.0320X0.0950*%
%ADD12C,0.0552*%
%ADD13C,0.1340*%
%ADD14C,0.0580*%
%ADD15R,0.0474X0.0237*%
%ADD16R,0.0237X0.0474*%
%ADD17R,0.0434X0.0356*%
%ADD18R,0.0789X0.0710*%
%ADD19R,0.0356X0.0434*%
%ADD20C,0.0820*%
%ADD21R,0.0828X0.0631*%
%ADD22R,0.0631X0.0789*%
%ADD23R,0.0671X0.0356*%
%ADD24C,0.0560*%
%ADD25R,0.0474X0.0395*%
%ADD26R,0.0867X0.0867*%
%ADD27R,0.0592X0.0867*%
%ADD28R,0.1340X0.0552*%
%ADD29R,0.0395X0.0395*%
%ADD30R,0.0552X0.1340*%
%ADD31OC8,0.0710*%
%ADD32C,0.0710*%
%ADD33C,0.0350*%
%ADD34OC8,0.0640*%
%ADD35OC8,0.0417*%
%ADD36C,0.0417*%
D10*
X015585Y010830D03*
X015585Y011330D03*
X015585Y011830D03*
X015585Y012330D03*
X017645Y012330D03*
X017645Y011830D03*
X017645Y011330D03*
X017645Y010830D03*
D11*
X015465Y013745D03*
X014965Y013745D03*
X014465Y013745D03*
X013965Y013745D03*
X013965Y015805D03*
X014465Y015805D03*
X014965Y015805D03*
X015465Y015805D03*
D12*
X015000Y019500D03*
X014000Y019500D03*
X013000Y019500D03*
X012000Y019500D03*
X011000Y019500D03*
X010000Y019500D03*
X010000Y020500D03*
X011000Y020500D03*
X012000Y020500D03*
X013000Y020500D03*
X014000Y020500D03*
X015000Y020500D03*
X016000Y020500D03*
X017000Y020500D03*
X017000Y019500D03*
X016000Y019500D03*
X018500Y019500D03*
X019500Y019500D03*
X020500Y019500D03*
X021500Y019500D03*
X022500Y019500D03*
X023500Y019500D03*
X024500Y019500D03*
X025500Y019500D03*
X025500Y020500D03*
X024500Y020500D03*
X023500Y020500D03*
X022500Y020500D03*
X021500Y020500D03*
X020500Y020500D03*
X019500Y020500D03*
X018500Y020500D03*
X027500Y020500D03*
X028500Y020500D03*
X029500Y020500D03*
X030500Y020500D03*
X031500Y020500D03*
X032500Y020500D03*
X033500Y020500D03*
X034500Y020500D03*
X037500Y020500D03*
X038500Y020500D03*
X038500Y019500D03*
X037500Y019500D03*
X037500Y018500D03*
X038500Y018500D03*
X038500Y017500D03*
X037500Y017500D03*
X037500Y016500D03*
X038500Y016500D03*
X038500Y015500D03*
X037500Y015500D03*
X037500Y014500D03*
X038500Y014500D03*
X038500Y013500D03*
X037500Y013500D03*
X037500Y012500D03*
X038500Y012500D03*
X038500Y011500D03*
X037500Y011500D03*
X037500Y010500D03*
X038500Y010500D03*
X038500Y009500D03*
X037500Y009500D03*
X037500Y008500D03*
X038500Y008500D03*
X038500Y007500D03*
X037500Y007500D03*
X037500Y006500D03*
X038500Y006500D03*
X038500Y005500D03*
X037500Y005500D03*
X037500Y004500D03*
X038500Y004500D03*
X038500Y003500D03*
X037500Y003500D03*
X036500Y001500D03*
X035500Y001500D03*
X034500Y001500D03*
X033500Y001500D03*
X032500Y001500D03*
X031500Y001500D03*
X030500Y001500D03*
X029500Y001500D03*
X027500Y001500D03*
X026500Y001500D03*
X025500Y001500D03*
X024500Y001500D03*
X023500Y001500D03*
X022500Y001500D03*
X021500Y001500D03*
X020500Y001500D03*
X018500Y001500D03*
X017500Y001500D03*
X016500Y001500D03*
X015500Y001500D03*
X014500Y001500D03*
X013500Y001500D03*
D13*
X006500Y001500D03*
X038500Y001500D03*
X036000Y020500D03*
X006500Y020500D03*
D14*
X021017Y015151D03*
X021804Y015151D03*
X022591Y015151D03*
X023379Y015151D03*
X024166Y015151D03*
X024954Y015151D03*
X025741Y015151D03*
X026529Y015151D03*
X027316Y015151D03*
X028103Y015151D03*
X028103Y006489D03*
X027316Y006489D03*
X026529Y006489D03*
X025741Y006489D03*
X024954Y006489D03*
X024166Y006489D03*
X023379Y006489D03*
X022591Y006489D03*
X021804Y006489D03*
X021017Y006489D03*
D15*
X026772Y011626D03*
X026772Y011882D03*
X026772Y012138D03*
X026772Y012394D03*
X028228Y012394D03*
X028228Y012138D03*
X028228Y011882D03*
X028228Y011626D03*
D16*
X027884Y011282D03*
X027628Y011282D03*
X027372Y011282D03*
X027116Y011282D03*
X027116Y012738D03*
X027372Y012738D03*
X027628Y012738D03*
X027884Y012738D03*
D17*
X027600Y010216D03*
X027600Y009704D03*
X014017Y003991D03*
X014017Y003479D03*
X020966Y017414D03*
X020966Y017926D03*
X021886Y017950D03*
X021886Y018462D03*
X022970Y017949D03*
X022970Y017437D03*
X023935Y017782D03*
X023935Y018294D03*
D18*
X029815Y011671D03*
X029815Y010569D03*
D19*
X029851Y012480D03*
X029339Y012480D03*
X029316Y013940D03*
X028804Y013940D03*
X025706Y013210D03*
X025194Y013210D03*
X025194Y011960D03*
X025706Y011960D03*
X025706Y010660D03*
X025194Y010660D03*
X002891Y017930D03*
X002379Y017930D03*
D20*
X007895Y014805D03*
X007895Y013805D03*
X007895Y012805D03*
X007895Y011805D03*
X007895Y010805D03*
X007895Y009805D03*
X007895Y008805D03*
X017236Y014471D03*
X018510Y014469D03*
X018510Y015469D03*
X017236Y015471D03*
X017236Y016471D03*
X018510Y016469D03*
X032890Y016741D03*
X033890Y016741D03*
X034890Y016741D03*
X034893Y017861D03*
X033893Y017861D03*
X032893Y017861D03*
X032890Y015600D03*
X033890Y015600D03*
X034890Y015600D03*
X034894Y014446D03*
X033894Y014446D03*
X032894Y014446D03*
X032884Y013260D03*
X033884Y013260D03*
X034884Y013260D03*
X034888Y012049D03*
X033888Y012049D03*
X032888Y012049D03*
X031931Y006618D03*
X030814Y006610D03*
X030814Y005610D03*
X031931Y005618D03*
X027869Y005027D03*
X025976Y005031D03*
X025976Y004031D03*
X027869Y004027D03*
X027869Y003027D03*
X025976Y003031D03*
X024050Y003014D03*
X024050Y004014D03*
X024050Y005014D03*
X022094Y005013D03*
X022094Y004013D03*
X022094Y003013D03*
D21*
X002144Y007648D03*
X001790Y002451D03*
D22*
X007302Y004655D03*
X007302Y007018D03*
D23*
X003286Y006860D03*
X003286Y007293D03*
X003129Y006427D03*
X003286Y005994D03*
X003129Y005561D03*
X003286Y005128D03*
X003444Y004695D03*
X003286Y004262D03*
D24*
X002540Y010035D02*
X002060Y010035D01*
X002060Y011035D02*
X002540Y011035D01*
X002540Y012035D02*
X002060Y012035D01*
X002060Y013035D02*
X002540Y013035D01*
X002540Y014035D02*
X002060Y014035D01*
X005060Y014035D02*
X005540Y014035D01*
X005540Y013035D02*
X005060Y013035D01*
X005060Y012035D02*
X005540Y012035D01*
X005540Y011035D02*
X005060Y011035D01*
X005060Y010035D02*
X005540Y010035D01*
D25*
X004084Y009115D03*
X003296Y009115D03*
D26*
X008658Y001321D03*
D27*
X009036Y002880D03*
X008249Y002880D03*
D28*
X005014Y018673D03*
X005014Y020247D03*
X002336Y020247D03*
X002336Y018673D03*
D29*
X020871Y016251D03*
X021461Y016251D03*
X022991Y016257D03*
X023581Y016257D03*
D30*
X012513Y004104D03*
X010938Y004104D03*
X010938Y001426D03*
X012513Y001426D03*
D31*
X033885Y008797D03*
D32*
X033885Y010197D03*
D33*
X003820Y001640D03*
X004625Y003910D03*
X004275Y004677D03*
X008186Y003684D03*
X009023Y003697D03*
X011740Y002793D03*
X013059Y002765D03*
X012230Y005135D03*
X017750Y006010D03*
X019515Y005157D03*
X025415Y007285D03*
X024265Y009060D03*
X022640Y009795D03*
X021495Y009005D03*
X018644Y012201D03*
X017665Y012955D03*
X014425Y012235D03*
X012700Y010850D03*
X009435Y012025D03*
X011445Y014335D03*
X014025Y014845D03*
X016470Y017350D03*
X014525Y018595D03*
X018991Y018703D03*
X021039Y018692D03*
X020429Y016739D03*
X020205Y016231D03*
X020209Y015395D03*
X023560Y016750D03*
X024775Y017384D03*
X026540Y016590D03*
X027900Y016565D03*
X030225Y016467D03*
X029710Y014435D03*
X030805Y012750D03*
X035805Y011127D03*
X031495Y008975D03*
X030820Y008925D03*
X030820Y007695D03*
X031510Y007695D03*
X029745Y004047D03*
X021760Y012305D03*
X026856Y018449D03*
X024952Y018621D03*
X006220Y018310D03*
X003900Y017910D03*
X001305Y016197D03*
X001185Y011217D03*
X003370Y008180D03*
X005185Y008190D03*
X006280Y008055D03*
D34*
X017480Y003930D03*
D35*
X011055Y007290D03*
D36*
X006440Y010250D03*
X004005Y014110D03*
X016040Y014490D03*
M02*
