G75*
G70*
%OFA0B0*%
%FSLAX24Y24*%
%IPPOS*%
%LPD*%
%AMOC8*
5,1,8,0,0,1.08239X$1,22.5*
%
%ADD10C,0.0000*%
%ADD11C,0.0472*%
%ADD12C,0.0500*%
%ADD13C,0.0740*%
%ADD14C,0.0480*%
%ADD15OC8,0.0630*%
%ADD16C,0.0630*%
%ADD17C,0.0270*%
%ADD18C,0.0120*%
%ADD19C,0.0160*%
%ADD20OC8,0.0560*%
%ADD21C,0.0320*%
%ADD22OC8,0.0337*%
%ADD23C,0.0337*%
%ADD24C,0.0100*%
%ADD25C,0.0660*%
D10*
X000500Y000510D02*
X000500Y021506D01*
X040370Y021506D01*
X040370Y000510D01*
X000500Y000510D01*
X005870Y001500D02*
X005872Y001550D01*
X005878Y001600D01*
X005888Y001649D01*
X005902Y001697D01*
X005919Y001744D01*
X005940Y001789D01*
X005965Y001833D01*
X005993Y001874D01*
X006025Y001913D01*
X006059Y001950D01*
X006096Y001984D01*
X006136Y002014D01*
X006178Y002041D01*
X006222Y002065D01*
X006268Y002086D01*
X006315Y002102D01*
X006363Y002115D01*
X006413Y002124D01*
X006462Y002129D01*
X006513Y002130D01*
X006563Y002127D01*
X006612Y002120D01*
X006661Y002109D01*
X006709Y002094D01*
X006755Y002076D01*
X006800Y002054D01*
X006843Y002028D01*
X006884Y001999D01*
X006923Y001967D01*
X006959Y001932D01*
X006991Y001894D01*
X007021Y001854D01*
X007048Y001811D01*
X007071Y001767D01*
X007090Y001721D01*
X007106Y001673D01*
X007118Y001624D01*
X007126Y001575D01*
X007130Y001525D01*
X007130Y001475D01*
X007126Y001425D01*
X007118Y001376D01*
X007106Y001327D01*
X007090Y001279D01*
X007071Y001233D01*
X007048Y001189D01*
X007021Y001146D01*
X006991Y001106D01*
X006959Y001068D01*
X006923Y001033D01*
X006884Y001001D01*
X006843Y000972D01*
X006800Y000946D01*
X006755Y000924D01*
X006709Y000906D01*
X006661Y000891D01*
X006612Y000880D01*
X006563Y000873D01*
X006513Y000870D01*
X006462Y000871D01*
X006413Y000876D01*
X006363Y000885D01*
X006315Y000898D01*
X006268Y000914D01*
X006222Y000935D01*
X006178Y000959D01*
X006136Y000986D01*
X006096Y001016D01*
X006059Y001050D01*
X006025Y001087D01*
X005993Y001126D01*
X005965Y001167D01*
X005940Y001211D01*
X005919Y001256D01*
X005902Y001303D01*
X005888Y001351D01*
X005878Y001400D01*
X005872Y001450D01*
X005870Y001500D01*
X037870Y001500D02*
X037872Y001550D01*
X037878Y001600D01*
X037888Y001649D01*
X037902Y001697D01*
X037919Y001744D01*
X037940Y001789D01*
X037965Y001833D01*
X037993Y001874D01*
X038025Y001913D01*
X038059Y001950D01*
X038096Y001984D01*
X038136Y002014D01*
X038178Y002041D01*
X038222Y002065D01*
X038268Y002086D01*
X038315Y002102D01*
X038363Y002115D01*
X038413Y002124D01*
X038462Y002129D01*
X038513Y002130D01*
X038563Y002127D01*
X038612Y002120D01*
X038661Y002109D01*
X038709Y002094D01*
X038755Y002076D01*
X038800Y002054D01*
X038843Y002028D01*
X038884Y001999D01*
X038923Y001967D01*
X038959Y001932D01*
X038991Y001894D01*
X039021Y001854D01*
X039048Y001811D01*
X039071Y001767D01*
X039090Y001721D01*
X039106Y001673D01*
X039118Y001624D01*
X039126Y001575D01*
X039130Y001525D01*
X039130Y001475D01*
X039126Y001425D01*
X039118Y001376D01*
X039106Y001327D01*
X039090Y001279D01*
X039071Y001233D01*
X039048Y001189D01*
X039021Y001146D01*
X038991Y001106D01*
X038959Y001068D01*
X038923Y001033D01*
X038884Y001001D01*
X038843Y000972D01*
X038800Y000946D01*
X038755Y000924D01*
X038709Y000906D01*
X038661Y000891D01*
X038612Y000880D01*
X038563Y000873D01*
X038513Y000870D01*
X038462Y000871D01*
X038413Y000876D01*
X038363Y000885D01*
X038315Y000898D01*
X038268Y000914D01*
X038222Y000935D01*
X038178Y000959D01*
X038136Y000986D01*
X038096Y001016D01*
X038059Y001050D01*
X038025Y001087D01*
X037993Y001126D01*
X037965Y001167D01*
X037940Y001211D01*
X037919Y001256D01*
X037902Y001303D01*
X037888Y001351D01*
X037878Y001400D01*
X037872Y001450D01*
X037870Y001500D01*
X035370Y020500D02*
X035372Y020550D01*
X035378Y020600D01*
X035388Y020649D01*
X035402Y020697D01*
X035419Y020744D01*
X035440Y020789D01*
X035465Y020833D01*
X035493Y020874D01*
X035525Y020913D01*
X035559Y020950D01*
X035596Y020984D01*
X035636Y021014D01*
X035678Y021041D01*
X035722Y021065D01*
X035768Y021086D01*
X035815Y021102D01*
X035863Y021115D01*
X035913Y021124D01*
X035962Y021129D01*
X036013Y021130D01*
X036063Y021127D01*
X036112Y021120D01*
X036161Y021109D01*
X036209Y021094D01*
X036255Y021076D01*
X036300Y021054D01*
X036343Y021028D01*
X036384Y020999D01*
X036423Y020967D01*
X036459Y020932D01*
X036491Y020894D01*
X036521Y020854D01*
X036548Y020811D01*
X036571Y020767D01*
X036590Y020721D01*
X036606Y020673D01*
X036618Y020624D01*
X036626Y020575D01*
X036630Y020525D01*
X036630Y020475D01*
X036626Y020425D01*
X036618Y020376D01*
X036606Y020327D01*
X036590Y020279D01*
X036571Y020233D01*
X036548Y020189D01*
X036521Y020146D01*
X036491Y020106D01*
X036459Y020068D01*
X036423Y020033D01*
X036384Y020001D01*
X036343Y019972D01*
X036300Y019946D01*
X036255Y019924D01*
X036209Y019906D01*
X036161Y019891D01*
X036112Y019880D01*
X036063Y019873D01*
X036013Y019870D01*
X035962Y019871D01*
X035913Y019876D01*
X035863Y019885D01*
X035815Y019898D01*
X035768Y019914D01*
X035722Y019935D01*
X035678Y019959D01*
X035636Y019986D01*
X035596Y020016D01*
X035559Y020050D01*
X035525Y020087D01*
X035493Y020126D01*
X035465Y020167D01*
X035440Y020211D01*
X035419Y020256D01*
X035402Y020303D01*
X035388Y020351D01*
X035378Y020400D01*
X035372Y020450D01*
X035370Y020500D01*
X005870Y020500D02*
X005872Y020550D01*
X005878Y020600D01*
X005888Y020649D01*
X005902Y020697D01*
X005919Y020744D01*
X005940Y020789D01*
X005965Y020833D01*
X005993Y020874D01*
X006025Y020913D01*
X006059Y020950D01*
X006096Y020984D01*
X006136Y021014D01*
X006178Y021041D01*
X006222Y021065D01*
X006268Y021086D01*
X006315Y021102D01*
X006363Y021115D01*
X006413Y021124D01*
X006462Y021129D01*
X006513Y021130D01*
X006563Y021127D01*
X006612Y021120D01*
X006661Y021109D01*
X006709Y021094D01*
X006755Y021076D01*
X006800Y021054D01*
X006843Y021028D01*
X006884Y020999D01*
X006923Y020967D01*
X006959Y020932D01*
X006991Y020894D01*
X007021Y020854D01*
X007048Y020811D01*
X007071Y020767D01*
X007090Y020721D01*
X007106Y020673D01*
X007118Y020624D01*
X007126Y020575D01*
X007130Y020525D01*
X007130Y020475D01*
X007126Y020425D01*
X007118Y020376D01*
X007106Y020327D01*
X007090Y020279D01*
X007071Y020233D01*
X007048Y020189D01*
X007021Y020146D01*
X006991Y020106D01*
X006959Y020068D01*
X006923Y020033D01*
X006884Y020001D01*
X006843Y019972D01*
X006800Y019946D01*
X006755Y019924D01*
X006709Y019906D01*
X006661Y019891D01*
X006612Y019880D01*
X006563Y019873D01*
X006513Y019870D01*
X006462Y019871D01*
X006413Y019876D01*
X006363Y019885D01*
X006315Y019898D01*
X006268Y019914D01*
X006222Y019935D01*
X006178Y019959D01*
X006136Y019986D01*
X006096Y020016D01*
X006059Y020050D01*
X006025Y020087D01*
X005993Y020126D01*
X005965Y020167D01*
X005940Y020211D01*
X005919Y020256D01*
X005902Y020303D01*
X005888Y020351D01*
X005878Y020400D01*
X005872Y020450D01*
X005870Y020500D01*
D11*
X010000Y020500D03*
X011000Y020500D03*
X012000Y020500D03*
X013000Y020500D03*
X014000Y020500D03*
X015000Y020500D03*
X016000Y020500D03*
X017000Y020500D03*
X017000Y019500D03*
X016000Y019500D03*
X015000Y019500D03*
X014000Y019500D03*
X013000Y019500D03*
X012000Y019500D03*
X011000Y019500D03*
X010000Y019500D03*
X018500Y019500D03*
X019500Y019500D03*
X020500Y019500D03*
X021500Y019500D03*
X022500Y019500D03*
X023500Y019500D03*
X024500Y019500D03*
X025500Y019500D03*
X025500Y020500D03*
X024500Y020500D03*
X023500Y020500D03*
X022500Y020500D03*
X021500Y020500D03*
X020500Y020500D03*
X019500Y020500D03*
X018500Y020500D03*
X027500Y020500D03*
X028500Y020500D03*
X029500Y020500D03*
X030500Y020500D03*
X031500Y020500D03*
X032500Y020500D03*
X033500Y020500D03*
X034500Y020500D03*
X037500Y020500D03*
X038500Y020500D03*
X038500Y019500D03*
X037500Y019500D03*
X037500Y018500D03*
X038500Y018500D03*
X038500Y017500D03*
X037500Y017500D03*
X037500Y016500D03*
X038500Y016500D03*
X038500Y015500D03*
X037500Y015500D03*
X037500Y014500D03*
X038500Y014500D03*
X038500Y013500D03*
X037500Y013500D03*
X037500Y012500D03*
X038500Y012500D03*
X038500Y011500D03*
X037500Y011500D03*
X037500Y010500D03*
X038500Y010500D03*
X038500Y009500D03*
X037500Y009500D03*
X037500Y008500D03*
X038500Y008500D03*
X038500Y007500D03*
X037500Y007500D03*
X037500Y006500D03*
X038500Y006500D03*
X038500Y005500D03*
X037500Y005500D03*
X037500Y004500D03*
X038500Y004500D03*
X038500Y003500D03*
X037500Y003500D03*
X036500Y001500D03*
X035500Y001500D03*
X034500Y001500D03*
X033500Y001500D03*
X032500Y001500D03*
X031500Y001500D03*
X030500Y001500D03*
X029500Y001500D03*
X027500Y001500D03*
X026500Y001500D03*
X025500Y001500D03*
X024500Y001500D03*
X023500Y001500D03*
X022500Y001500D03*
X021500Y001500D03*
X020500Y001500D03*
X018500Y001500D03*
X017500Y001500D03*
X016500Y001500D03*
X015500Y001500D03*
X014500Y001500D03*
X013500Y001500D03*
D12*
X021017Y006489D03*
X021804Y006489D03*
X022591Y006489D03*
X023379Y006489D03*
X024166Y006489D03*
X024954Y006489D03*
X025741Y006489D03*
X026529Y006489D03*
X027316Y006489D03*
X028103Y006489D03*
X028103Y015151D03*
X027316Y015151D03*
X026529Y015151D03*
X025741Y015151D03*
X024954Y015151D03*
X024166Y015151D03*
X023379Y015151D03*
X022591Y015151D03*
X021804Y015151D03*
X021017Y015151D03*
D13*
X018510Y015469D03*
X017236Y015471D03*
X017236Y014471D03*
X018510Y014469D03*
X018510Y016469D03*
X017236Y016471D03*
X007895Y014805D03*
X007895Y013805D03*
X007895Y012805D03*
X007895Y011805D03*
X007895Y010805D03*
X007895Y009805D03*
X007895Y008805D03*
X022094Y005013D03*
X022094Y004013D03*
X022094Y003013D03*
X024050Y003014D03*
X024050Y004014D03*
X024050Y005014D03*
X025976Y005031D03*
X027869Y005027D03*
X027869Y004027D03*
X025976Y004031D03*
X025976Y003031D03*
X027869Y003027D03*
X030814Y005610D03*
X031931Y005618D03*
X031931Y006618D03*
X030814Y006610D03*
X032888Y012049D03*
X033888Y012049D03*
X034888Y012049D03*
X034884Y013260D03*
X033884Y013260D03*
X032884Y013260D03*
X032894Y014446D03*
X033894Y014446D03*
X034894Y014446D03*
X034890Y015600D03*
X033890Y015600D03*
X032890Y015600D03*
X032890Y016741D03*
X033890Y016741D03*
X034890Y016741D03*
X034893Y017861D03*
X033893Y017861D03*
X032893Y017861D03*
D14*
X005540Y014035D02*
X005060Y014035D01*
X005060Y013035D02*
X005540Y013035D01*
X005540Y012035D02*
X005060Y012035D01*
X005060Y011035D02*
X005540Y011035D01*
X005540Y010035D02*
X005060Y010035D01*
X002540Y010035D02*
X002060Y010035D01*
X002060Y011035D02*
X002540Y011035D01*
X002540Y012035D02*
X002060Y012035D01*
X002060Y013035D02*
X002540Y013035D01*
X002540Y014035D02*
X002060Y014035D01*
D15*
X033885Y008797D03*
D16*
X033885Y010197D03*
D17*
X035805Y011127D03*
X031495Y008975D03*
X030820Y008925D03*
X030820Y007695D03*
X031510Y007695D03*
X025415Y007285D03*
X024265Y009060D03*
X022640Y009795D03*
X021495Y009005D03*
X018644Y012201D03*
X017665Y012955D03*
X014425Y012235D03*
X012700Y010850D03*
X009435Y012025D03*
X011445Y014335D03*
X014025Y014845D03*
X016470Y017350D03*
X014525Y018595D03*
X018991Y018703D03*
X021039Y018692D03*
X020429Y016739D03*
X020205Y016231D03*
X020209Y015395D03*
X023560Y016750D03*
X024775Y017384D03*
X026540Y016590D03*
X027900Y016565D03*
X030225Y016467D03*
X029710Y014435D03*
X030805Y012750D03*
X021760Y012305D03*
X026856Y018449D03*
X024952Y018621D03*
X006220Y018310D03*
X003900Y017910D03*
X001305Y016197D03*
X001185Y011217D03*
X003370Y008180D03*
X005185Y008190D03*
X006280Y008055D03*
X012230Y005135D03*
X009023Y003697D03*
X008186Y003684D03*
X004625Y003910D03*
X004275Y004677D03*
X003820Y001640D03*
X011740Y002793D03*
X013059Y002765D03*
X017750Y006010D03*
X019515Y005157D03*
X029745Y004047D03*
D18*
X030343Y004680D02*
X030438Y004640D01*
X031392Y004640D01*
X031487Y004680D01*
X031560Y004753D01*
X031600Y004848D01*
X031600Y004919D01*
X031770Y005089D01*
X031821Y005068D01*
X032040Y005068D01*
X032242Y005152D01*
X032397Y005306D01*
X032445Y005421D01*
X032445Y004150D01*
X032481Y004061D01*
X032549Y003994D01*
X033119Y003424D01*
X033207Y003387D01*
X036543Y003387D01*
X036631Y003424D01*
X036698Y003491D01*
X037328Y004121D01*
X037417Y004084D01*
X037583Y004084D01*
X037736Y004147D01*
X037853Y004264D01*
X037916Y004417D01*
X037916Y004583D01*
X037853Y004736D01*
X037821Y004767D01*
X038013Y004767D01*
X038101Y004804D01*
X038391Y005095D01*
X038417Y005084D01*
X038583Y005084D01*
X038736Y005147D01*
X038853Y005264D01*
X038916Y005417D01*
X038916Y005583D01*
X038853Y005736D01*
X038736Y005853D01*
X038583Y005916D01*
X038417Y005916D01*
X038264Y005853D01*
X038147Y005736D01*
X038084Y005583D01*
X038084Y005466D01*
X037865Y005247D01*
X037836Y005247D01*
X037853Y005264D01*
X037916Y005417D01*
X037916Y005583D01*
X037853Y005736D01*
X037736Y005853D01*
X037583Y005916D01*
X037417Y005916D01*
X037264Y005853D01*
X037147Y005736D01*
X037084Y005583D01*
X037084Y005417D01*
X037147Y005264D01*
X037164Y005247D01*
X037107Y005247D01*
X037019Y005211D01*
X036779Y004971D01*
X036779Y004971D01*
X036711Y004903D01*
X036675Y004815D01*
X036675Y004507D01*
X036335Y004167D01*
X033384Y004167D01*
X033165Y004387D01*
X033165Y007005D01*
X033128Y007093D01*
X032625Y007597D01*
X032625Y007995D01*
X032588Y008083D01*
X032168Y008503D01*
X032101Y008571D01*
X032013Y008607D01*
X026820Y008607D01*
X026797Y008630D01*
X026702Y008670D01*
X026578Y008670D01*
X026472Y008775D01*
X024862Y010385D01*
X024767Y010425D01*
X016648Y010425D01*
X016553Y010385D01*
X016480Y010312D01*
X012565Y006397D01*
X012525Y006302D01*
X012525Y005798D01*
X012177Y005450D01*
X012167Y005450D01*
X012052Y005402D01*
X011963Y005313D01*
X011915Y005198D01*
X011915Y005072D01*
X011963Y004957D01*
X012052Y004868D01*
X012167Y004820D01*
X012244Y004820D01*
X012124Y004700D01*
X011381Y004700D01*
X011394Y007136D01*
X011403Y007146D01*
X011403Y007434D01*
X011199Y007638D01*
X011074Y007638D01*
X010455Y008258D01*
X010440Y008292D01*
X010367Y008365D01*
X010272Y008405D01*
X008273Y008405D01*
X008361Y008493D01*
X008445Y008696D01*
X008445Y008914D01*
X008361Y009117D01*
X008207Y009271D01*
X008125Y009305D01*
X008207Y009339D01*
X008361Y009493D01*
X008445Y009696D01*
X008445Y009914D01*
X008361Y010117D01*
X008207Y010271D01*
X008125Y010305D01*
X008207Y010339D01*
X008361Y010493D01*
X008445Y010696D01*
X008445Y010914D01*
X008361Y011117D01*
X008207Y011271D01*
X008125Y011305D01*
X008207Y011339D01*
X008361Y011493D01*
X008445Y011696D01*
X008445Y011914D01*
X008361Y012117D01*
X008207Y012271D01*
X008101Y012315D01*
X008173Y012352D01*
X008240Y012401D01*
X008299Y012460D01*
X008348Y012527D01*
X008386Y012602D01*
X008412Y012681D01*
X008425Y012763D01*
X008425Y012765D01*
X007935Y012765D01*
X007935Y012845D01*
X008425Y012845D01*
X008425Y012847D01*
X008412Y012929D01*
X008386Y013008D01*
X008348Y013083D01*
X008299Y013150D01*
X008240Y013209D01*
X008173Y013258D01*
X008101Y013295D01*
X008207Y013339D01*
X008361Y013493D01*
X008445Y013696D01*
X008445Y013914D01*
X008361Y014117D01*
X008207Y014271D01*
X008125Y014305D01*
X008207Y014339D01*
X008361Y014493D01*
X008445Y014696D01*
X008445Y014914D01*
X008361Y015117D01*
X008207Y015271D01*
X008004Y015355D01*
X007786Y015355D01*
X007583Y015271D01*
X007429Y015117D01*
X007345Y014914D01*
X007345Y014696D01*
X007429Y014493D01*
X007583Y014339D01*
X007665Y014305D01*
X007583Y014271D01*
X007429Y014117D01*
X007345Y013914D01*
X007345Y013696D01*
X007429Y013493D01*
X007583Y013339D01*
X007689Y013295D01*
X007617Y013258D01*
X007550Y013209D01*
X007491Y013150D01*
X007442Y013083D01*
X007404Y013008D01*
X007378Y012929D01*
X007365Y012847D01*
X007365Y012845D01*
X007855Y012845D01*
X007855Y012765D01*
X007365Y012765D01*
X007365Y012763D01*
X007378Y012681D01*
X007404Y012602D01*
X007442Y012527D01*
X007491Y012460D01*
X007550Y012401D01*
X007617Y012352D01*
X007689Y012315D01*
X007583Y012271D01*
X007429Y012117D01*
X007345Y011914D01*
X007345Y011696D01*
X007429Y011493D01*
X007583Y011339D01*
X007665Y011305D01*
X007583Y011271D01*
X007429Y011117D01*
X007345Y010914D01*
X007345Y010696D01*
X007429Y010493D01*
X007583Y010339D01*
X007665Y010305D01*
X007583Y010271D01*
X007429Y010117D01*
X007345Y009914D01*
X007345Y009696D01*
X007429Y009493D01*
X007583Y009339D01*
X007665Y009305D01*
X007583Y009271D01*
X007429Y009117D01*
X007345Y008914D01*
X007345Y008696D01*
X007429Y008493D01*
X007517Y008405D01*
X006853Y008405D01*
X006700Y008558D01*
X006700Y010017D01*
X006735Y010053D01*
X006788Y010181D01*
X006788Y010319D01*
X006735Y010447D01*
X006637Y010545D01*
X006509Y010598D01*
X006371Y010598D01*
X006243Y010545D01*
X006214Y010517D01*
X006214Y010532D01*
X006220Y010556D01*
X006216Y010583D01*
X006216Y010610D01*
X006207Y010633D01*
X006203Y010658D01*
X006189Y010681D01*
X006179Y010706D01*
X006162Y010725D01*
X006149Y010746D01*
X006127Y010762D01*
X006108Y010781D01*
X006085Y010792D01*
X005938Y010897D01*
X005960Y010951D01*
X005960Y011119D01*
X005896Y011273D01*
X005778Y011391D01*
X005624Y011455D01*
X004976Y011455D01*
X004822Y011391D01*
X004704Y011273D01*
X004640Y011119D01*
X004640Y010951D01*
X004704Y010797D01*
X004822Y010679D01*
X004976Y010615D01*
X005439Y010615D01*
X005691Y010434D01*
X005691Y010427D01*
X005624Y010455D01*
X004976Y010455D01*
X004822Y010391D01*
X004704Y010273D01*
X004640Y010119D01*
X004640Y009951D01*
X004704Y009797D01*
X004822Y009679D01*
X004925Y009636D01*
X004925Y008375D01*
X004918Y008368D01*
X004870Y008253D01*
X004870Y008127D01*
X004918Y008012D01*
X005007Y007923D01*
X005122Y007875D01*
X005248Y007875D01*
X005363Y007923D01*
X005452Y008012D01*
X005500Y008127D01*
X005500Y008253D01*
X005452Y008368D01*
X005445Y008375D01*
X005445Y009615D01*
X005624Y009615D01*
X005670Y009634D01*
X005626Y007945D01*
X005620Y007912D01*
X005624Y007894D01*
X005624Y007875D01*
X005636Y007844D01*
X005643Y007811D01*
X005654Y007796D01*
X005661Y007779D01*
X005684Y007754D01*
X007965Y004559D01*
X007935Y003878D01*
X007919Y003862D01*
X007871Y003746D01*
X007871Y003621D01*
X007919Y003505D01*
X008008Y003417D01*
X008124Y003369D01*
X008249Y003369D01*
X008365Y003417D01*
X008453Y003505D01*
X008501Y003621D01*
X008501Y003746D01*
X008454Y003860D01*
X008487Y004610D01*
X008493Y004646D01*
X008490Y004661D01*
X008490Y004678D01*
X008478Y004711D01*
X008470Y004746D01*
X008460Y004760D01*
X008455Y004775D01*
X008431Y004801D01*
X008295Y004992D01*
X008721Y004434D01*
X008753Y003868D01*
X008708Y003759D01*
X008708Y003634D01*
X008756Y003518D01*
X008845Y003430D01*
X008961Y003382D01*
X009086Y003382D01*
X009202Y003430D01*
X009290Y003518D01*
X009338Y003634D01*
X009338Y003759D01*
X009290Y003875D01*
X009273Y003893D01*
X009237Y004518D01*
X009241Y004545D01*
X009234Y004569D01*
X009233Y004594D01*
X009221Y004619D01*
X009214Y004645D01*
X009199Y004665D01*
X009188Y004688D01*
X009168Y004706D01*
X006737Y007885D01*
X010092Y007885D01*
X010707Y007271D01*
X010707Y007146D01*
X010714Y007138D01*
X010700Y004604D01*
X010700Y004603D01*
X010700Y004536D01*
X010700Y004469D01*
X010700Y004468D01*
X010700Y004467D01*
X010726Y004406D01*
X010751Y004344D01*
X010751Y004343D01*
X010752Y004342D01*
X010799Y004295D01*
X010846Y004248D01*
X010847Y004247D01*
X011022Y004072D01*
X011123Y004030D01*
X010246Y004030D01*
X010150Y003990D01*
X008877Y002717D01*
X005702Y002717D01*
X004785Y003635D01*
X004803Y003643D01*
X004892Y003732D01*
X004940Y003847D01*
X004940Y003973D01*
X004892Y004088D01*
X004885Y004095D01*
X004885Y008087D01*
X004845Y008182D01*
X004680Y008347D01*
X004680Y008347D01*
X004607Y008420D01*
X004512Y008460D01*
X003517Y008460D01*
X003433Y008495D01*
X003307Y008495D01*
X003192Y008447D01*
X003103Y008358D01*
X003055Y008243D01*
X003055Y008117D01*
X003103Y008002D01*
X003192Y007913D01*
X003307Y007865D01*
X003433Y007865D01*
X003548Y007913D01*
X003575Y007940D01*
X004352Y007940D01*
X004365Y007927D01*
X004365Y004981D01*
X004337Y004992D01*
X004212Y004992D01*
X004096Y004944D01*
X004008Y004856D01*
X003960Y004740D01*
X003960Y004615D01*
X004008Y004499D01*
X004015Y004492D01*
X004015Y003726D01*
X004054Y003630D01*
X004128Y003557D01*
X005448Y002237D01*
X005543Y002197D01*
X006010Y002197D01*
X005788Y001976D01*
X005660Y001667D01*
X005660Y001333D01*
X005788Y001024D01*
X006024Y000788D01*
X006188Y000720D01*
X000710Y000720D01*
X000710Y021296D01*
X006227Y021296D01*
X006024Y021212D01*
X005788Y020976D01*
X005660Y020667D01*
X005660Y020333D01*
X005788Y020024D01*
X006024Y019788D01*
X006333Y019660D01*
X006667Y019660D01*
X006976Y019788D01*
X007212Y020024D01*
X007340Y020333D01*
X007340Y020667D01*
X007212Y020976D01*
X006976Y021212D01*
X006773Y021296D01*
X035727Y021296D01*
X035524Y021212D01*
X035288Y020976D01*
X035160Y020667D01*
X035160Y020333D01*
X035288Y020024D01*
X035524Y019788D01*
X035833Y019660D01*
X036167Y019660D01*
X036476Y019788D01*
X036712Y020024D01*
X036840Y020333D01*
X036840Y020667D01*
X036712Y020976D01*
X036476Y021212D01*
X036273Y021296D01*
X040160Y021296D01*
X040160Y000720D01*
X038812Y000720D01*
X038976Y000788D01*
X039212Y001024D01*
X039340Y001333D01*
X039340Y001667D01*
X039212Y001976D01*
X038976Y002212D01*
X038667Y002340D01*
X038333Y002340D01*
X038024Y002212D01*
X037788Y001976D01*
X037660Y001667D01*
X037660Y001333D01*
X037788Y001024D01*
X038024Y000788D01*
X038188Y000720D01*
X006812Y000720D01*
X006976Y000788D01*
X007212Y001024D01*
X007340Y001333D01*
X007340Y001667D01*
X007212Y001976D01*
X006990Y002197D01*
X009037Y002197D01*
X009132Y002237D01*
X009205Y002310D01*
X010405Y003510D01*
X016377Y003510D01*
X017640Y002248D01*
X017713Y002175D01*
X017808Y002135D01*
X037842Y002135D01*
X037937Y002175D01*
X038280Y002518D01*
X038320Y002613D01*
X038320Y002717D01*
X038300Y002765D01*
X038300Y003157D01*
X038312Y003149D01*
X038384Y003119D01*
X038461Y003104D01*
X038481Y003104D01*
X038481Y003481D01*
X038519Y003481D01*
X038519Y003519D01*
X038481Y003519D01*
X038481Y003896D01*
X038461Y003896D01*
X038384Y003881D01*
X038349Y003866D01*
X038566Y004084D01*
X038583Y004084D01*
X038736Y004147D01*
X038853Y004264D01*
X038916Y004417D01*
X038916Y004583D01*
X038853Y004736D01*
X038736Y004853D01*
X038583Y004916D01*
X038417Y004916D01*
X038264Y004853D01*
X038147Y004736D01*
X038084Y004583D01*
X038084Y004417D01*
X038107Y004360D01*
X037840Y004092D01*
X037800Y003997D01*
X037800Y003893D01*
X037820Y003845D01*
X037820Y003734D01*
X037808Y003753D01*
X037753Y003808D01*
X037688Y003851D01*
X037616Y003881D01*
X037539Y003896D01*
X037519Y003896D01*
X037519Y003519D01*
X037481Y003519D01*
X037481Y003896D01*
X037461Y003896D01*
X037384Y003881D01*
X037312Y003851D01*
X037247Y003808D01*
X037192Y003753D01*
X037149Y003688D01*
X037119Y003616D01*
X037104Y003539D01*
X037104Y003519D01*
X037481Y003519D01*
X037481Y003481D01*
X037519Y003481D01*
X037519Y003104D01*
X037539Y003104D01*
X037616Y003119D01*
X037688Y003149D01*
X037753Y003192D01*
X037808Y003247D01*
X037820Y003266D01*
X037820Y002793D01*
X037682Y002655D01*
X028275Y002655D01*
X028335Y002716D01*
X028419Y002918D01*
X028419Y003137D01*
X028335Y003339D01*
X028181Y003494D01*
X028099Y003527D01*
X028181Y003561D01*
X028335Y003716D01*
X028419Y003918D01*
X028419Y004137D01*
X028335Y004339D01*
X028181Y004494D01*
X028075Y004537D01*
X028147Y004574D01*
X028214Y004623D01*
X028273Y004682D01*
X028322Y004750D01*
X028360Y004824D01*
X028386Y004903D01*
X028399Y004986D01*
X028399Y004987D01*
X027909Y004987D01*
X027909Y005067D01*
X028399Y005067D01*
X028399Y005069D01*
X028386Y005152D01*
X028360Y005231D01*
X028322Y005305D01*
X028273Y005373D01*
X028261Y005385D01*
X029637Y005385D01*
X030270Y004753D01*
X030270Y004753D01*
X030343Y004680D01*
X030402Y004655D02*
X028246Y004655D01*
X028335Y004773D02*
X030249Y004773D01*
X030130Y004892D02*
X028382Y004892D01*
X028390Y005129D02*
X029893Y005129D01*
X029775Y005247D02*
X028352Y005247D01*
X028278Y005366D02*
X029656Y005366D01*
X030012Y005010D02*
X027909Y005010D01*
X027829Y005010D02*
X026016Y005010D01*
X026016Y004991D02*
X026016Y005071D01*
X026506Y005071D01*
X026506Y005072D01*
X026493Y005155D01*
X026468Y005234D01*
X026430Y005308D01*
X026381Y005376D01*
X026372Y005385D01*
X027477Y005385D01*
X027465Y005373D01*
X027416Y005305D01*
X027378Y005231D01*
X027352Y005152D01*
X027339Y005069D01*
X027339Y005067D01*
X027829Y005067D01*
X027829Y004987D01*
X027339Y004987D01*
X027339Y004986D01*
X027352Y004903D01*
X027378Y004824D01*
X027416Y004750D01*
X027465Y004682D01*
X027524Y004623D01*
X027591Y004574D01*
X027663Y004537D01*
X027558Y004494D01*
X027403Y004339D01*
X027319Y004137D01*
X027319Y003918D01*
X027403Y003716D01*
X027558Y003561D01*
X027639Y003527D01*
X027558Y003494D01*
X027403Y003339D01*
X027319Y003137D01*
X027319Y002918D01*
X027403Y002716D01*
X027464Y002655D01*
X026379Y002655D01*
X026443Y002719D01*
X026526Y002921D01*
X026526Y003140D01*
X026443Y003342D01*
X026288Y003497D01*
X026207Y003531D01*
X026288Y003564D01*
X026443Y003719D01*
X026526Y003921D01*
X026526Y004140D01*
X026443Y004342D01*
X026288Y004497D01*
X026182Y004541D01*
X026254Y004577D01*
X026322Y004626D01*
X026381Y004685D01*
X026430Y004753D01*
X026468Y004827D01*
X026493Y004906D01*
X026506Y004989D01*
X026506Y004991D01*
X026016Y004991D01*
X025936Y004991D02*
X025446Y004991D01*
X025446Y004989D01*
X025459Y004906D01*
X025485Y004827D01*
X025523Y004753D01*
X025572Y004685D01*
X025631Y004626D01*
X025699Y004577D01*
X025771Y004541D01*
X025665Y004497D01*
X025510Y004342D01*
X025426Y004140D01*
X025426Y003921D01*
X025510Y003719D01*
X025665Y003564D01*
X025746Y003531D01*
X025665Y003497D01*
X025510Y003342D01*
X025426Y003140D01*
X025426Y002921D01*
X025510Y002719D01*
X025574Y002655D01*
X024469Y002655D01*
X024516Y002702D01*
X024600Y002904D01*
X024600Y003123D01*
X024516Y003325D01*
X024362Y003480D01*
X024280Y003514D01*
X024362Y003548D01*
X024516Y003702D01*
X024600Y003904D01*
X024600Y004123D01*
X024516Y004325D01*
X024362Y004480D01*
X024256Y004524D01*
X024328Y004561D01*
X024395Y004610D01*
X024454Y004669D01*
X024503Y004736D01*
X024541Y004810D01*
X024567Y004890D01*
X024580Y004972D01*
X024580Y004974D01*
X024090Y004974D01*
X024090Y005054D01*
X024580Y005054D01*
X024580Y005056D01*
X024567Y005138D01*
X024541Y005217D01*
X024503Y005292D01*
X024454Y005359D01*
X024428Y005385D01*
X025581Y005385D01*
X025572Y005376D01*
X025523Y005308D01*
X025485Y005234D01*
X025459Y005155D01*
X025446Y005072D01*
X025446Y005071D01*
X025936Y005071D01*
X025936Y004991D01*
X025936Y005010D02*
X024090Y005010D01*
X024010Y005010D02*
X022134Y005010D01*
X022134Y004973D02*
X022134Y005053D01*
X022054Y005053D01*
X022054Y004973D01*
X021564Y004973D01*
X021564Y004971D01*
X021577Y004889D01*
X021603Y004810D01*
X021641Y004735D01*
X021690Y004668D01*
X021749Y004609D01*
X021816Y004560D01*
X021888Y004523D01*
X021782Y004479D01*
X021628Y004325D01*
X021544Y004122D01*
X021544Y003904D01*
X021628Y003701D01*
X021782Y003547D01*
X021864Y003513D01*
X021782Y003479D01*
X021628Y003325D01*
X021544Y003122D01*
X021544Y002904D01*
X021628Y002701D01*
X021674Y002655D01*
X017968Y002655D01*
X016705Y003917D01*
X016705Y003917D01*
X016632Y003990D01*
X016537Y004030D01*
X012357Y004030D01*
X012458Y004072D01*
X012553Y004167D01*
X013396Y005010D01*
X016579Y005010D01*
X017140Y004449D01*
X017140Y004241D01*
X017020Y004121D01*
X017020Y003739D01*
X017289Y003470D01*
X017671Y003470D01*
X017940Y003739D01*
X017940Y004121D01*
X017820Y004241D01*
X017820Y004658D01*
X017768Y004783D01*
X017008Y005543D01*
X016913Y005638D01*
X016788Y005690D01*
X013187Y005690D01*
X013062Y005638D01*
X013033Y005608D01*
X013045Y005638D01*
X013045Y006142D01*
X016808Y009905D01*
X022345Y009905D01*
X022325Y009858D01*
X022325Y009732D01*
X022373Y009617D01*
X022462Y009528D01*
X022577Y009480D01*
X022703Y009480D01*
X022818Y009528D01*
X022825Y009535D01*
X024492Y009535D01*
X026118Y007910D01*
X026213Y007870D01*
X026317Y007870D01*
X026365Y007890D01*
X030570Y007890D01*
X030553Y007873D01*
X030505Y007758D01*
X030505Y007632D01*
X030553Y007517D01*
X030560Y007510D01*
X030560Y007100D01*
X030502Y007076D01*
X030348Y006921D01*
X030264Y006719D01*
X030264Y006500D01*
X030348Y006298D01*
X030502Y006144D01*
X030584Y006110D01*
X030573Y006105D01*
X030557Y006120D01*
X030462Y006160D01*
X028348Y006160D01*
X028370Y006177D01*
X028416Y006222D01*
X028454Y006274D01*
X028483Y006332D01*
X028503Y006393D01*
X028513Y006457D01*
X028513Y006471D01*
X028122Y006471D01*
X028122Y006508D01*
X028085Y006508D01*
X028085Y006899D01*
X028071Y006899D01*
X028007Y006889D01*
X027946Y006869D01*
X027888Y006840D01*
X027836Y006802D01*
X027791Y006756D01*
X027753Y006704D01*
X027723Y006647D01*
X027720Y006637D01*
X027680Y006733D01*
X027559Y006854D01*
X027401Y006919D01*
X027230Y006919D01*
X027072Y006854D01*
X026951Y006733D01*
X026922Y006662D01*
X026893Y006733D01*
X026772Y006854D01*
X026614Y006919D01*
X026443Y006919D01*
X026285Y006854D01*
X026164Y006733D01*
X026135Y006662D01*
X026106Y006733D01*
X025985Y006854D01*
X025827Y006919D01*
X025656Y006919D01*
X025498Y006854D01*
X025377Y006733D01*
X025347Y006662D01*
X025318Y006733D01*
X025197Y006854D01*
X025039Y006919D01*
X024868Y006919D01*
X024710Y006854D01*
X024589Y006733D01*
X024560Y006662D01*
X024531Y006733D01*
X024410Y006854D01*
X024252Y006919D01*
X024081Y006919D01*
X023923Y006854D01*
X023802Y006733D01*
X023773Y006662D01*
X023743Y006733D01*
X023622Y006854D01*
X023464Y006919D01*
X023293Y006919D01*
X023135Y006854D01*
X023014Y006733D01*
X022985Y006662D01*
X022956Y006733D01*
X022835Y006854D01*
X022677Y006919D01*
X022506Y006919D01*
X022348Y006854D01*
X022227Y006733D01*
X022198Y006662D01*
X022169Y006733D01*
X022048Y006854D01*
X021890Y006919D01*
X021719Y006919D01*
X021561Y006854D01*
X021440Y006733D01*
X021410Y006662D01*
X021381Y006733D01*
X021260Y006854D01*
X021102Y006919D01*
X020931Y006919D01*
X020773Y006854D01*
X020652Y006733D01*
X020587Y006575D01*
X020587Y006404D01*
X020652Y006246D01*
X020773Y006125D01*
X020931Y006059D01*
X021102Y006059D01*
X021260Y006125D01*
X021381Y006246D01*
X021410Y006316D01*
X021440Y006246D01*
X021544Y006141D01*
X021544Y005994D01*
X021584Y005899D01*
X021775Y005708D01*
X021848Y005635D01*
X021943Y005595D01*
X022317Y005595D01*
X022415Y005498D01*
X022415Y005498D01*
X022488Y005425D01*
X022583Y005385D01*
X023672Y005385D01*
X023646Y005359D01*
X023597Y005292D01*
X023559Y005217D01*
X023533Y005138D01*
X023520Y005056D01*
X023520Y005054D01*
X024010Y005054D01*
X024010Y004974D01*
X023520Y004974D01*
X023520Y004972D01*
X023533Y004890D01*
X023559Y004810D01*
X023597Y004736D01*
X023646Y004669D01*
X023705Y004610D01*
X023772Y004561D01*
X023844Y004524D01*
X023738Y004480D01*
X023584Y004325D01*
X023500Y004123D01*
X023500Y003904D01*
X023584Y003702D01*
X023738Y003548D01*
X023820Y003514D01*
X023738Y003480D01*
X023584Y003325D01*
X023500Y003123D01*
X023500Y002904D01*
X023584Y002702D01*
X023631Y002655D01*
X022514Y002655D01*
X022560Y002701D01*
X022644Y002904D01*
X022644Y003122D01*
X022560Y003325D01*
X022406Y003479D01*
X022324Y003513D01*
X022406Y003547D01*
X022560Y003701D01*
X022644Y003904D01*
X022644Y004122D01*
X022560Y004325D01*
X022406Y004479D01*
X022300Y004523D01*
X022372Y004560D01*
X022439Y004609D01*
X022498Y004668D01*
X022547Y004735D01*
X022585Y004810D01*
X022611Y004889D01*
X022624Y004971D01*
X022624Y004973D01*
X022134Y004973D01*
X022134Y005053D02*
X022624Y005053D01*
X022624Y005055D01*
X022611Y005137D01*
X022585Y005216D01*
X022547Y005291D01*
X022498Y005358D01*
X022439Y005417D01*
X022372Y005466D01*
X022297Y005504D01*
X022218Y005530D01*
X022136Y005543D01*
X022134Y005543D01*
X022134Y005053D01*
X022134Y005129D02*
X022054Y005129D01*
X022054Y005053D02*
X022054Y005543D01*
X022052Y005543D01*
X021970Y005530D01*
X021891Y005504D01*
X021816Y005466D01*
X021749Y005417D01*
X021690Y005358D01*
X021641Y005291D01*
X021603Y005216D01*
X021577Y005137D01*
X021564Y005055D01*
X021564Y005053D01*
X022054Y005053D01*
X022054Y005010D02*
X017540Y005010D01*
X017422Y005129D02*
X021576Y005129D01*
X021619Y005247D02*
X017303Y005247D01*
X017185Y005366D02*
X021697Y005366D01*
X021852Y005484D02*
X017066Y005484D01*
X016948Y005603D02*
X021924Y005603D01*
X022054Y005484D02*
X022134Y005484D01*
X022134Y005366D02*
X022054Y005366D01*
X022054Y005247D02*
X022134Y005247D01*
X022336Y005484D02*
X022428Y005484D01*
X022491Y005366D02*
X023653Y005366D01*
X023574Y005247D02*
X022569Y005247D01*
X022612Y005129D02*
X023532Y005129D01*
X023533Y004892D02*
X022611Y004892D01*
X022567Y004773D02*
X023578Y004773D01*
X023659Y004655D02*
X022485Y004655D01*
X022326Y004536D02*
X023820Y004536D01*
X023676Y004418D02*
X022467Y004418D01*
X022571Y004299D02*
X023573Y004299D01*
X023524Y004181D02*
X022620Y004181D01*
X022644Y004062D02*
X023500Y004062D01*
X023500Y003944D02*
X022644Y003944D01*
X022612Y003825D02*
X023533Y003825D01*
X023582Y003707D02*
X022563Y003707D01*
X022447Y003588D02*
X023698Y003588D01*
X023728Y003470D02*
X022415Y003470D01*
X022533Y003351D02*
X023610Y003351D01*
X023545Y003233D02*
X022598Y003233D01*
X022644Y003114D02*
X023500Y003114D01*
X023500Y002996D02*
X022644Y002996D01*
X022633Y002877D02*
X023511Y002877D01*
X023560Y002759D02*
X022584Y002759D01*
X021604Y002759D02*
X017864Y002759D01*
X017745Y002877D02*
X021555Y002877D01*
X021544Y002996D02*
X017627Y002996D01*
X017508Y003114D02*
X021544Y003114D01*
X021590Y003233D02*
X017390Y003233D01*
X017271Y003351D02*
X021655Y003351D01*
X021773Y003470D02*
X017153Y003470D01*
X017171Y003588D02*
X017034Y003588D01*
X017053Y003707D02*
X016916Y003707D01*
X017020Y003825D02*
X016797Y003825D01*
X016679Y003944D02*
X017020Y003944D01*
X017020Y004062D02*
X012435Y004062D01*
X012567Y004181D02*
X017080Y004181D01*
X017140Y004299D02*
X012685Y004299D01*
X012804Y004418D02*
X017140Y004418D01*
X017053Y004536D02*
X012922Y004536D01*
X013041Y004655D02*
X016934Y004655D01*
X016816Y004773D02*
X013159Y004773D01*
X013278Y004892D02*
X016697Y004892D01*
X017659Y004892D02*
X021577Y004892D01*
X021621Y004773D02*
X017772Y004773D01*
X017820Y004655D02*
X021703Y004655D01*
X021862Y004536D02*
X017820Y004536D01*
X017820Y004418D02*
X021721Y004418D01*
X021617Y004299D02*
X017820Y004299D01*
X017880Y004181D02*
X021568Y004181D01*
X021544Y004062D02*
X017940Y004062D01*
X017940Y003944D02*
X021544Y003944D01*
X021576Y003825D02*
X017940Y003825D01*
X017907Y003707D02*
X021625Y003707D01*
X021741Y003588D02*
X017789Y003588D01*
X017010Y002877D02*
X013353Y002877D01*
X013374Y002828D02*
X013326Y002943D01*
X013237Y003032D01*
X013121Y003080D01*
X012996Y003080D01*
X012880Y003032D01*
X012877Y003029D01*
X011929Y003049D01*
X011918Y003060D01*
X011802Y003108D01*
X011677Y003108D01*
X011561Y003060D01*
X011473Y002971D01*
X011425Y002856D01*
X011425Y002730D01*
X011473Y002615D01*
X011561Y002526D01*
X011677Y002478D01*
X011802Y002478D01*
X011918Y002526D01*
X011921Y002529D01*
X012869Y002509D01*
X012880Y002498D01*
X012996Y002450D01*
X013121Y002450D01*
X013237Y002498D01*
X013326Y002587D01*
X013374Y002702D01*
X013374Y002828D01*
X013374Y002759D02*
X017128Y002759D01*
X017247Y002640D02*
X013348Y002640D01*
X013261Y002522D02*
X017365Y002522D01*
X017484Y002403D02*
X009298Y002403D01*
X009180Y002285D02*
X017602Y002285D01*
X017732Y002166D02*
X007021Y002166D01*
X007140Y002048D02*
X037860Y002048D01*
X037918Y002166D02*
X037979Y002166D01*
X038048Y002285D02*
X038200Y002285D01*
X038166Y002403D02*
X040160Y002403D01*
X040160Y002285D02*
X038800Y002285D01*
X039021Y002166D02*
X040160Y002166D01*
X040160Y002048D02*
X039140Y002048D01*
X039231Y001929D02*
X040160Y001929D01*
X040160Y001811D02*
X039280Y001811D01*
X039329Y001692D02*
X040160Y001692D01*
X040160Y001574D02*
X039340Y001574D01*
X039340Y001455D02*
X040160Y001455D01*
X040160Y001337D02*
X039340Y001337D01*
X039292Y001218D02*
X040160Y001218D01*
X040160Y001100D02*
X039243Y001100D01*
X039169Y000981D02*
X040160Y000981D01*
X040160Y000863D02*
X039051Y000863D01*
X038871Y000744D02*
X040160Y000744D01*
X038129Y000744D02*
X006871Y000744D01*
X007051Y000863D02*
X037949Y000863D01*
X037831Y000981D02*
X007169Y000981D01*
X007243Y001100D02*
X013378Y001100D01*
X013417Y001084D02*
X013264Y001147D01*
X013147Y001264D01*
X013084Y001417D01*
X013084Y001583D01*
X013147Y001736D01*
X013264Y001853D01*
X013417Y001916D01*
X013583Y001916D01*
X013736Y001853D01*
X013853Y001736D01*
X013916Y001583D01*
X013916Y001417D01*
X013853Y001264D01*
X013736Y001147D01*
X013583Y001084D01*
X013417Y001084D01*
X013622Y001100D02*
X014378Y001100D01*
X014417Y001084D02*
X014583Y001084D01*
X014736Y001147D01*
X014853Y001264D01*
X014916Y001417D01*
X014916Y001583D01*
X014853Y001736D01*
X014736Y001853D01*
X014583Y001916D01*
X014417Y001916D01*
X014264Y001853D01*
X014147Y001736D01*
X014084Y001583D01*
X014084Y001417D01*
X014147Y001264D01*
X014264Y001147D01*
X014417Y001084D01*
X014622Y001100D02*
X015378Y001100D01*
X015417Y001084D02*
X015264Y001147D01*
X015147Y001264D01*
X015084Y001417D01*
X015084Y001583D01*
X015147Y001736D01*
X015264Y001853D01*
X015417Y001916D01*
X015583Y001916D01*
X015736Y001853D01*
X015853Y001736D01*
X015916Y001583D01*
X015916Y001417D01*
X015853Y001264D01*
X015736Y001147D01*
X015583Y001084D01*
X015417Y001084D01*
X015622Y001100D02*
X018378Y001100D01*
X018417Y001084D02*
X018264Y001147D01*
X018147Y001264D01*
X018084Y001417D01*
X018084Y001583D01*
X018147Y001736D01*
X018264Y001853D01*
X018417Y001916D01*
X018583Y001916D01*
X018736Y001853D01*
X018853Y001736D01*
X018916Y001583D01*
X018916Y001417D01*
X018853Y001264D01*
X018736Y001147D01*
X018583Y001084D01*
X018417Y001084D01*
X018622Y001100D02*
X020378Y001100D01*
X020417Y001084D02*
X020264Y001147D01*
X020147Y001264D01*
X020084Y001417D01*
X020084Y001583D01*
X020147Y001736D01*
X020264Y001853D01*
X020417Y001916D01*
X020583Y001916D01*
X020736Y001853D01*
X020853Y001736D01*
X020916Y001583D01*
X020916Y001417D01*
X020853Y001264D01*
X020736Y001147D01*
X020583Y001084D01*
X020417Y001084D01*
X020622Y001100D02*
X021378Y001100D01*
X021417Y001084D02*
X021583Y001084D01*
X021736Y001147D01*
X021853Y001264D01*
X021916Y001417D01*
X021916Y001583D01*
X021853Y001736D01*
X021736Y001853D01*
X021583Y001916D01*
X021417Y001916D01*
X021264Y001853D01*
X021147Y001736D01*
X021084Y001583D01*
X021084Y001417D01*
X021147Y001264D01*
X021264Y001147D01*
X021417Y001084D01*
X021622Y001100D02*
X022378Y001100D01*
X022417Y001084D02*
X022264Y001147D01*
X022147Y001264D01*
X022084Y001417D01*
X022084Y001583D01*
X022147Y001736D01*
X022264Y001853D01*
X022417Y001916D01*
X022583Y001916D01*
X022736Y001853D01*
X022853Y001736D01*
X022916Y001583D01*
X022916Y001417D01*
X022853Y001264D01*
X022736Y001147D01*
X022583Y001084D01*
X022417Y001084D01*
X022622Y001100D02*
X023378Y001100D01*
X023417Y001084D02*
X023264Y001147D01*
X023147Y001264D01*
X023084Y001417D01*
X023084Y001583D01*
X023147Y001736D01*
X023264Y001853D01*
X023417Y001916D01*
X023583Y001916D01*
X023736Y001853D01*
X023853Y001736D01*
X023916Y001583D01*
X023916Y001417D01*
X023853Y001264D01*
X023736Y001147D01*
X023583Y001084D01*
X023417Y001084D01*
X023622Y001100D02*
X024378Y001100D01*
X024417Y001084D02*
X024264Y001147D01*
X024147Y001264D01*
X024084Y001417D01*
X024084Y001583D01*
X024147Y001736D01*
X024264Y001853D01*
X024417Y001916D01*
X024583Y001916D01*
X024736Y001853D01*
X024853Y001736D01*
X024916Y001583D01*
X024916Y001417D01*
X024853Y001264D01*
X024736Y001147D01*
X024583Y001084D01*
X024417Y001084D01*
X024622Y001100D02*
X025378Y001100D01*
X025417Y001084D02*
X025264Y001147D01*
X025147Y001264D01*
X025084Y001417D01*
X025084Y001583D01*
X025147Y001736D01*
X025264Y001853D01*
X025417Y001916D01*
X025583Y001916D01*
X025736Y001853D01*
X025853Y001736D01*
X025916Y001583D01*
X025916Y001417D01*
X025853Y001264D01*
X025736Y001147D01*
X025583Y001084D01*
X025417Y001084D01*
X025622Y001100D02*
X026378Y001100D01*
X026417Y001084D02*
X026264Y001147D01*
X026147Y001264D01*
X026084Y001417D01*
X026084Y001583D01*
X026147Y001736D01*
X026264Y001853D01*
X026417Y001916D01*
X026583Y001916D01*
X026736Y001853D01*
X026853Y001736D01*
X026916Y001583D01*
X026916Y001417D01*
X026853Y001264D01*
X026736Y001147D01*
X026583Y001084D01*
X026417Y001084D01*
X026622Y001100D02*
X027378Y001100D01*
X027417Y001084D02*
X027264Y001147D01*
X027147Y001264D01*
X027084Y001417D01*
X027084Y001583D01*
X027147Y001736D01*
X027264Y001853D01*
X027417Y001916D01*
X027583Y001916D01*
X027736Y001853D01*
X027853Y001736D01*
X027916Y001583D01*
X027916Y001417D01*
X027853Y001264D01*
X027736Y001147D01*
X027583Y001084D01*
X027417Y001084D01*
X027622Y001100D02*
X029378Y001100D01*
X029417Y001084D02*
X029264Y001147D01*
X029147Y001264D01*
X029084Y001417D01*
X029084Y001583D01*
X029147Y001736D01*
X029264Y001853D01*
X029417Y001916D01*
X029583Y001916D01*
X029736Y001853D01*
X029853Y001736D01*
X029916Y001583D01*
X029916Y001417D01*
X029853Y001264D01*
X029736Y001147D01*
X029583Y001084D01*
X029417Y001084D01*
X029622Y001100D02*
X030378Y001100D01*
X030417Y001084D02*
X030583Y001084D01*
X030736Y001147D01*
X030853Y001264D01*
X030916Y001417D01*
X030916Y001583D01*
X030853Y001736D01*
X030736Y001853D01*
X030583Y001916D01*
X030417Y001916D01*
X030264Y001853D01*
X030147Y001736D01*
X030084Y001583D01*
X030084Y001417D01*
X030147Y001264D01*
X030264Y001147D01*
X030417Y001084D01*
X030622Y001100D02*
X031378Y001100D01*
X031417Y001084D02*
X031264Y001147D01*
X031147Y001264D01*
X031084Y001417D01*
X031084Y001583D01*
X031147Y001736D01*
X031264Y001853D01*
X031417Y001916D01*
X031583Y001916D01*
X031736Y001853D01*
X031853Y001736D01*
X031916Y001583D01*
X031916Y001417D01*
X031853Y001264D01*
X031736Y001147D01*
X031583Y001084D01*
X031417Y001084D01*
X031622Y001100D02*
X032378Y001100D01*
X032417Y001084D02*
X032264Y001147D01*
X032147Y001264D01*
X032084Y001417D01*
X032084Y001583D01*
X032147Y001736D01*
X032264Y001853D01*
X032417Y001916D01*
X032583Y001916D01*
X032736Y001853D01*
X032853Y001736D01*
X032916Y001583D01*
X032916Y001417D01*
X032853Y001264D01*
X032736Y001147D01*
X032583Y001084D01*
X032417Y001084D01*
X032622Y001100D02*
X033378Y001100D01*
X033417Y001084D02*
X033264Y001147D01*
X033147Y001264D01*
X033084Y001417D01*
X033084Y001583D01*
X033147Y001736D01*
X033264Y001853D01*
X033417Y001916D01*
X033583Y001916D01*
X033736Y001853D01*
X033853Y001736D01*
X033916Y001583D01*
X033916Y001417D01*
X033853Y001264D01*
X033736Y001147D01*
X033583Y001084D01*
X033417Y001084D01*
X033622Y001100D02*
X034378Y001100D01*
X034417Y001084D02*
X034264Y001147D01*
X034147Y001264D01*
X034084Y001417D01*
X034084Y001583D01*
X034147Y001736D01*
X034264Y001853D01*
X034417Y001916D01*
X034583Y001916D01*
X034736Y001853D01*
X034853Y001736D01*
X034916Y001583D01*
X034916Y001417D01*
X034853Y001264D01*
X034736Y001147D01*
X034583Y001084D01*
X034417Y001084D01*
X034622Y001100D02*
X035378Y001100D01*
X035417Y001084D02*
X035583Y001084D01*
X035736Y001147D01*
X035853Y001264D01*
X035916Y001417D01*
X035916Y001583D01*
X035853Y001736D01*
X035736Y001853D01*
X035583Y001916D01*
X035417Y001916D01*
X035264Y001853D01*
X035147Y001736D01*
X035084Y001583D01*
X035084Y001417D01*
X035147Y001264D01*
X035264Y001147D01*
X035417Y001084D01*
X035622Y001100D02*
X036378Y001100D01*
X036417Y001084D02*
X036264Y001147D01*
X036147Y001264D01*
X036084Y001417D01*
X036084Y001583D01*
X036147Y001736D01*
X036264Y001853D01*
X036417Y001916D01*
X036583Y001916D01*
X036736Y001853D01*
X036853Y001736D01*
X036916Y001583D01*
X036916Y001417D01*
X036853Y001264D01*
X036736Y001147D01*
X036583Y001084D01*
X036417Y001084D01*
X036622Y001100D02*
X037757Y001100D01*
X037708Y001218D02*
X036807Y001218D01*
X036883Y001337D02*
X037660Y001337D01*
X037660Y001455D02*
X036916Y001455D01*
X036916Y001574D02*
X037660Y001574D01*
X037671Y001692D02*
X036871Y001692D01*
X036778Y001811D02*
X037720Y001811D01*
X037769Y001929D02*
X007231Y001929D01*
X007280Y001811D02*
X013222Y001811D01*
X013129Y001692D02*
X007329Y001692D01*
X007340Y001574D02*
X013084Y001574D01*
X013084Y001455D02*
X007340Y001455D01*
X007340Y001337D02*
X013117Y001337D01*
X013193Y001218D02*
X007292Y001218D01*
X006129Y000744D02*
X000710Y000744D01*
X000710Y000863D02*
X005949Y000863D01*
X005831Y000981D02*
X000710Y000981D01*
X000710Y001100D02*
X005757Y001100D01*
X005708Y001218D02*
X000710Y001218D01*
X000710Y001337D02*
X005660Y001337D01*
X005660Y001455D02*
X000710Y001455D01*
X000710Y001574D02*
X005660Y001574D01*
X005671Y001692D02*
X000710Y001692D01*
X000710Y001811D02*
X005720Y001811D01*
X005769Y001929D02*
X000710Y001929D01*
X000710Y002048D02*
X005860Y002048D01*
X005979Y002166D02*
X000710Y002166D01*
X000710Y002285D02*
X005400Y002285D01*
X005281Y002403D02*
X000710Y002403D01*
X000710Y002522D02*
X005163Y002522D01*
X005044Y002640D02*
X000710Y002640D01*
X000710Y002759D02*
X004926Y002759D01*
X004807Y002877D02*
X000710Y002877D01*
X000710Y002996D02*
X004689Y002996D01*
X004570Y003114D02*
X000710Y003114D01*
X000710Y003233D02*
X004452Y003233D01*
X004333Y003351D02*
X000710Y003351D01*
X000710Y003470D02*
X004215Y003470D01*
X004096Y003588D02*
X000710Y003588D01*
X000710Y003707D02*
X004023Y003707D01*
X004015Y003825D02*
X000710Y003825D01*
X000710Y003944D02*
X004015Y003944D01*
X004015Y004062D02*
X000710Y004062D01*
X000710Y004181D02*
X004015Y004181D01*
X004015Y004299D02*
X000710Y004299D01*
X000710Y004418D02*
X004015Y004418D01*
X003992Y004536D02*
X000710Y004536D01*
X000710Y004655D02*
X003960Y004655D01*
X003974Y004773D02*
X000710Y004773D01*
X000710Y004892D02*
X004044Y004892D01*
X004365Y005010D02*
X000710Y005010D01*
X000710Y005129D02*
X004365Y005129D01*
X004365Y005247D02*
X000710Y005247D01*
X000710Y005366D02*
X004365Y005366D01*
X004365Y005484D02*
X000710Y005484D01*
X000710Y005603D02*
X004365Y005603D01*
X004365Y005721D02*
X000710Y005721D01*
X000710Y005840D02*
X004365Y005840D01*
X004365Y005958D02*
X000710Y005958D01*
X000710Y006077D02*
X004365Y006077D01*
X004365Y006195D02*
X000710Y006195D01*
X000710Y006314D02*
X004365Y006314D01*
X004365Y006432D02*
X000710Y006432D01*
X000710Y006551D02*
X004365Y006551D01*
X004365Y006669D02*
X000710Y006669D01*
X000710Y006788D02*
X004365Y006788D01*
X004365Y006906D02*
X000710Y006906D01*
X000710Y007025D02*
X004365Y007025D01*
X004365Y007143D02*
X000710Y007143D01*
X000710Y007262D02*
X004365Y007262D01*
X004365Y007380D02*
X000710Y007380D01*
X000710Y007499D02*
X004365Y007499D01*
X004365Y007617D02*
X000710Y007617D01*
X000710Y007736D02*
X004365Y007736D01*
X004365Y007854D02*
X000710Y007854D01*
X000710Y007973D02*
X003132Y007973D01*
X003066Y008091D02*
X000710Y008091D01*
X000710Y008210D02*
X003055Y008210D01*
X003091Y008328D02*
X000710Y008328D01*
X000710Y008447D02*
X003191Y008447D01*
X004543Y008447D02*
X004925Y008447D01*
X004925Y008565D02*
X000710Y008565D01*
X000710Y008684D02*
X004925Y008684D01*
X004925Y008802D02*
X000710Y008802D01*
X000710Y008921D02*
X004925Y008921D01*
X004925Y009039D02*
X000710Y009039D01*
X000710Y009158D02*
X004925Y009158D01*
X004925Y009276D02*
X000710Y009276D01*
X000710Y009395D02*
X004925Y009395D01*
X004925Y009513D02*
X000710Y009513D01*
X000710Y009632D02*
X001936Y009632D01*
X001976Y009615D02*
X001822Y009679D01*
X001704Y009797D01*
X001640Y009951D01*
X001640Y010119D01*
X001704Y010273D01*
X001822Y010391D01*
X001976Y010455D01*
X002624Y010455D01*
X002778Y010391D01*
X002896Y010273D01*
X002960Y010119D01*
X002960Y009951D01*
X002896Y009797D01*
X002778Y009679D01*
X002624Y009615D01*
X001976Y009615D01*
X001751Y009750D02*
X000710Y009750D01*
X000710Y009869D02*
X001674Y009869D01*
X001640Y009987D02*
X000710Y009987D01*
X000710Y010106D02*
X001640Y010106D01*
X001684Y010224D02*
X000710Y010224D01*
X000710Y010343D02*
X001774Y010343D01*
X001976Y010615D02*
X002624Y010615D01*
X002778Y010679D01*
X002894Y010795D01*
X003053Y010795D01*
X003141Y010832D01*
X003506Y011197D01*
X003573Y011264D01*
X003610Y011352D01*
X003610Y016391D01*
X003765Y016546D01*
X003765Y014363D01*
X003710Y014307D01*
X003657Y014179D01*
X003657Y014041D01*
X003710Y013913D01*
X003808Y013815D01*
X003936Y013762D01*
X004074Y013762D01*
X004202Y013815D01*
X004300Y013913D01*
X004353Y014041D01*
X004353Y014179D01*
X004300Y014307D01*
X004245Y014363D01*
X004245Y016581D01*
X005744Y018080D01*
X006005Y018080D01*
X006042Y018043D01*
X006157Y017995D01*
X006283Y017995D01*
X006398Y018043D01*
X006487Y018132D01*
X006535Y018247D01*
X006535Y018373D01*
X006487Y018488D01*
X006398Y018577D01*
X006319Y018610D01*
X007206Y018610D01*
X005097Y016501D01*
X005060Y016413D01*
X005060Y014455D01*
X004976Y014455D01*
X004822Y014391D01*
X004704Y014273D01*
X004640Y014119D01*
X004640Y013951D01*
X004704Y013797D01*
X004822Y013679D01*
X004976Y013615D01*
X005624Y013615D01*
X005778Y013679D01*
X005896Y013797D01*
X005960Y013951D01*
X005960Y014119D01*
X005896Y014273D01*
X005778Y014391D01*
X005624Y014455D01*
X005540Y014455D01*
X005540Y016266D01*
X005980Y016706D01*
X005980Y013275D01*
X005894Y013275D01*
X005778Y013391D01*
X005624Y013455D01*
X004976Y013455D01*
X004822Y013391D01*
X004704Y013273D01*
X004640Y013119D01*
X004640Y012951D01*
X004704Y012797D01*
X004822Y012679D01*
X004976Y012615D01*
X005624Y012615D01*
X005778Y012679D01*
X005894Y012795D01*
X006158Y012795D01*
X006246Y012832D01*
X006356Y012942D01*
X006423Y013009D01*
X006460Y013097D01*
X006460Y016701D01*
X008119Y018360D01*
X014315Y018360D01*
X014347Y018328D01*
X014462Y018280D01*
X014588Y018280D01*
X014703Y018328D01*
X014792Y018417D01*
X014840Y018532D01*
X014840Y018658D01*
X014792Y018773D01*
X014703Y018862D01*
X014588Y018910D01*
X014462Y018910D01*
X014347Y018862D01*
X014325Y018840D01*
X013679Y018840D01*
X013923Y019084D01*
X014083Y019084D01*
X014236Y019147D01*
X014353Y019264D01*
X014416Y019417D01*
X014416Y019583D01*
X014353Y019736D01*
X014236Y019853D01*
X014083Y019916D01*
X013917Y019916D01*
X013764Y019853D01*
X013647Y019736D01*
X013584Y019583D01*
X013584Y019423D01*
X013351Y019190D01*
X013279Y019190D01*
X013353Y019264D01*
X013416Y019417D01*
X013416Y019583D01*
X013353Y019736D01*
X013236Y019853D01*
X013083Y019916D01*
X012923Y019916D01*
X012725Y020114D01*
X012725Y020186D01*
X012764Y020147D01*
X012917Y020084D01*
X013083Y020084D01*
X013236Y020147D01*
X013353Y020264D01*
X013416Y020417D01*
X013416Y020583D01*
X013353Y020736D01*
X013236Y020853D01*
X013083Y020916D01*
X012917Y020916D01*
X012764Y020853D01*
X012710Y020799D01*
X012708Y020803D01*
X012694Y020843D01*
X012690Y020847D01*
X012688Y020851D01*
X012658Y020881D01*
X012441Y021116D01*
X012439Y021120D01*
X012408Y021151D01*
X012379Y021183D01*
X012375Y021185D01*
X012372Y021188D01*
X012332Y021205D01*
X012292Y021223D01*
X012288Y021223D01*
X012284Y021225D01*
X012240Y021225D01*
X012197Y021227D01*
X012193Y021225D01*
X008787Y021240D01*
X008740Y021241D01*
X008739Y021240D01*
X008738Y021240D01*
X008695Y021223D01*
X008652Y021205D01*
X008651Y021204D01*
X008650Y021204D01*
X008617Y021171D01*
X006977Y019575D01*
X004377Y019575D01*
X004289Y019538D01*
X004222Y019471D01*
X002789Y018038D01*
X002722Y017971D01*
X002685Y017883D01*
X002685Y017787D01*
X002695Y017763D01*
X002695Y016499D01*
X000987Y014791D01*
X000950Y014703D01*
X000950Y013462D01*
X000987Y013374D01*
X001054Y013307D01*
X001494Y012867D01*
X001582Y012830D01*
X001690Y012830D01*
X001704Y012797D01*
X001822Y012679D01*
X001976Y012615D01*
X002624Y012615D01*
X002778Y012679D01*
X002896Y012797D01*
X002920Y012855D01*
X002920Y012417D01*
X002832Y012337D01*
X002778Y012391D01*
X002624Y012455D01*
X001976Y012455D01*
X001822Y012391D01*
X001704Y012273D01*
X001640Y012119D01*
X001640Y011951D01*
X001704Y011797D01*
X001822Y011679D01*
X001976Y011615D01*
X002624Y011615D01*
X002778Y011679D01*
X002893Y011794D01*
X002896Y011795D01*
X002903Y011795D01*
X002941Y011811D01*
X002980Y011825D01*
X002985Y011829D01*
X002991Y011832D01*
X003020Y011861D01*
X003130Y011960D01*
X003130Y011499D01*
X002906Y011275D01*
X002894Y011275D01*
X002778Y011391D01*
X002624Y011455D01*
X001976Y011455D01*
X001822Y011391D01*
X001704Y011273D01*
X001640Y011119D01*
X001640Y010951D01*
X001704Y010797D01*
X001822Y010679D01*
X001976Y010615D01*
X001803Y010698D02*
X000710Y010698D01*
X000710Y010580D02*
X005488Y010580D01*
X005653Y010461D02*
X000710Y010461D01*
X000710Y010817D02*
X001696Y010817D01*
X001647Y010935D02*
X000710Y010935D01*
X000710Y011054D02*
X001640Y011054D01*
X001662Y011172D02*
X000710Y011172D01*
X000710Y011291D02*
X001722Y011291D01*
X001866Y011409D02*
X000710Y011409D01*
X000710Y011528D02*
X003130Y011528D01*
X003130Y011646D02*
X002699Y011646D01*
X002864Y011765D02*
X003130Y011765D01*
X003130Y011883D02*
X003045Y011883D01*
X002855Y012035D02*
X003160Y012310D01*
X003160Y016605D01*
X005615Y019090D01*
X007220Y019090D01*
X008190Y020060D01*
X010440Y020060D01*
X011000Y019500D01*
X010000Y019500D02*
X009700Y019800D01*
X008290Y019800D01*
X007365Y018875D01*
X007290Y018875D01*
X007265Y018850D01*
X005730Y018850D01*
X003370Y016490D01*
X003370Y011400D01*
X003005Y011035D01*
X002300Y011035D01*
X002797Y010698D02*
X004803Y010698D01*
X004696Y010817D02*
X003106Y010817D01*
X003245Y010935D02*
X004647Y010935D01*
X004640Y011054D02*
X003363Y011054D01*
X003482Y011172D02*
X004662Y011172D01*
X004722Y011291D02*
X003585Y011291D01*
X003610Y011409D02*
X004866Y011409D01*
X004943Y011650D02*
X004871Y011681D01*
X004805Y011724D01*
X004749Y011780D01*
X004706Y011846D01*
X004675Y011918D01*
X004660Y011996D01*
X004660Y012015D01*
X005280Y012015D01*
X005320Y012015D01*
X005320Y012055D01*
X005280Y012055D01*
X005280Y012435D01*
X005021Y012435D01*
X004943Y012420D01*
X004871Y012389D01*
X004805Y012346D01*
X004749Y012290D01*
X004706Y012224D01*
X004675Y012152D01*
X004660Y012074D01*
X004660Y012055D01*
X005280Y012055D01*
X005280Y012015D01*
X005280Y011635D01*
X005021Y011635D01*
X004943Y011650D01*
X004963Y011646D02*
X003610Y011646D01*
X003610Y011528D02*
X007414Y011528D01*
X007365Y011646D02*
X005637Y011646D01*
X005657Y011650D02*
X005729Y011681D01*
X005795Y011724D01*
X005851Y011780D01*
X005894Y011846D01*
X005925Y011918D01*
X005940Y011996D01*
X005940Y012015D01*
X005320Y012015D01*
X005320Y011635D01*
X005579Y011635D01*
X005657Y011650D01*
X005836Y011765D02*
X007345Y011765D01*
X007345Y011883D02*
X005910Y011883D01*
X005940Y012002D02*
X007381Y012002D01*
X007433Y012120D02*
X005931Y012120D01*
X005925Y012152D02*
X005894Y012224D01*
X005851Y012290D01*
X005795Y012346D01*
X005729Y012389D01*
X005657Y012420D01*
X005579Y012435D01*
X005320Y012435D01*
X005320Y012055D01*
X005940Y012055D01*
X005940Y012074D01*
X005925Y012152D01*
X005885Y012239D02*
X007551Y012239D01*
X007609Y012357D02*
X005777Y012357D01*
X005812Y012713D02*
X007373Y012713D01*
X007407Y012594D02*
X003610Y012594D01*
X003610Y012476D02*
X007479Y012476D01*
X007855Y012831D02*
X006246Y012831D01*
X006364Y012950D02*
X007385Y012950D01*
X007434Y013068D02*
X006448Y013068D01*
X006460Y013187D02*
X007527Y013187D01*
X007664Y013305D02*
X006460Y013305D01*
X006460Y013424D02*
X007498Y013424D01*
X007408Y013542D02*
X006460Y013542D01*
X006460Y013661D02*
X007359Y013661D01*
X007345Y013779D02*
X006460Y013779D01*
X006460Y013898D02*
X007345Y013898D01*
X007387Y014016D02*
X006460Y014016D01*
X006460Y014135D02*
X007447Y014135D01*
X007566Y014253D02*
X006460Y014253D01*
X006460Y014372D02*
X007550Y014372D01*
X007432Y014490D02*
X006460Y014490D01*
X006460Y014609D02*
X007381Y014609D01*
X007345Y014727D02*
X006460Y014727D01*
X006460Y014846D02*
X007345Y014846D01*
X007366Y014964D02*
X006460Y014964D01*
X006460Y015083D02*
X007415Y015083D01*
X007514Y015201D02*
X006460Y015201D01*
X006460Y015320D02*
X007701Y015320D01*
X008089Y015320D02*
X015800Y015320D01*
X015800Y015438D02*
X006460Y015438D01*
X006460Y015557D02*
X015800Y015557D01*
X015800Y015675D02*
X006460Y015675D01*
X006460Y015794D02*
X015800Y015794D01*
X015800Y015912D02*
X006460Y015912D01*
X006460Y016031D02*
X015800Y016031D01*
X015800Y016149D02*
X006460Y016149D01*
X006460Y016268D02*
X015800Y016268D01*
X015800Y016386D02*
X006460Y016386D01*
X006460Y016505D02*
X015800Y016505D01*
X015800Y016623D02*
X006460Y016623D01*
X006501Y016742D02*
X015800Y016742D01*
X015800Y016860D02*
X006620Y016860D01*
X006738Y016979D02*
X015805Y016979D01*
X015800Y016968D02*
X015800Y014743D01*
X015745Y014687D01*
X015692Y014559D01*
X015692Y014421D01*
X015745Y014293D01*
X015843Y014195D01*
X015971Y014142D01*
X016109Y014142D01*
X016237Y014195D01*
X016335Y014293D01*
X016388Y014421D01*
X016388Y014559D01*
X016335Y014687D01*
X016280Y014743D01*
X016280Y016821D01*
X016494Y017035D01*
X016533Y017035D01*
X016648Y017083D01*
X016737Y017172D01*
X016785Y017287D01*
X016785Y017413D01*
X016737Y017528D01*
X016648Y017617D01*
X016533Y017665D01*
X016407Y017665D01*
X016292Y017617D01*
X016203Y017528D01*
X016155Y017413D01*
X016155Y017374D01*
X015837Y017056D01*
X015800Y016968D01*
X015878Y017097D02*
X006857Y017097D01*
X006975Y017216D02*
X015997Y017216D01*
X016115Y017334D02*
X007094Y017334D01*
X007212Y017453D02*
X016172Y017453D01*
X016246Y017571D02*
X007331Y017571D01*
X007449Y017690D02*
X020720Y017690D01*
X020838Y017571D02*
X016694Y017571D01*
X016768Y017453D02*
X020957Y017453D01*
X021075Y017334D02*
X016785Y017334D01*
X016755Y017216D02*
X021194Y017216D01*
X021246Y017164D02*
X021341Y017124D01*
X024589Y017124D01*
X024596Y017117D01*
X024712Y017069D01*
X024837Y017069D01*
X024953Y017117D01*
X025042Y017206D01*
X025090Y017322D01*
X025090Y017447D01*
X025042Y017563D01*
X024953Y017651D01*
X024837Y017699D01*
X024712Y017699D01*
X024596Y017651D01*
X024589Y017644D01*
X021501Y017644D01*
X020266Y018879D01*
X020192Y018953D01*
X020097Y018992D01*
X019115Y018992D01*
X019053Y019018D01*
X018928Y019018D01*
X018812Y018970D01*
X018724Y018881D01*
X018676Y018765D01*
X018676Y018640D01*
X018724Y018524D01*
X018812Y018436D01*
X018928Y018388D01*
X019053Y018388D01*
X019169Y018436D01*
X019206Y018472D01*
X019938Y018472D01*
X021246Y017164D01*
X020645Y016969D02*
X020608Y017006D01*
X020492Y017054D01*
X020367Y017054D01*
X020251Y017006D01*
X020162Y016918D01*
X020114Y016802D01*
X020114Y016677D01*
X020162Y016561D01*
X020178Y016546D01*
X020143Y016546D01*
X020027Y016498D01*
X019938Y016409D01*
X019890Y016293D01*
X019890Y016168D01*
X019938Y016052D01*
X020027Y015964D01*
X020143Y015916D01*
X020268Y015916D01*
X020384Y015964D01*
X020391Y015971D01*
X024690Y015971D01*
X024785Y016010D01*
X026909Y018134D01*
X026919Y018134D01*
X027035Y018182D01*
X027123Y018271D01*
X027171Y018386D01*
X027171Y018512D01*
X027123Y018627D01*
X027035Y018716D01*
X026919Y018764D01*
X026794Y018764D01*
X026678Y018716D01*
X026589Y018627D01*
X026541Y018512D01*
X026541Y018502D01*
X024530Y016491D01*
X023746Y016491D01*
X023827Y016571D01*
X023875Y016687D01*
X023875Y016812D01*
X023827Y016928D01*
X023738Y017017D01*
X023622Y017065D01*
X023497Y017065D01*
X023381Y017017D01*
X023334Y016969D01*
X020645Y016969D01*
X020635Y016979D02*
X023343Y016979D01*
X023776Y016979D02*
X025019Y016979D01*
X024906Y017097D02*
X025137Y017097D01*
X025046Y017216D02*
X025256Y017216D01*
X025374Y017334D02*
X025090Y017334D01*
X025087Y017453D02*
X025493Y017453D01*
X025611Y017571D02*
X025033Y017571D01*
X024860Y017690D02*
X025730Y017690D01*
X025848Y017808D02*
X021337Y017808D01*
X021455Y017690D02*
X024690Y017690D01*
X024644Y017097D02*
X016663Y017097D01*
X016438Y016979D02*
X017085Y016979D01*
X017111Y016988D02*
X017032Y016962D01*
X016958Y016924D01*
X016890Y016875D01*
X016831Y016816D01*
X016782Y016748D01*
X016744Y016674D01*
X016719Y016595D01*
X016706Y016512D01*
X016706Y016511D01*
X017196Y016511D01*
X017196Y017001D01*
X017194Y017001D01*
X017111Y016988D01*
X017196Y016979D02*
X017276Y016979D01*
X017277Y017001D02*
X017276Y017001D01*
X017276Y016511D01*
X017766Y016511D01*
X017766Y016512D01*
X017753Y016595D01*
X017727Y016674D01*
X017689Y016748D01*
X017640Y016816D01*
X017581Y016875D01*
X017513Y016924D01*
X017439Y016962D01*
X017360Y016988D01*
X017277Y017001D01*
X017386Y016979D02*
X018363Y016979D01*
X018386Y016986D02*
X018307Y016961D01*
X018233Y016923D01*
X018165Y016874D01*
X018106Y016815D01*
X018057Y016747D01*
X018019Y016673D01*
X017993Y016593D01*
X017980Y016511D01*
X017980Y016509D01*
X018470Y016509D01*
X018470Y016429D01*
X017980Y016429D01*
X017980Y016428D01*
X017993Y016345D01*
X018019Y016266D01*
X018057Y016192D01*
X018106Y016124D01*
X018165Y016065D01*
X018233Y016016D01*
X018304Y015979D01*
X018199Y015936D01*
X018044Y015781D01*
X017960Y015579D01*
X017960Y015360D01*
X018044Y015158D01*
X018199Y015003D01*
X018280Y014969D01*
X018199Y014936D01*
X018044Y014781D01*
X017960Y014579D01*
X017960Y014360D01*
X018044Y014158D01*
X018199Y014003D01*
X018401Y013919D01*
X018591Y013919D01*
X018468Y013780D01*
X018440Y013751D01*
X018437Y013744D01*
X018432Y013738D01*
X018419Y013700D01*
X018404Y013663D01*
X018404Y013655D01*
X018401Y013648D01*
X018404Y013608D01*
X018404Y012406D01*
X018377Y012379D01*
X018329Y012264D01*
X018329Y012138D01*
X018377Y012023D01*
X018465Y011934D01*
X018581Y011886D01*
X018706Y011886D01*
X018822Y011934D01*
X018911Y012023D01*
X018959Y012138D01*
X018959Y012264D01*
X018911Y012379D01*
X018884Y012406D01*
X018884Y013525D01*
X020252Y015080D01*
X020272Y015080D01*
X020388Y015128D01*
X020476Y015216D01*
X020524Y015332D01*
X020524Y015457D01*
X020476Y015573D01*
X020388Y015662D01*
X020272Y015710D01*
X020147Y015710D01*
X020031Y015662D01*
X019942Y015573D01*
X019894Y015457D01*
X019894Y015400D01*
X019060Y014452D01*
X019060Y014579D01*
X018977Y014781D01*
X018822Y014936D01*
X018740Y014969D01*
X018822Y015003D01*
X018977Y015158D01*
X019060Y015360D01*
X019060Y015579D01*
X018977Y015781D01*
X018822Y015936D01*
X018716Y015979D01*
X018788Y016016D01*
X018856Y016065D01*
X018915Y016124D01*
X018964Y016192D01*
X019001Y016266D01*
X019027Y016345D01*
X019040Y016428D01*
X019040Y016429D01*
X018550Y016429D01*
X018550Y016509D01*
X019040Y016509D01*
X019040Y016511D01*
X019027Y016593D01*
X019001Y016673D01*
X018964Y016747D01*
X018915Y016815D01*
X018856Y016874D01*
X018788Y016923D01*
X018714Y016961D01*
X018634Y016986D01*
X018552Y016999D01*
X018550Y016999D01*
X018550Y016509D01*
X018470Y016509D01*
X018470Y016999D01*
X018469Y016999D01*
X018386Y016986D01*
X018470Y016979D02*
X018550Y016979D01*
X018657Y016979D02*
X020223Y016979D01*
X020138Y016860D02*
X018869Y016860D01*
X018966Y016742D02*
X020114Y016742D01*
X020136Y016623D02*
X019018Y016623D01*
X019034Y016386D02*
X019929Y016386D01*
X019890Y016268D02*
X019002Y016268D01*
X018933Y016149D02*
X019898Y016149D01*
X019959Y016031D02*
X018809Y016031D01*
X018845Y015912D02*
X030848Y015912D01*
X030851Y015794D02*
X018964Y015794D01*
X019020Y015675D02*
X020064Y015675D01*
X019935Y015557D02*
X019060Y015557D01*
X019060Y015438D02*
X019894Y015438D01*
X019824Y015320D02*
X019044Y015320D01*
X018995Y015201D02*
X019720Y015201D01*
X019615Y015083D02*
X018902Y015083D01*
X018752Y014964D02*
X019511Y014964D01*
X019407Y014846D02*
X018912Y014846D01*
X018999Y014727D02*
X019302Y014727D01*
X019198Y014609D02*
X019048Y014609D01*
X019060Y014490D02*
X019094Y014490D01*
X019525Y014253D02*
X029446Y014253D01*
X029443Y014257D02*
X029532Y014168D01*
X029647Y014120D01*
X029657Y014120D01*
X030533Y013240D01*
X030540Y012931D01*
X030538Y012928D01*
X030490Y012813D01*
X030490Y012687D01*
X030538Y012572D01*
X030627Y012483D01*
X030742Y012435D01*
X030776Y012435D01*
X030617Y012276D01*
X030580Y012188D01*
X030580Y009130D01*
X030553Y009103D01*
X030505Y008988D01*
X030505Y008862D01*
X030553Y008747D01*
X030642Y008658D01*
X030757Y008610D01*
X030883Y008610D01*
X030998Y008658D01*
X031087Y008747D01*
X031135Y008862D01*
X031135Y008988D01*
X031087Y009103D01*
X031060Y009130D01*
X031060Y012041D01*
X031235Y012216D01*
X031235Y009160D01*
X031228Y009153D01*
X031180Y009038D01*
X031180Y008912D01*
X031228Y008797D01*
X031317Y008708D01*
X031432Y008660D01*
X031558Y008660D01*
X031673Y008708D01*
X031762Y008797D01*
X031810Y008912D01*
X031810Y009038D01*
X031762Y009153D01*
X031755Y009160D01*
X031755Y016516D01*
X031785Y016588D01*
X031785Y018162D01*
X031745Y018257D01*
X031095Y018908D01*
X031095Y019912D01*
X031055Y020007D01*
X030982Y020080D01*
X030887Y020120D01*
X030670Y020120D01*
X030736Y020147D01*
X030853Y020264D01*
X030916Y020417D01*
X030916Y020583D01*
X030853Y020736D01*
X030736Y020853D01*
X030583Y020916D01*
X030417Y020916D01*
X030264Y020853D01*
X030147Y020736D01*
X030084Y020583D01*
X030084Y020417D01*
X030147Y020264D01*
X030264Y020147D01*
X030330Y020120D01*
X029670Y020120D01*
X029736Y020147D01*
X029853Y020264D01*
X029916Y020417D01*
X029916Y020583D01*
X029853Y020736D01*
X029736Y020853D01*
X029583Y020916D01*
X029417Y020916D01*
X029264Y020853D01*
X029147Y020736D01*
X029084Y020583D01*
X029084Y020417D01*
X029147Y020264D01*
X029264Y020147D01*
X029330Y020120D01*
X028670Y020120D01*
X028736Y020147D01*
X028853Y020264D01*
X028916Y020417D01*
X028916Y020583D01*
X028853Y020736D01*
X028736Y020853D01*
X028583Y020916D01*
X028417Y020916D01*
X028264Y020853D01*
X028147Y020736D01*
X028084Y020583D01*
X028084Y020417D01*
X028147Y020264D01*
X028264Y020147D01*
X028330Y020120D01*
X027670Y020120D01*
X027736Y020147D01*
X027853Y020264D01*
X027916Y020417D01*
X027916Y020583D01*
X027853Y020736D01*
X027736Y020853D01*
X027583Y020916D01*
X027417Y020916D01*
X027264Y020853D01*
X027147Y020736D01*
X027084Y020583D01*
X027084Y020417D01*
X027147Y020264D01*
X027264Y020147D01*
X027330Y020120D01*
X026248Y020120D01*
X025916Y020451D01*
X025916Y020583D01*
X025853Y020736D01*
X025736Y020853D01*
X025583Y020916D01*
X025417Y020916D01*
X025264Y020853D01*
X025147Y020736D01*
X025084Y020583D01*
X025084Y020417D01*
X025147Y020264D01*
X025166Y020245D01*
X025123Y020245D01*
X024916Y020451D01*
X024916Y020583D01*
X024853Y020736D01*
X024736Y020853D01*
X024583Y020916D01*
X024417Y020916D01*
X024264Y020853D01*
X024147Y020736D01*
X024084Y020583D01*
X024084Y020417D01*
X024147Y020264D01*
X024264Y020147D01*
X024417Y020084D01*
X024549Y020084D01*
X024868Y019765D01*
X024963Y019725D01*
X025143Y019725D01*
X025084Y019583D01*
X025084Y019417D01*
X025147Y019264D01*
X025264Y019147D01*
X025417Y019084D01*
X025583Y019084D01*
X025736Y019147D01*
X025853Y019264D01*
X025890Y019353D01*
X025958Y019285D01*
X026053Y019245D01*
X030295Y019245D01*
X030295Y018673D01*
X030335Y018578D01*
X030408Y018505D01*
X030840Y018072D01*
X030840Y016263D01*
X030839Y016260D01*
X030840Y016212D01*
X030840Y016163D01*
X030841Y016160D01*
X030907Y013601D01*
X030025Y014487D01*
X030025Y014498D01*
X029977Y014613D01*
X029888Y014702D01*
X029773Y014750D01*
X029647Y014750D01*
X029532Y014702D01*
X029443Y014613D01*
X029395Y014498D01*
X029395Y014372D01*
X019629Y014372D01*
X019733Y014490D02*
X029395Y014490D01*
X029395Y014372D02*
X029443Y014257D01*
X029611Y014135D02*
X019420Y014135D01*
X019316Y014016D02*
X029760Y014016D01*
X029878Y013898D02*
X019212Y013898D01*
X019108Y013779D02*
X029996Y013779D01*
X030114Y013661D02*
X019003Y013661D01*
X018899Y013542D02*
X030232Y013542D01*
X030350Y013424D02*
X018884Y013424D01*
X018884Y013305D02*
X030468Y013305D01*
X030534Y013187D02*
X018884Y013187D01*
X018884Y013068D02*
X030537Y013068D01*
X030540Y012950D02*
X018884Y012950D01*
X018884Y012831D02*
X030498Y012831D01*
X030490Y012713D02*
X018884Y012713D01*
X018884Y012594D02*
X030528Y012594D01*
X030644Y012476D02*
X018884Y012476D01*
X018920Y012357D02*
X030698Y012357D01*
X030601Y012239D02*
X018959Y012239D01*
X018951Y012120D02*
X030580Y012120D01*
X030580Y012002D02*
X018890Y012002D01*
X018644Y012201D02*
X018644Y013615D01*
X020209Y015395D01*
X020354Y015675D02*
X030854Y015675D01*
X030857Y015557D02*
X028246Y015557D01*
X028189Y015581D02*
X028018Y015581D01*
X027860Y015515D01*
X027739Y015394D01*
X027710Y015324D01*
X027680Y015394D01*
X027559Y015515D01*
X027401Y015581D01*
X027230Y015581D01*
X027072Y015515D01*
X026951Y015394D01*
X026922Y015324D01*
X026893Y015394D01*
X026772Y015515D01*
X026614Y015581D01*
X026443Y015581D01*
X026285Y015515D01*
X026164Y015394D01*
X026135Y015324D01*
X026106Y015394D01*
X025985Y015515D01*
X025827Y015581D01*
X025656Y015581D01*
X025498Y015515D01*
X025377Y015394D01*
X025347Y015324D01*
X025318Y015394D01*
X025197Y015515D01*
X025039Y015581D01*
X024868Y015581D01*
X024710Y015515D01*
X024589Y015394D01*
X024560Y015324D01*
X024531Y015394D01*
X024410Y015515D01*
X024252Y015581D01*
X024081Y015581D01*
X023923Y015515D01*
X023802Y015394D01*
X023773Y015324D01*
X023743Y015394D01*
X023622Y015515D01*
X023464Y015581D01*
X023293Y015581D01*
X023135Y015515D01*
X023014Y015394D01*
X022985Y015324D01*
X022956Y015394D01*
X022835Y015515D01*
X022677Y015581D01*
X022506Y015581D01*
X022348Y015515D01*
X022227Y015394D01*
X022198Y015324D01*
X022169Y015394D01*
X022048Y015515D01*
X021890Y015581D01*
X021719Y015581D01*
X021561Y015515D01*
X021440Y015394D01*
X021410Y015324D01*
X021381Y015394D01*
X021260Y015515D01*
X021102Y015581D01*
X020931Y015581D01*
X020773Y015515D01*
X020652Y015394D01*
X020587Y015236D01*
X020587Y015065D01*
X020652Y014907D01*
X020773Y014786D01*
X020931Y014721D01*
X021102Y014721D01*
X021260Y014786D01*
X021381Y014907D01*
X021410Y014978D01*
X021440Y014907D01*
X021561Y014786D01*
X021719Y014721D01*
X021890Y014721D01*
X022048Y014786D01*
X022169Y014907D01*
X022198Y014978D01*
X022227Y014907D01*
X022348Y014786D01*
X022506Y014721D01*
X022677Y014721D01*
X022835Y014786D01*
X022956Y014907D01*
X022985Y014978D01*
X023014Y014907D01*
X023135Y014786D01*
X023293Y014721D01*
X023464Y014721D01*
X023622Y014786D01*
X023743Y014907D01*
X023773Y014978D01*
X023802Y014907D01*
X023923Y014786D01*
X024081Y014721D01*
X024252Y014721D01*
X024410Y014786D01*
X024531Y014907D01*
X024560Y014978D01*
X024589Y014907D01*
X024710Y014786D01*
X024868Y014721D01*
X025039Y014721D01*
X025197Y014786D01*
X025318Y014907D01*
X025347Y014978D01*
X025377Y014907D01*
X025498Y014786D01*
X025656Y014721D01*
X025827Y014721D01*
X025985Y014786D01*
X026106Y014907D01*
X026135Y014978D01*
X026164Y014907D01*
X026285Y014786D01*
X026443Y014721D01*
X026614Y014721D01*
X026772Y014786D01*
X026893Y014907D01*
X026922Y014978D01*
X026951Y014907D01*
X027072Y014786D01*
X027230Y014721D01*
X027401Y014721D01*
X027559Y014786D01*
X027680Y014907D01*
X027710Y014978D01*
X027739Y014907D01*
X027860Y014786D01*
X028018Y014721D01*
X028189Y014721D01*
X028347Y014786D01*
X028468Y014907D01*
X028533Y015065D01*
X028533Y015236D01*
X028468Y015394D01*
X028347Y015515D01*
X028189Y015581D01*
X027960Y015557D02*
X027459Y015557D01*
X027636Y015438D02*
X027783Y015438D01*
X027173Y015557D02*
X026671Y015557D01*
X026849Y015438D02*
X026996Y015438D01*
X026386Y015557D02*
X025884Y015557D01*
X026061Y015438D02*
X026208Y015438D01*
X025598Y015557D02*
X025097Y015557D01*
X025274Y015438D02*
X025421Y015438D01*
X024811Y015557D02*
X024309Y015557D01*
X024487Y015438D02*
X024633Y015438D01*
X024565Y014964D02*
X024555Y014964D01*
X024470Y014846D02*
X024650Y014846D01*
X024852Y014727D02*
X024268Y014727D01*
X024065Y014727D02*
X023481Y014727D01*
X023277Y014727D02*
X022693Y014727D01*
X022490Y014727D02*
X021906Y014727D01*
X021702Y014727D02*
X021118Y014727D01*
X020915Y014727D02*
X019942Y014727D01*
X019838Y014609D02*
X029441Y014609D01*
X029593Y014727D02*
X028205Y014727D01*
X028002Y014727D02*
X027418Y014727D01*
X027214Y014727D02*
X026630Y014727D01*
X026427Y014727D02*
X025843Y014727D01*
X025639Y014727D02*
X025055Y014727D01*
X025257Y014846D02*
X025438Y014846D01*
X025353Y014964D02*
X025342Y014964D01*
X026044Y014846D02*
X026225Y014846D01*
X026140Y014964D02*
X026129Y014964D01*
X026832Y014846D02*
X027013Y014846D01*
X026928Y014964D02*
X026917Y014964D01*
X027619Y014846D02*
X027800Y014846D01*
X027715Y014964D02*
X027704Y014964D01*
X028407Y014846D02*
X030875Y014846D01*
X030872Y014964D02*
X028492Y014964D01*
X028533Y015083D02*
X030869Y015083D01*
X030866Y015201D02*
X028533Y015201D01*
X028499Y015320D02*
X030863Y015320D01*
X030860Y015438D02*
X028424Y015438D01*
X029827Y014727D02*
X030878Y014727D01*
X030881Y014609D02*
X029979Y014609D01*
X030025Y014490D02*
X030884Y014490D01*
X030887Y014372D02*
X030140Y014372D01*
X030258Y014253D02*
X030890Y014253D01*
X030893Y014135D02*
X030376Y014135D01*
X030493Y014016D02*
X030896Y014016D01*
X030899Y013898D02*
X030611Y013898D01*
X030729Y013779D02*
X030902Y013779D01*
X030905Y013661D02*
X030847Y013661D01*
X031755Y013661D02*
X032536Y013661D01*
X032539Y013664D02*
X032480Y013605D01*
X032431Y013538D01*
X032393Y013463D01*
X032367Y013384D01*
X032354Y013302D01*
X032354Y013300D01*
X032844Y013300D01*
X032844Y013790D01*
X032842Y013790D01*
X032760Y013777D01*
X032681Y013751D01*
X032606Y013713D01*
X032539Y013664D01*
X032434Y013542D02*
X031755Y013542D01*
X031755Y013424D02*
X032380Y013424D01*
X032355Y013305D02*
X031755Y013305D01*
X031755Y013187D02*
X032359Y013187D01*
X032354Y013218D02*
X032367Y013136D01*
X032393Y013056D01*
X032431Y012982D01*
X032480Y012915D01*
X032539Y012856D01*
X032606Y012807D01*
X032681Y012769D01*
X032760Y012743D01*
X032842Y012730D01*
X032844Y012730D01*
X032844Y013220D01*
X032354Y013220D01*
X032354Y013218D01*
X032389Y013068D02*
X031755Y013068D01*
X031755Y012950D02*
X032454Y012950D01*
X032572Y012831D02*
X031755Y012831D01*
X031755Y012713D02*
X033374Y012713D01*
X033374Y012831D02*
X033196Y012831D01*
X033162Y012807D02*
X033229Y012856D01*
X033288Y012915D01*
X033337Y012982D01*
X033374Y013054D01*
X033374Y013054D01*
X033374Y012264D01*
X033342Y012327D01*
X033293Y012395D01*
X033234Y012454D01*
X033166Y012503D01*
X033092Y012541D01*
X033013Y012566D01*
X032930Y012579D01*
X032928Y012579D01*
X032928Y012089D01*
X032848Y012089D01*
X032848Y012009D01*
X032928Y012009D01*
X032928Y011519D01*
X032930Y011519D01*
X033013Y011532D01*
X033092Y011558D01*
X033166Y011596D01*
X033234Y011645D01*
X033293Y011704D01*
X033342Y011772D01*
X033378Y011844D01*
X033378Y011843D01*
X033378Y010308D01*
X033375Y010299D01*
X033375Y010096D01*
X033452Y009909D01*
X033596Y009765D01*
X033783Y009687D01*
X033990Y009687D01*
X034177Y009765D01*
X034321Y009909D01*
X034398Y010096D01*
X034398Y011795D01*
X034422Y011738D01*
X034577Y011583D01*
X034779Y011499D01*
X034998Y011499D01*
X035200Y011583D01*
X035355Y011738D01*
X035438Y011940D01*
X035438Y012159D01*
X035355Y012361D01*
X035200Y012516D01*
X034998Y012599D01*
X034779Y012599D01*
X034577Y012516D01*
X034422Y012361D01*
X034394Y012293D01*
X034394Y013006D01*
X034418Y012948D01*
X034572Y012794D01*
X034775Y012710D01*
X034993Y012710D01*
X035196Y012794D01*
X035350Y012948D01*
X035434Y013150D01*
X035434Y013369D01*
X035350Y013571D01*
X035196Y013726D01*
X034993Y013810D01*
X034775Y013810D01*
X034572Y013726D01*
X034418Y013571D01*
X034404Y013538D01*
X034404Y014192D01*
X034428Y014134D01*
X034582Y013980D01*
X034785Y013896D01*
X035003Y013896D01*
X035206Y013980D01*
X035360Y014134D01*
X035444Y014336D01*
X035444Y014555D01*
X035360Y014757D01*
X035206Y014912D01*
X035003Y014996D01*
X034785Y014996D01*
X034582Y014912D01*
X034428Y014757D01*
X034400Y014689D01*
X034400Y015346D01*
X034423Y015288D01*
X034578Y015134D01*
X034780Y015050D01*
X034999Y015050D01*
X035201Y015134D01*
X035356Y015288D01*
X035440Y015490D01*
X035440Y015709D01*
X035356Y015911D01*
X035201Y016066D01*
X034999Y016150D01*
X034780Y016150D01*
X034578Y016066D01*
X034423Y015911D01*
X034400Y015854D01*
X034400Y016487D01*
X034423Y016429D01*
X034578Y016275D01*
X034780Y016191D01*
X034999Y016191D01*
X035201Y016275D01*
X035356Y016429D01*
X035440Y016632D01*
X035440Y016850D01*
X035356Y017053D01*
X035201Y017207D01*
X034999Y017291D01*
X034780Y017291D01*
X034578Y017207D01*
X034423Y017053D01*
X034403Y017003D01*
X034403Y017607D01*
X034427Y017549D01*
X034581Y017395D01*
X034783Y017311D01*
X035002Y017311D01*
X035204Y017395D01*
X035359Y017549D01*
X035443Y017752D01*
X035443Y017970D01*
X035359Y018173D01*
X035204Y018327D01*
X035002Y018411D01*
X034783Y018411D01*
X034581Y018327D01*
X034427Y018173D01*
X034393Y018091D01*
X034359Y018173D01*
X034204Y018327D01*
X034002Y018411D01*
X033783Y018411D01*
X033581Y018327D01*
X033427Y018173D01*
X033383Y018067D01*
X033346Y018139D01*
X033297Y018206D01*
X033238Y018265D01*
X033171Y018314D01*
X033096Y018352D01*
X033017Y018378D01*
X032935Y018391D01*
X032933Y018391D01*
X032933Y017901D01*
X032853Y017901D01*
X032853Y018391D01*
X032851Y018391D01*
X032769Y018378D01*
X032689Y018352D01*
X032615Y018314D01*
X032548Y018265D01*
X032489Y018206D01*
X032440Y018139D01*
X032402Y018064D01*
X032376Y017985D01*
X032363Y017903D01*
X032363Y017901D01*
X032853Y017901D01*
X032853Y017821D01*
X032933Y017821D01*
X032933Y017331D01*
X032935Y017331D01*
X033017Y017344D01*
X033096Y017370D01*
X033171Y017408D01*
X033238Y017457D01*
X033297Y017516D01*
X033346Y017583D01*
X033383Y017655D01*
X033383Y016955D01*
X033380Y016947D01*
X033343Y017019D01*
X033294Y017086D01*
X033235Y017145D01*
X033167Y017194D01*
X033093Y017232D01*
X033014Y017258D01*
X032931Y017271D01*
X032930Y017271D01*
X032930Y016781D01*
X032850Y016781D01*
X032850Y017271D01*
X032848Y017271D01*
X032765Y017258D01*
X032686Y017232D01*
X032612Y017194D01*
X032544Y017145D01*
X032485Y017086D01*
X032436Y017019D01*
X032398Y016944D01*
X032373Y016865D01*
X032360Y016783D01*
X032360Y016781D01*
X032850Y016781D01*
X032850Y016701D01*
X032930Y016701D01*
X032930Y016211D01*
X032931Y016211D01*
X033014Y016224D01*
X033093Y016250D01*
X033167Y016288D01*
X033235Y016337D01*
X033294Y016396D01*
X033343Y016463D01*
X033380Y016535D01*
X033380Y015806D01*
X033380Y015806D01*
X033343Y015878D01*
X033294Y015945D01*
X033235Y016004D01*
X033167Y016053D01*
X033093Y016091D01*
X033014Y016117D01*
X032931Y016130D01*
X032930Y016130D01*
X032930Y015640D01*
X032850Y015640D01*
X032850Y016130D01*
X032848Y016130D01*
X032765Y016117D01*
X032686Y016091D01*
X032612Y016053D01*
X032544Y016004D01*
X032485Y015945D01*
X032436Y015878D01*
X032398Y015803D01*
X032373Y015724D01*
X032360Y015642D01*
X032360Y015640D01*
X032850Y015640D01*
X032850Y015560D01*
X032930Y015560D01*
X032930Y015070D01*
X032931Y015070D01*
X033014Y015083D01*
X033380Y015083D01*
X033380Y015201D02*
X033241Y015201D01*
X033235Y015196D02*
X033294Y015255D01*
X033343Y015322D01*
X033380Y015394D01*
X033380Y014660D01*
X033347Y014724D01*
X033298Y014791D01*
X033239Y014850D01*
X033172Y014899D01*
X033097Y014937D01*
X033018Y014963D01*
X032936Y014976D01*
X032934Y014976D01*
X032934Y014486D01*
X032854Y014486D01*
X032854Y014976D01*
X032852Y014976D01*
X032770Y014963D01*
X032691Y014937D01*
X032616Y014899D01*
X032549Y014850D01*
X032490Y014791D01*
X032441Y014724D01*
X032403Y014649D01*
X032377Y014570D01*
X032364Y014488D01*
X032364Y014486D01*
X032854Y014486D01*
X032854Y014406D01*
X032364Y014406D01*
X032364Y014404D01*
X032377Y014322D01*
X032403Y014242D01*
X032441Y014168D01*
X032490Y014101D01*
X032549Y014042D01*
X032616Y013993D01*
X032691Y013955D01*
X032770Y013929D01*
X032852Y013916D01*
X032854Y013916D01*
X032854Y014406D01*
X032934Y014406D01*
X032934Y013916D01*
X032936Y013916D01*
X033018Y013929D01*
X033097Y013955D01*
X033172Y013993D01*
X033239Y014042D01*
X033298Y014101D01*
X033347Y014168D01*
X033384Y014240D01*
X033384Y014240D01*
X033384Y013490D01*
X033374Y013466D01*
X033337Y013538D01*
X033288Y013605D01*
X033229Y013664D01*
X033162Y013713D01*
X033087Y013751D01*
X033008Y013777D01*
X032926Y013790D01*
X032924Y013790D01*
X032924Y013300D01*
X032844Y013300D01*
X032844Y013220D01*
X032924Y013220D01*
X032924Y012730D01*
X032926Y012730D01*
X033008Y012743D01*
X033087Y012769D01*
X033162Y012807D01*
X033314Y012950D02*
X033374Y012950D01*
X032924Y012950D02*
X032844Y012950D01*
X032844Y013068D02*
X032924Y013068D01*
X032924Y013187D02*
X032844Y013187D01*
X032844Y013305D02*
X032924Y013305D01*
X032924Y013424D02*
X032844Y013424D01*
X032844Y013542D02*
X032924Y013542D01*
X032924Y013661D02*
X032844Y013661D01*
X032844Y013779D02*
X032924Y013779D01*
X032991Y013779D02*
X033384Y013779D01*
X033384Y013661D02*
X033232Y013661D01*
X033334Y013542D02*
X033384Y013542D01*
X033384Y013898D02*
X031755Y013898D01*
X031755Y014016D02*
X032583Y014016D01*
X032465Y014135D02*
X031755Y014135D01*
X031755Y014253D02*
X032399Y014253D01*
X032369Y014372D02*
X031755Y014372D01*
X031755Y014490D02*
X032364Y014490D01*
X032390Y014609D02*
X031755Y014609D01*
X031755Y014727D02*
X032444Y014727D01*
X032545Y014846D02*
X031755Y014846D01*
X031755Y014964D02*
X032781Y014964D01*
X032854Y014964D02*
X032934Y014964D01*
X033007Y014964D02*
X033380Y014964D01*
X033380Y014846D02*
X033243Y014846D01*
X033345Y014727D02*
X033380Y014727D01*
X032934Y014727D02*
X032854Y014727D01*
X032854Y014609D02*
X032934Y014609D01*
X032934Y014490D02*
X032854Y014490D01*
X032854Y014372D02*
X032934Y014372D01*
X032934Y014253D02*
X032854Y014253D01*
X032854Y014135D02*
X032934Y014135D01*
X032934Y014016D02*
X032854Y014016D01*
X032777Y013779D02*
X031755Y013779D01*
X033205Y014016D02*
X033384Y014016D01*
X033384Y014135D02*
X033323Y014135D01*
X034404Y014135D02*
X034427Y014135D01*
X034404Y014016D02*
X034546Y014016D01*
X034404Y013898D02*
X034779Y013898D01*
X034701Y013779D02*
X034404Y013779D01*
X034404Y013661D02*
X034507Y013661D01*
X034406Y013542D02*
X034404Y013542D01*
X035009Y013898D02*
X037373Y013898D01*
X037417Y013916D02*
X037264Y013853D01*
X037147Y013736D01*
X037084Y013583D01*
X037084Y013417D01*
X037147Y013264D01*
X037264Y013147D01*
X037417Y013084D01*
X037583Y013084D01*
X037736Y013147D01*
X037853Y013264D01*
X037916Y013417D01*
X037916Y013583D01*
X037853Y013736D01*
X037736Y013853D01*
X037583Y013916D01*
X037417Y013916D01*
X037417Y014084D02*
X037264Y014147D01*
X037147Y014264D01*
X037084Y014417D01*
X037084Y014583D01*
X037147Y014736D01*
X037264Y014853D01*
X037417Y014916D01*
X037583Y014916D01*
X037736Y014853D01*
X037853Y014736D01*
X037916Y014583D01*
X037916Y014417D01*
X037853Y014264D01*
X037736Y014147D01*
X037583Y014084D01*
X037417Y014084D01*
X037294Y014135D02*
X035361Y014135D01*
X035410Y014253D02*
X037158Y014253D01*
X037103Y014372D02*
X035444Y014372D01*
X035444Y014490D02*
X037084Y014490D01*
X037095Y014609D02*
X035422Y014609D01*
X035373Y014727D02*
X037144Y014727D01*
X037257Y014846D02*
X035272Y014846D01*
X035079Y014964D02*
X040160Y014964D01*
X040160Y014846D02*
X038743Y014846D01*
X038736Y014853D02*
X038583Y014916D01*
X038417Y014916D01*
X038264Y014853D01*
X038147Y014736D01*
X038084Y014583D01*
X038084Y014417D01*
X038147Y014264D01*
X038264Y014147D01*
X038417Y014084D01*
X038583Y014084D01*
X038736Y014147D01*
X038853Y014264D01*
X038916Y014417D01*
X038916Y014583D01*
X038853Y014736D01*
X038736Y014853D01*
X038856Y014727D02*
X040160Y014727D01*
X040160Y014609D02*
X038905Y014609D01*
X038916Y014490D02*
X040160Y014490D01*
X040160Y014372D02*
X038897Y014372D01*
X038842Y014253D02*
X040160Y014253D01*
X040160Y014135D02*
X038706Y014135D01*
X038627Y013898D02*
X040160Y013898D01*
X040160Y014016D02*
X035242Y014016D01*
X035067Y013779D02*
X037191Y013779D01*
X037116Y013661D02*
X035261Y013661D01*
X035362Y013542D02*
X037084Y013542D01*
X037084Y013424D02*
X035411Y013424D01*
X035434Y013305D02*
X037130Y013305D01*
X037224Y013187D02*
X035434Y013187D01*
X035400Y013068D02*
X040160Y013068D01*
X040160Y012950D02*
X035351Y012950D01*
X035233Y012831D02*
X037243Y012831D01*
X037264Y012853D02*
X037147Y012736D01*
X037084Y012583D01*
X037084Y012417D01*
X037147Y012264D01*
X037264Y012147D01*
X037417Y012084D01*
X037583Y012084D01*
X037736Y012147D01*
X037853Y012264D01*
X037916Y012417D01*
X037916Y012583D01*
X037853Y012736D01*
X037736Y012853D01*
X037583Y012916D01*
X037417Y012916D01*
X037264Y012853D01*
X037138Y012713D02*
X035001Y012713D01*
X035010Y012594D02*
X037089Y012594D01*
X037084Y012476D02*
X035240Y012476D01*
X035356Y012357D02*
X037109Y012357D01*
X037172Y012239D02*
X035405Y012239D01*
X035438Y012120D02*
X037329Y012120D01*
X037417Y011916D02*
X037264Y011853D01*
X037147Y011736D01*
X037084Y011583D01*
X037084Y011417D01*
X037147Y011264D01*
X037264Y011147D01*
X037417Y011084D01*
X037583Y011084D01*
X037736Y011147D01*
X037853Y011264D01*
X037916Y011417D01*
X037916Y011583D01*
X037853Y011736D01*
X037736Y011853D01*
X037583Y011916D01*
X037417Y011916D01*
X037338Y011883D02*
X035415Y011883D01*
X035438Y012002D02*
X040160Y012002D01*
X040160Y012120D02*
X038671Y012120D01*
X038736Y012147D02*
X038853Y012264D01*
X038916Y012417D01*
X038916Y012583D01*
X038853Y012736D01*
X038736Y012853D01*
X038583Y012916D01*
X038417Y012916D01*
X038264Y012853D01*
X038147Y012736D01*
X038084Y012583D01*
X038084Y012417D01*
X038147Y012264D01*
X038264Y012147D01*
X038417Y012084D01*
X038583Y012084D01*
X038736Y012147D01*
X038828Y012239D02*
X040160Y012239D01*
X040160Y012357D02*
X038891Y012357D01*
X038916Y012476D02*
X040160Y012476D01*
X040160Y012594D02*
X038911Y012594D01*
X038862Y012713D02*
X040160Y012713D01*
X040160Y012831D02*
X038757Y012831D01*
X038583Y013084D02*
X038417Y013084D01*
X038264Y013147D01*
X038147Y013264D01*
X038084Y013417D01*
X038084Y013583D01*
X038147Y013736D01*
X038264Y013853D01*
X038417Y013916D01*
X038583Y013916D01*
X038736Y013853D01*
X038853Y013736D01*
X038916Y013583D01*
X038916Y013417D01*
X038853Y013264D01*
X038736Y013147D01*
X038583Y013084D01*
X038776Y013187D02*
X040160Y013187D01*
X040160Y013305D02*
X038870Y013305D01*
X038916Y013424D02*
X040160Y013424D01*
X040160Y013542D02*
X038916Y013542D01*
X038884Y013661D02*
X040160Y013661D01*
X040160Y013779D02*
X038809Y013779D01*
X038373Y013898D02*
X037627Y013898D01*
X037809Y013779D02*
X038191Y013779D01*
X038116Y013661D02*
X037884Y013661D01*
X037916Y013542D02*
X038084Y013542D01*
X038084Y013424D02*
X037916Y013424D01*
X037870Y013305D02*
X038130Y013305D01*
X038224Y013187D02*
X037776Y013187D01*
X037757Y012831D02*
X038243Y012831D01*
X038138Y012713D02*
X037862Y012713D01*
X037911Y012594D02*
X038089Y012594D01*
X038084Y012476D02*
X037916Y012476D01*
X037891Y012357D02*
X038109Y012357D01*
X038172Y012239D02*
X037828Y012239D01*
X037671Y012120D02*
X038329Y012120D01*
X038417Y011916D02*
X038264Y011853D01*
X038147Y011736D01*
X038084Y011583D01*
X038084Y011417D01*
X038147Y011264D01*
X038264Y011147D01*
X038417Y011084D01*
X038583Y011084D01*
X038736Y011147D01*
X038853Y011264D01*
X038916Y011417D01*
X038916Y011583D01*
X038853Y011736D01*
X038736Y011853D01*
X038583Y011916D01*
X038417Y011916D01*
X038338Y011883D02*
X037662Y011883D01*
X037824Y011765D02*
X038176Y011765D01*
X038110Y011646D02*
X037890Y011646D01*
X037916Y011528D02*
X038084Y011528D01*
X038087Y011409D02*
X037913Y011409D01*
X037864Y011291D02*
X038136Y011291D01*
X038239Y011172D02*
X037761Y011172D01*
X037583Y010916D02*
X037417Y010916D01*
X037264Y010853D01*
X037147Y010736D01*
X037084Y010583D01*
X037084Y010417D01*
X037147Y010264D01*
X037264Y010147D01*
X037417Y010084D01*
X037583Y010084D01*
X037736Y010147D01*
X037853Y010264D01*
X037916Y010417D01*
X037916Y010583D01*
X037853Y010736D01*
X037736Y010853D01*
X037583Y010916D01*
X037772Y010817D02*
X038228Y010817D01*
X038264Y010853D02*
X038147Y010736D01*
X038084Y010583D01*
X038084Y010417D01*
X038147Y010264D01*
X038264Y010147D01*
X038417Y010084D01*
X038583Y010084D01*
X038736Y010147D01*
X038853Y010264D01*
X038916Y010417D01*
X038916Y010583D01*
X038853Y010736D01*
X038736Y010853D01*
X038583Y010916D01*
X038417Y010916D01*
X038264Y010853D01*
X038132Y010698D02*
X037868Y010698D01*
X037916Y010580D02*
X038084Y010580D01*
X038084Y010461D02*
X037916Y010461D01*
X037885Y010343D02*
X038115Y010343D01*
X038187Y010224D02*
X037813Y010224D01*
X037636Y010106D02*
X038364Y010106D01*
X038417Y009916D02*
X038264Y009853D01*
X038147Y009736D01*
X038084Y009583D01*
X038084Y009417D01*
X038147Y009264D01*
X038264Y009147D01*
X038417Y009084D01*
X038583Y009084D01*
X038736Y009147D01*
X038853Y009264D01*
X038916Y009417D01*
X038916Y009583D01*
X038853Y009736D01*
X038736Y009853D01*
X038583Y009916D01*
X038417Y009916D01*
X038303Y009869D02*
X037697Y009869D01*
X037736Y009853D02*
X037583Y009916D01*
X037417Y009916D01*
X037264Y009853D01*
X037147Y009736D01*
X037084Y009583D01*
X037084Y009417D01*
X037147Y009264D01*
X037264Y009147D01*
X037417Y009084D01*
X037583Y009084D01*
X037736Y009147D01*
X037853Y009264D01*
X037916Y009417D01*
X037916Y009583D01*
X037853Y009736D01*
X037736Y009853D01*
X037838Y009750D02*
X038162Y009750D01*
X038104Y009632D02*
X037896Y009632D01*
X037916Y009513D02*
X038084Y009513D01*
X038093Y009395D02*
X037907Y009395D01*
X037858Y009276D02*
X038142Y009276D01*
X038253Y009158D02*
X037747Y009158D01*
X037583Y008916D02*
X037417Y008916D01*
X037264Y008853D01*
X037147Y008736D01*
X037084Y008583D01*
X037084Y008417D01*
X037147Y008264D01*
X037264Y008147D01*
X037417Y008084D01*
X037583Y008084D01*
X037736Y008147D01*
X037853Y008264D01*
X037916Y008417D01*
X037916Y008583D01*
X037853Y008736D01*
X037736Y008853D01*
X037583Y008916D01*
X037786Y008802D02*
X038214Y008802D01*
X038264Y008853D02*
X038147Y008736D01*
X038084Y008583D01*
X038084Y008417D01*
X038147Y008264D01*
X038264Y008147D01*
X038417Y008084D01*
X038583Y008084D01*
X038736Y008147D01*
X038853Y008264D01*
X038916Y008417D01*
X038916Y008583D01*
X038853Y008736D01*
X038736Y008853D01*
X038583Y008916D01*
X038417Y008916D01*
X038264Y008853D01*
X038126Y008684D02*
X037874Y008684D01*
X037916Y008565D02*
X038084Y008565D01*
X038084Y008447D02*
X037916Y008447D01*
X037879Y008328D02*
X038121Y008328D01*
X038201Y008210D02*
X037799Y008210D01*
X037601Y008091D02*
X038399Y008091D01*
X038417Y007916D02*
X038264Y007853D01*
X038147Y007736D01*
X038084Y007583D01*
X038084Y007417D01*
X038147Y007264D01*
X038264Y007147D01*
X038417Y007084D01*
X038583Y007084D01*
X038736Y007147D01*
X038853Y007264D01*
X038916Y007417D01*
X038916Y007583D01*
X038853Y007736D01*
X038736Y007853D01*
X038583Y007916D01*
X038417Y007916D01*
X038268Y007854D02*
X037732Y007854D01*
X037736Y007853D02*
X037583Y007916D01*
X037417Y007916D01*
X037264Y007853D01*
X037147Y007736D01*
X037084Y007583D01*
X037084Y007417D01*
X037147Y007264D01*
X037264Y007147D01*
X037417Y007084D01*
X037583Y007084D01*
X037736Y007147D01*
X037853Y007264D01*
X037916Y007417D01*
X037916Y007583D01*
X037853Y007736D01*
X037736Y007853D01*
X037853Y007736D02*
X038147Y007736D01*
X038098Y007617D02*
X037902Y007617D01*
X037916Y007499D02*
X038084Y007499D01*
X038099Y007380D02*
X037901Y007380D01*
X037851Y007262D02*
X038149Y007262D01*
X038273Y007143D02*
X037727Y007143D01*
X037606Y006906D02*
X038394Y006906D01*
X038417Y006916D02*
X038264Y006853D01*
X038147Y006736D01*
X038084Y006583D01*
X038084Y006417D01*
X038147Y006264D01*
X038264Y006147D01*
X038417Y006084D01*
X038583Y006084D01*
X038736Y006147D01*
X038853Y006264D01*
X038916Y006417D01*
X038916Y006583D01*
X038853Y006736D01*
X038736Y006853D01*
X038583Y006916D01*
X038417Y006916D01*
X038606Y006906D02*
X040160Y006906D01*
X040160Y006788D02*
X038801Y006788D01*
X038880Y006669D02*
X040160Y006669D01*
X040160Y006551D02*
X038916Y006551D01*
X038916Y006432D02*
X040160Y006432D01*
X040160Y006314D02*
X038873Y006314D01*
X038784Y006195D02*
X040160Y006195D01*
X040160Y006077D02*
X033165Y006077D01*
X033165Y006195D02*
X037216Y006195D01*
X037264Y006147D02*
X037417Y006084D01*
X037583Y006084D01*
X037736Y006147D01*
X037853Y006264D01*
X037916Y006417D01*
X037916Y006583D01*
X037853Y006736D01*
X037736Y006853D01*
X037583Y006916D01*
X037417Y006916D01*
X037264Y006853D01*
X037147Y006736D01*
X037084Y006583D01*
X037084Y006417D01*
X037147Y006264D01*
X037264Y006147D01*
X037127Y006314D02*
X033165Y006314D01*
X033165Y006432D02*
X037084Y006432D01*
X037084Y006551D02*
X033165Y006551D01*
X033165Y006669D02*
X037120Y006669D01*
X037199Y006788D02*
X033165Y006788D01*
X033165Y006906D02*
X037394Y006906D01*
X037273Y007143D02*
X033078Y007143D01*
X033157Y007025D02*
X040160Y007025D01*
X040160Y007143D02*
X038727Y007143D01*
X038851Y007262D02*
X040160Y007262D01*
X040160Y007380D02*
X038901Y007380D01*
X038916Y007499D02*
X040160Y007499D01*
X040160Y007617D02*
X038902Y007617D01*
X038853Y007736D02*
X040160Y007736D01*
X040160Y007854D02*
X038732Y007854D01*
X038601Y008091D02*
X040160Y008091D01*
X040160Y007973D02*
X032625Y007973D01*
X032625Y007854D02*
X037268Y007854D01*
X037147Y007736D02*
X032625Y007736D01*
X032625Y007617D02*
X037098Y007617D01*
X037084Y007499D02*
X032723Y007499D01*
X032841Y007380D02*
X037099Y007380D01*
X037149Y007262D02*
X032960Y007262D01*
X032925Y006957D02*
X032385Y007497D01*
X032385Y007947D01*
X031965Y008367D01*
X026693Y008367D01*
X026650Y008410D01*
X026564Y008684D02*
X030616Y008684D01*
X030530Y008802D02*
X026445Y008802D01*
X026327Y008921D02*
X030505Y008921D01*
X030526Y009039D02*
X026208Y009039D01*
X026090Y009158D02*
X030580Y009158D01*
X030580Y009276D02*
X025971Y009276D01*
X025853Y009395D02*
X030580Y009395D01*
X030580Y009513D02*
X025734Y009513D01*
X025616Y009632D02*
X030580Y009632D01*
X030580Y009750D02*
X025497Y009750D01*
X025379Y009869D02*
X030580Y009869D01*
X030580Y009987D02*
X025260Y009987D01*
X025142Y010106D02*
X030580Y010106D01*
X030580Y010224D02*
X025023Y010224D01*
X024905Y010343D02*
X030580Y010343D01*
X030580Y010461D02*
X008329Y010461D01*
X008397Y010580D02*
X030580Y010580D01*
X030580Y010698D02*
X008445Y010698D01*
X008445Y010817D02*
X030580Y010817D01*
X030580Y010935D02*
X008436Y010935D01*
X008387Y011054D02*
X030580Y011054D01*
X030580Y011172D02*
X008305Y011172D01*
X008159Y011291D02*
X030580Y011291D01*
X030580Y011409D02*
X008277Y011409D01*
X008376Y011528D02*
X030580Y011528D01*
X030580Y011646D02*
X008425Y011646D01*
X008445Y011765D02*
X030580Y011765D01*
X030580Y011883D02*
X008445Y011883D01*
X008409Y012002D02*
X014213Y012002D01*
X014247Y011968D02*
X014362Y011920D01*
X014488Y011920D01*
X014603Y011968D01*
X014692Y012057D01*
X014740Y012172D01*
X014740Y012298D01*
X014692Y012413D01*
X014685Y012420D01*
X014685Y012612D01*
X014768Y012695D01*
X017480Y012695D01*
X017487Y012688D01*
X017602Y012640D01*
X017728Y012640D01*
X017843Y012688D01*
X017932Y012777D01*
X017980Y012892D01*
X017980Y013018D01*
X017932Y013133D01*
X017843Y013222D01*
X017728Y013270D01*
X017602Y013270D01*
X017487Y013222D01*
X017480Y013215D01*
X014608Y013215D01*
X014513Y013175D01*
X014440Y013102D01*
X014205Y012867D01*
X014165Y012772D01*
X014165Y012420D01*
X014158Y012413D01*
X014110Y012298D01*
X014110Y012172D01*
X014158Y012057D01*
X014247Y011968D01*
X014132Y012120D02*
X008357Y012120D01*
X008239Y012239D02*
X014110Y012239D01*
X014135Y012357D02*
X008181Y012357D01*
X008311Y012476D02*
X014165Y012476D01*
X014165Y012594D02*
X008383Y012594D01*
X008417Y012713D02*
X014165Y012713D01*
X014190Y012831D02*
X007935Y012831D01*
X008356Y013068D02*
X014406Y013068D01*
X014287Y012950D02*
X008405Y012950D01*
X008263Y013187D02*
X014541Y013187D01*
X014685Y012594D02*
X018404Y012594D01*
X018404Y012476D02*
X014685Y012476D01*
X014715Y012357D02*
X018367Y012357D01*
X018329Y012239D02*
X014740Y012239D01*
X014718Y012120D02*
X018336Y012120D01*
X018397Y012002D02*
X014637Y012002D01*
X012700Y010850D02*
X012700Y013523D01*
X014025Y014847D01*
X014025Y013827D01*
X013965Y013767D01*
X015712Y014372D02*
X008240Y014372D01*
X008224Y014253D02*
X015784Y014253D01*
X015692Y014490D02*
X008358Y014490D01*
X008409Y014609D02*
X015712Y014609D01*
X015785Y014727D02*
X008445Y014727D01*
X008445Y014846D02*
X015800Y014846D01*
X015800Y014964D02*
X008424Y014964D01*
X008375Y015083D02*
X015800Y015083D01*
X015800Y015201D02*
X008276Y015201D01*
X008343Y014135D02*
X016794Y014135D01*
X016769Y014159D02*
X016924Y014004D01*
X017126Y013921D01*
X017345Y013921D01*
X017547Y014004D01*
X017702Y014159D01*
X017786Y014361D01*
X017786Y014580D01*
X017702Y014782D01*
X017547Y014937D01*
X017466Y014971D01*
X017547Y015004D01*
X017702Y015159D01*
X017786Y015361D01*
X017786Y015580D01*
X017702Y015782D01*
X017547Y015937D01*
X017441Y015981D01*
X017513Y016017D01*
X017581Y016066D01*
X017640Y016125D01*
X017689Y016193D01*
X017727Y016267D01*
X017753Y016347D01*
X017766Y016429D01*
X017766Y016431D01*
X017276Y016431D01*
X017276Y016511D01*
X017196Y016511D01*
X017196Y016431D01*
X016706Y016431D01*
X016706Y016429D01*
X016719Y016347D01*
X016744Y016267D01*
X016782Y016193D01*
X016831Y016125D01*
X016890Y016066D01*
X016958Y016017D01*
X017030Y015981D01*
X016924Y015937D01*
X016769Y015782D01*
X016686Y015580D01*
X016686Y015361D01*
X016769Y015159D01*
X016924Y015004D01*
X017005Y014971D01*
X016924Y014937D01*
X016769Y014782D01*
X016686Y014580D01*
X016686Y014361D01*
X016769Y014159D01*
X016730Y014253D02*
X016296Y014253D01*
X016368Y014372D02*
X016686Y014372D01*
X016686Y014490D02*
X016388Y014490D01*
X016368Y014609D02*
X016698Y014609D01*
X016747Y014727D02*
X016295Y014727D01*
X016280Y014846D02*
X016833Y014846D01*
X016990Y014964D02*
X016280Y014964D01*
X016280Y015083D02*
X016846Y015083D01*
X016752Y015201D02*
X016280Y015201D01*
X016280Y015320D02*
X016703Y015320D01*
X016686Y015438D02*
X016280Y015438D01*
X016280Y015557D02*
X016686Y015557D01*
X016725Y015675D02*
X016280Y015675D01*
X016280Y015794D02*
X016781Y015794D01*
X016900Y015912D02*
X016280Y015912D01*
X016280Y016031D02*
X016939Y016031D01*
X016814Y016149D02*
X016280Y016149D01*
X016280Y016268D02*
X016744Y016268D01*
X016712Y016386D02*
X016280Y016386D01*
X016280Y016505D02*
X017196Y016505D01*
X017276Y016505D02*
X018470Y016505D01*
X018550Y016505D02*
X020044Y016505D01*
X018550Y016623D02*
X018470Y016623D01*
X018470Y016742D02*
X018550Y016742D01*
X018550Y016860D02*
X018470Y016860D01*
X018152Y016860D02*
X017595Y016860D01*
X017692Y016742D02*
X018054Y016742D01*
X018003Y016623D02*
X017743Y016623D01*
X017759Y016386D02*
X017987Y016386D01*
X018018Y016268D02*
X017727Y016268D01*
X017657Y016149D02*
X018088Y016149D01*
X018212Y016031D02*
X017532Y016031D01*
X017572Y015912D02*
X018176Y015912D01*
X018057Y015794D02*
X017690Y015794D01*
X017746Y015675D02*
X018000Y015675D01*
X017960Y015557D02*
X017786Y015557D01*
X017786Y015438D02*
X017960Y015438D01*
X017977Y015320D02*
X017768Y015320D01*
X017719Y015201D02*
X018026Y015201D01*
X018119Y015083D02*
X017626Y015083D01*
X017481Y014964D02*
X018268Y014964D01*
X018109Y014846D02*
X017638Y014846D01*
X017725Y014727D02*
X018022Y014727D01*
X017973Y014609D02*
X017774Y014609D01*
X017786Y014490D02*
X017960Y014490D01*
X017960Y014372D02*
X017786Y014372D01*
X017741Y014253D02*
X018004Y014253D01*
X018067Y014135D02*
X017678Y014135D01*
X017559Y014016D02*
X018185Y014016D01*
X018468Y013779D02*
X008445Y013779D01*
X008445Y013898D02*
X018573Y013898D01*
X018404Y013661D02*
X008431Y013661D01*
X008382Y013542D02*
X018404Y013542D01*
X018404Y013424D02*
X008292Y013424D01*
X008126Y013305D02*
X018404Y013305D01*
X018404Y013187D02*
X017879Y013187D01*
X017959Y013068D02*
X018404Y013068D01*
X018404Y012950D02*
X017980Y012950D01*
X017955Y012831D02*
X018404Y012831D01*
X018404Y012713D02*
X017868Y012713D01*
X016912Y014016D02*
X008403Y014016D01*
X006220Y013145D02*
X006220Y016800D01*
X008020Y018600D01*
X014520Y018600D01*
X014525Y018595D01*
X014672Y018875D02*
X018721Y018875D01*
X018676Y018756D02*
X014799Y018756D01*
X014840Y018638D02*
X018677Y018638D01*
X018728Y018519D02*
X014835Y018519D01*
X014776Y018401D02*
X018896Y018401D01*
X019086Y018401D02*
X020009Y018401D01*
X020127Y018282D02*
X014594Y018282D01*
X014456Y018282D02*
X008042Y018282D01*
X007923Y018164D02*
X020246Y018164D01*
X020364Y018045D02*
X007805Y018045D01*
X007686Y017927D02*
X020483Y017927D01*
X020601Y017808D02*
X007568Y017808D01*
X006878Y018282D02*
X006535Y018282D01*
X006523Y018401D02*
X006997Y018401D01*
X007115Y018519D02*
X006456Y018519D01*
X006220Y018310D02*
X006210Y018320D01*
X005645Y018320D01*
X004005Y016680D01*
X004005Y014110D01*
X003687Y014253D02*
X003610Y014253D01*
X003610Y014135D02*
X003657Y014135D01*
X003667Y014016D02*
X003610Y014016D01*
X003610Y013898D02*
X003724Y013898D01*
X003610Y013779D02*
X003893Y013779D01*
X004117Y013779D02*
X004722Y013779D01*
X004662Y013898D02*
X004286Y013898D01*
X004343Y014016D02*
X004640Y014016D01*
X004647Y014135D02*
X004353Y014135D01*
X004323Y014253D02*
X004696Y014253D01*
X004803Y014372D02*
X004245Y014372D01*
X004245Y014490D02*
X005060Y014490D01*
X005060Y014609D02*
X004245Y014609D01*
X004245Y014727D02*
X005060Y014727D01*
X005060Y014846D02*
X004245Y014846D01*
X004245Y014964D02*
X005060Y014964D01*
X005060Y015083D02*
X004245Y015083D01*
X004245Y015201D02*
X005060Y015201D01*
X005060Y015320D02*
X004245Y015320D01*
X004245Y015438D02*
X005060Y015438D01*
X005060Y015557D02*
X004245Y015557D01*
X004245Y015675D02*
X005060Y015675D01*
X005060Y015794D02*
X004245Y015794D01*
X004245Y015912D02*
X005060Y015912D01*
X005060Y016031D02*
X004245Y016031D01*
X004245Y016149D02*
X005060Y016149D01*
X005060Y016268D02*
X004245Y016268D01*
X004245Y016386D02*
X005060Y016386D01*
X005101Y016505D02*
X004245Y016505D01*
X004288Y016623D02*
X005219Y016623D01*
X005338Y016742D02*
X004406Y016742D01*
X004525Y016860D02*
X005456Y016860D01*
X005575Y016979D02*
X004643Y016979D01*
X004762Y017097D02*
X005693Y017097D01*
X005812Y017216D02*
X004880Y017216D01*
X004999Y017334D02*
X005930Y017334D01*
X006049Y017453D02*
X005117Y017453D01*
X005236Y017571D02*
X006167Y017571D01*
X006286Y017690D02*
X005354Y017690D01*
X005473Y017808D02*
X006404Y017808D01*
X006523Y017927D02*
X005591Y017927D01*
X005710Y018045D02*
X006039Y018045D01*
X006401Y018045D02*
X006641Y018045D01*
X006760Y018164D02*
X006500Y018164D01*
X005065Y018875D02*
X004304Y018875D01*
X004186Y018756D02*
X004948Y018756D01*
X004831Y018638D02*
X004067Y018638D01*
X003949Y018519D02*
X004714Y018519D01*
X004597Y018401D02*
X003830Y018401D01*
X003712Y018282D02*
X004480Y018282D01*
X004363Y018164D02*
X003593Y018164D01*
X003475Y018045D02*
X004246Y018045D01*
X004129Y017927D02*
X003356Y017927D01*
X003238Y017808D02*
X004012Y017808D01*
X003894Y017690D02*
X003175Y017690D01*
X003175Y017746D02*
X003175Y016962D01*
X005283Y019095D01*
X004524Y019095D01*
X003175Y017746D01*
X003175Y017571D02*
X003777Y017571D01*
X003660Y017453D02*
X003175Y017453D01*
X003175Y017334D02*
X003543Y017334D01*
X003426Y017216D02*
X003175Y017216D01*
X003175Y017097D02*
X003309Y017097D01*
X003192Y016979D02*
X003175Y016979D01*
X002695Y016979D02*
X000710Y016979D01*
X000710Y017097D02*
X002695Y017097D01*
X002695Y017216D02*
X000710Y017216D01*
X000710Y017334D02*
X002695Y017334D01*
X002695Y017453D02*
X000710Y017453D01*
X000710Y017571D02*
X002695Y017571D01*
X002695Y017690D02*
X000710Y017690D01*
X000710Y017808D02*
X002685Y017808D01*
X002703Y017927D02*
X000710Y017927D01*
X000710Y018045D02*
X002796Y018045D01*
X002789Y018038D02*
X002789Y018038D01*
X002915Y018164D02*
X000710Y018164D01*
X000710Y018282D02*
X003033Y018282D01*
X003152Y018401D02*
X000710Y018401D01*
X000710Y018519D02*
X003270Y018519D01*
X003389Y018638D02*
X000710Y018638D01*
X000710Y018756D02*
X003507Y018756D01*
X003626Y018875D02*
X000710Y018875D01*
X000710Y018993D02*
X003744Y018993D01*
X003863Y019112D02*
X000710Y019112D01*
X000710Y019230D02*
X003981Y019230D01*
X004100Y019349D02*
X000710Y019349D01*
X000710Y019467D02*
X004218Y019467D01*
X004425Y019335D02*
X007075Y019335D01*
X008785Y021000D01*
X012235Y020985D01*
X012485Y020715D01*
X012485Y020015D01*
X013000Y019500D01*
X013388Y019349D02*
X013510Y019349D01*
X013584Y019467D02*
X013416Y019467D01*
X013415Y019586D02*
X013585Y019586D01*
X013634Y019704D02*
X013366Y019704D01*
X013266Y019823D02*
X013734Y019823D01*
X014000Y019500D02*
X013450Y018950D01*
X007885Y018950D01*
X005300Y016365D01*
X005300Y014035D01*
X005540Y014490D02*
X005980Y014490D01*
X005980Y014372D02*
X005797Y014372D01*
X005904Y014253D02*
X005980Y014253D01*
X005980Y014135D02*
X005953Y014135D01*
X005960Y014016D02*
X005980Y014016D01*
X005980Y013898D02*
X005938Y013898D01*
X005980Y013779D02*
X005878Y013779D01*
X005980Y013661D02*
X005734Y013661D01*
X005699Y013424D02*
X005980Y013424D01*
X005980Y013542D02*
X003610Y013542D01*
X003610Y013424D02*
X004901Y013424D01*
X004736Y013305D02*
X003610Y013305D01*
X003610Y013187D02*
X004668Y013187D01*
X004640Y013068D02*
X003610Y013068D01*
X003610Y012950D02*
X004641Y012950D01*
X004690Y012831D02*
X003610Y012831D01*
X003610Y012713D02*
X004788Y012713D01*
X005300Y013035D02*
X006110Y013035D01*
X006220Y013145D01*
X005980Y013305D02*
X005864Y013305D01*
X004866Y013661D02*
X003610Y013661D01*
X003610Y014372D02*
X003765Y014372D01*
X003765Y014490D02*
X003610Y014490D01*
X003610Y014609D02*
X003765Y014609D01*
X003765Y014727D02*
X003610Y014727D01*
X003610Y014846D02*
X003765Y014846D01*
X003765Y014964D02*
X003610Y014964D01*
X003610Y015083D02*
X003765Y015083D01*
X003765Y015201D02*
X003610Y015201D01*
X003610Y015320D02*
X003765Y015320D01*
X003765Y015438D02*
X003610Y015438D01*
X003610Y015557D02*
X003765Y015557D01*
X003765Y015675D02*
X003610Y015675D01*
X003610Y015794D02*
X003765Y015794D01*
X003765Y015912D02*
X003610Y015912D01*
X003610Y016031D02*
X003765Y016031D01*
X003765Y016149D02*
X003610Y016149D01*
X003610Y016268D02*
X003765Y016268D01*
X003765Y016386D02*
X003610Y016386D01*
X003724Y016505D02*
X003765Y016505D01*
X002935Y016400D02*
X002935Y017825D01*
X002925Y017835D01*
X004425Y019335D01*
X004423Y018993D02*
X005182Y018993D01*
X005989Y019823D02*
X000710Y019823D01*
X000710Y019941D02*
X005871Y019941D01*
X005773Y020060D02*
X000710Y020060D01*
X000710Y020178D02*
X005724Y020178D01*
X005675Y020297D02*
X000710Y020297D01*
X000710Y020415D02*
X005660Y020415D01*
X005660Y020534D02*
X000710Y020534D01*
X000710Y020652D02*
X005660Y020652D01*
X005703Y020771D02*
X000710Y020771D01*
X000710Y020889D02*
X005752Y020889D01*
X005820Y021008D02*
X000710Y021008D01*
X000710Y021126D02*
X005939Y021126D01*
X006104Y021245D02*
X000710Y021245D01*
X000710Y019704D02*
X006226Y019704D01*
X006774Y019704D02*
X007110Y019704D01*
X007011Y019823D02*
X007232Y019823D01*
X007129Y019941D02*
X007354Y019941D01*
X007476Y020060D02*
X007227Y020060D01*
X007276Y020178D02*
X007597Y020178D01*
X007719Y020297D02*
X007325Y020297D01*
X007340Y020415D02*
X007841Y020415D01*
X007962Y020534D02*
X007340Y020534D01*
X007340Y020652D02*
X008084Y020652D01*
X008206Y020771D02*
X007297Y020771D01*
X007248Y020889D02*
X008327Y020889D01*
X008449Y021008D02*
X007180Y021008D01*
X007061Y021126D02*
X008571Y021126D01*
X006896Y021245D02*
X035604Y021245D01*
X035439Y021126D02*
X012433Y021126D01*
X012541Y021008D02*
X035320Y021008D01*
X035252Y020889D02*
X034647Y020889D01*
X034583Y020916D02*
X034417Y020916D01*
X034264Y020853D01*
X034147Y020736D01*
X034084Y020583D01*
X034084Y020417D01*
X034147Y020264D01*
X034264Y020147D01*
X034417Y020084D01*
X034583Y020084D01*
X034736Y020147D01*
X034853Y020264D01*
X034916Y020417D01*
X034916Y020583D01*
X034853Y020736D01*
X034736Y020853D01*
X034583Y020916D01*
X034353Y020889D02*
X033647Y020889D01*
X033583Y020916D02*
X033736Y020853D01*
X033853Y020736D01*
X033916Y020583D01*
X033916Y020417D01*
X033853Y020264D01*
X033736Y020147D01*
X033583Y020084D01*
X033417Y020084D01*
X033264Y020147D01*
X033147Y020264D01*
X033084Y020417D01*
X033084Y020583D01*
X033147Y020736D01*
X033264Y020853D01*
X033417Y020916D01*
X033583Y020916D01*
X033353Y020889D02*
X032647Y020889D01*
X032583Y020916D02*
X032417Y020916D01*
X032264Y020853D01*
X032147Y020736D01*
X032084Y020583D01*
X032084Y020417D01*
X032147Y020264D01*
X032264Y020147D01*
X032417Y020084D01*
X032583Y020084D01*
X032736Y020147D01*
X032853Y020264D01*
X032916Y020417D01*
X032916Y020583D01*
X032853Y020736D01*
X032736Y020853D01*
X032583Y020916D01*
X032353Y020889D02*
X031647Y020889D01*
X031583Y020916D02*
X031736Y020853D01*
X031853Y020736D01*
X031916Y020583D01*
X031916Y020417D01*
X031853Y020264D01*
X031736Y020147D01*
X031583Y020084D01*
X031417Y020084D01*
X031264Y020147D01*
X031147Y020264D01*
X031084Y020417D01*
X031084Y020583D01*
X031147Y020736D01*
X031264Y020853D01*
X031417Y020916D01*
X031583Y020916D01*
X031353Y020889D02*
X030647Y020889D01*
X030818Y020771D02*
X031182Y020771D01*
X031113Y020652D02*
X030887Y020652D01*
X030916Y020534D02*
X031084Y020534D01*
X031085Y020415D02*
X030915Y020415D01*
X030866Y020297D02*
X031134Y020297D01*
X031233Y020178D02*
X030767Y020178D01*
X031003Y020060D02*
X035273Y020060D01*
X035224Y020178D02*
X034767Y020178D01*
X034866Y020297D02*
X035175Y020297D01*
X035160Y020415D02*
X034915Y020415D01*
X034916Y020534D02*
X035160Y020534D01*
X035160Y020652D02*
X034887Y020652D01*
X034818Y020771D02*
X035203Y020771D01*
X034182Y020771D02*
X033818Y020771D01*
X033887Y020652D02*
X034113Y020652D01*
X034084Y020534D02*
X033916Y020534D01*
X033915Y020415D02*
X034085Y020415D01*
X034134Y020297D02*
X033866Y020297D01*
X033767Y020178D02*
X034233Y020178D01*
X033233Y020178D02*
X032767Y020178D01*
X032866Y020297D02*
X033134Y020297D01*
X033085Y020415D02*
X032915Y020415D01*
X032916Y020534D02*
X033084Y020534D01*
X033113Y020652D02*
X032887Y020652D01*
X032818Y020771D02*
X033182Y020771D01*
X032182Y020771D02*
X031818Y020771D01*
X031887Y020652D02*
X032113Y020652D01*
X032084Y020534D02*
X031916Y020534D01*
X031915Y020415D02*
X032085Y020415D01*
X032134Y020297D02*
X031866Y020297D01*
X031767Y020178D02*
X032233Y020178D01*
X031083Y019941D02*
X035371Y019941D01*
X035489Y019823D02*
X031095Y019823D01*
X031095Y019704D02*
X035726Y019704D01*
X036274Y019704D02*
X037134Y019704D01*
X037147Y019736D02*
X037084Y019583D01*
X037084Y019417D01*
X037147Y019264D01*
X037264Y019147D01*
X037417Y019084D01*
X037583Y019084D01*
X037736Y019147D01*
X037853Y019264D01*
X037916Y019417D01*
X037916Y019583D01*
X037853Y019736D01*
X037736Y019853D01*
X037583Y019916D01*
X037417Y019916D01*
X037264Y019853D01*
X037147Y019736D01*
X037234Y019823D02*
X036511Y019823D01*
X036629Y019941D02*
X040160Y019941D01*
X040160Y019823D02*
X038766Y019823D01*
X038736Y019853D02*
X038583Y019916D01*
X038417Y019916D01*
X038264Y019853D01*
X038147Y019736D01*
X038084Y019583D01*
X038084Y019417D01*
X038147Y019264D01*
X038264Y019147D01*
X038417Y019084D01*
X038583Y019084D01*
X038736Y019147D01*
X038853Y019264D01*
X038916Y019417D01*
X038916Y019583D01*
X038853Y019736D01*
X038736Y019853D01*
X038866Y019704D02*
X040160Y019704D01*
X040160Y019586D02*
X038915Y019586D01*
X038916Y019467D02*
X040160Y019467D01*
X040160Y019349D02*
X038888Y019349D01*
X038819Y019230D02*
X040160Y019230D01*
X040160Y019112D02*
X038651Y019112D01*
X038583Y018916D02*
X038417Y018916D01*
X038264Y018853D01*
X038147Y018736D01*
X038084Y018583D01*
X038084Y018417D01*
X038147Y018264D01*
X038264Y018147D01*
X038417Y018084D01*
X038583Y018084D01*
X038736Y018147D01*
X038853Y018264D01*
X038916Y018417D01*
X038916Y018583D01*
X038853Y018736D01*
X038736Y018853D01*
X038583Y018916D01*
X038682Y018875D02*
X040160Y018875D01*
X040160Y018993D02*
X031095Y018993D01*
X031095Y019112D02*
X037349Y019112D01*
X037181Y019230D02*
X031095Y019230D01*
X031095Y019349D02*
X037112Y019349D01*
X037084Y019467D02*
X031095Y019467D01*
X031095Y019586D02*
X037085Y019586D01*
X036727Y020060D02*
X040160Y020060D01*
X040160Y020178D02*
X038767Y020178D01*
X038736Y020147D02*
X038853Y020264D01*
X038916Y020417D01*
X038916Y020583D01*
X038853Y020736D01*
X038736Y020853D01*
X038583Y020916D01*
X038417Y020916D01*
X038264Y020853D01*
X038147Y020736D01*
X038084Y020583D01*
X038084Y020417D01*
X038147Y020264D01*
X038264Y020147D01*
X038417Y020084D01*
X038583Y020084D01*
X038736Y020147D01*
X038866Y020297D02*
X040160Y020297D01*
X040160Y020415D02*
X038915Y020415D01*
X038916Y020534D02*
X040160Y020534D01*
X040160Y020652D02*
X038887Y020652D01*
X038818Y020771D02*
X040160Y020771D01*
X040160Y020889D02*
X038647Y020889D01*
X038353Y020889D02*
X037647Y020889D01*
X037583Y020916D02*
X037417Y020916D01*
X037264Y020853D01*
X037147Y020736D01*
X037084Y020583D01*
X037084Y020417D01*
X037147Y020264D01*
X037264Y020147D01*
X037417Y020084D01*
X037583Y020084D01*
X037736Y020147D01*
X037853Y020264D01*
X037916Y020417D01*
X037916Y020583D01*
X037853Y020736D01*
X037736Y020853D01*
X037583Y020916D01*
X037353Y020889D02*
X036748Y020889D01*
X036797Y020771D02*
X037182Y020771D01*
X037113Y020652D02*
X036840Y020652D01*
X036840Y020534D02*
X037084Y020534D01*
X037085Y020415D02*
X036840Y020415D01*
X036825Y020297D02*
X037134Y020297D01*
X037233Y020178D02*
X036776Y020178D01*
X037767Y020178D02*
X038233Y020178D01*
X038134Y020297D02*
X037866Y020297D01*
X037915Y020415D02*
X038085Y020415D01*
X038084Y020534D02*
X037916Y020534D01*
X037887Y020652D02*
X038113Y020652D01*
X038182Y020771D02*
X037818Y020771D01*
X036680Y021008D02*
X040160Y021008D01*
X040160Y021126D02*
X036561Y021126D01*
X036396Y021245D02*
X040160Y021245D01*
X038234Y019823D02*
X037766Y019823D01*
X037866Y019704D02*
X038134Y019704D01*
X038085Y019586D02*
X037915Y019586D01*
X037916Y019467D02*
X038084Y019467D01*
X038112Y019349D02*
X037888Y019349D01*
X037819Y019230D02*
X038181Y019230D01*
X038349Y019112D02*
X037651Y019112D01*
X037583Y018916D02*
X037417Y018916D01*
X037264Y018853D01*
X037147Y018736D01*
X037084Y018583D01*
X037084Y018417D01*
X037147Y018264D01*
X037264Y018147D01*
X037417Y018084D01*
X037583Y018084D01*
X037736Y018147D01*
X037853Y018264D01*
X037916Y018417D01*
X037916Y018583D01*
X037853Y018736D01*
X037736Y018853D01*
X037583Y018916D01*
X037682Y018875D02*
X038318Y018875D01*
X038168Y018756D02*
X037832Y018756D01*
X037893Y018638D02*
X038107Y018638D01*
X038084Y018519D02*
X037916Y018519D01*
X037909Y018401D02*
X038091Y018401D01*
X038140Y018282D02*
X037860Y018282D01*
X037753Y018164D02*
X038247Y018164D01*
X038417Y017916D02*
X038264Y017853D01*
X038147Y017736D01*
X038084Y017583D01*
X038084Y017417D01*
X038147Y017264D01*
X038264Y017147D01*
X038417Y017084D01*
X038583Y017084D01*
X038736Y017147D01*
X038853Y017264D01*
X038916Y017417D01*
X038916Y017583D01*
X038853Y017736D01*
X038736Y017853D01*
X038583Y017916D01*
X038417Y017916D01*
X038220Y017808D02*
X037780Y017808D01*
X037736Y017853D02*
X037853Y017736D01*
X037916Y017583D01*
X037916Y017417D01*
X037853Y017264D01*
X037736Y017147D01*
X037583Y017084D01*
X037417Y017084D01*
X037264Y017147D01*
X037147Y017264D01*
X037084Y017417D01*
X037084Y017583D01*
X037147Y017736D01*
X037264Y017853D01*
X037417Y017916D01*
X037583Y017916D01*
X037736Y017853D01*
X037872Y017690D02*
X038128Y017690D01*
X038084Y017571D02*
X037916Y017571D01*
X037916Y017453D02*
X038084Y017453D01*
X038118Y017334D02*
X037882Y017334D01*
X037805Y017216D02*
X038195Y017216D01*
X038384Y017097D02*
X037616Y017097D01*
X037583Y016916D02*
X037417Y016916D01*
X037264Y016853D01*
X037147Y016736D01*
X037084Y016583D01*
X037084Y016417D01*
X037147Y016264D01*
X037264Y016147D01*
X037417Y016084D01*
X037583Y016084D01*
X037736Y016147D01*
X037853Y016264D01*
X037916Y016417D01*
X037916Y016583D01*
X037853Y016736D01*
X037736Y016853D01*
X037583Y016916D01*
X037717Y016860D02*
X038283Y016860D01*
X038264Y016853D02*
X038147Y016736D01*
X038084Y016583D01*
X038084Y016417D01*
X038147Y016264D01*
X038264Y016147D01*
X038417Y016084D01*
X038583Y016084D01*
X038736Y016147D01*
X038853Y016264D01*
X038916Y016417D01*
X038916Y016583D01*
X038853Y016736D01*
X038736Y016853D01*
X038583Y016916D01*
X038417Y016916D01*
X038264Y016853D01*
X038153Y016742D02*
X037847Y016742D01*
X037899Y016623D02*
X038101Y016623D01*
X038084Y016505D02*
X037916Y016505D01*
X037903Y016386D02*
X038097Y016386D01*
X038146Y016268D02*
X037854Y016268D01*
X037738Y016149D02*
X038262Y016149D01*
X038408Y015912D02*
X037592Y015912D01*
X037583Y015916D02*
X037417Y015916D01*
X037264Y015853D01*
X037147Y015736D01*
X037084Y015583D01*
X037084Y015417D01*
X037147Y015264D01*
X037264Y015147D01*
X037417Y015084D01*
X037583Y015084D01*
X037736Y015147D01*
X037853Y015264D01*
X037916Y015417D01*
X037916Y015583D01*
X037853Y015736D01*
X037736Y015853D01*
X037583Y015916D01*
X037408Y015912D02*
X035355Y015912D01*
X035405Y015794D02*
X037205Y015794D01*
X037122Y015675D02*
X035440Y015675D01*
X035440Y015557D02*
X037084Y015557D01*
X037084Y015438D02*
X035418Y015438D01*
X035369Y015320D02*
X037124Y015320D01*
X037210Y015201D02*
X035269Y015201D01*
X035079Y015083D02*
X040160Y015083D01*
X040160Y015201D02*
X038790Y015201D01*
X038736Y015147D02*
X038853Y015264D01*
X038916Y015417D01*
X038916Y015583D01*
X038853Y015736D01*
X038736Y015853D01*
X038583Y015916D01*
X038417Y015916D01*
X038264Y015853D01*
X038147Y015736D01*
X038084Y015583D01*
X038084Y015417D01*
X038147Y015264D01*
X038264Y015147D01*
X038417Y015084D01*
X038583Y015084D01*
X038736Y015147D01*
X038876Y015320D02*
X040160Y015320D01*
X040160Y015438D02*
X038916Y015438D01*
X038916Y015557D02*
X040160Y015557D01*
X040160Y015675D02*
X038878Y015675D01*
X038795Y015794D02*
X040160Y015794D01*
X040160Y015912D02*
X038592Y015912D01*
X038738Y016149D02*
X040160Y016149D01*
X040160Y016031D02*
X035236Y016031D01*
X035185Y016268D02*
X037146Y016268D01*
X037097Y016386D02*
X035313Y016386D01*
X035387Y016505D02*
X037084Y016505D01*
X037101Y016623D02*
X035436Y016623D01*
X035440Y016742D02*
X037153Y016742D01*
X037283Y016860D02*
X035435Y016860D01*
X035386Y016979D02*
X040160Y016979D01*
X040160Y017097D02*
X038616Y017097D01*
X038805Y017216D02*
X040160Y017216D01*
X040160Y017334D02*
X038882Y017334D01*
X038916Y017453D02*
X040160Y017453D01*
X040160Y017571D02*
X038916Y017571D01*
X038872Y017690D02*
X040160Y017690D01*
X040160Y017808D02*
X038780Y017808D01*
X038753Y018164D02*
X040160Y018164D01*
X040160Y018282D02*
X038860Y018282D01*
X038909Y018401D02*
X040160Y018401D01*
X040160Y018519D02*
X038916Y018519D01*
X038893Y018638D02*
X040160Y018638D01*
X040160Y018756D02*
X038832Y018756D01*
X040160Y018045D02*
X035412Y018045D01*
X035443Y017927D02*
X040160Y017927D01*
X040160Y016860D02*
X038717Y016860D01*
X038847Y016742D02*
X040160Y016742D01*
X040160Y016623D02*
X038899Y016623D01*
X038916Y016505D02*
X040160Y016505D01*
X040160Y016386D02*
X038903Y016386D01*
X038854Y016268D02*
X040160Y016268D01*
X038205Y015794D02*
X037795Y015794D01*
X037878Y015675D02*
X038122Y015675D01*
X038084Y015557D02*
X037916Y015557D01*
X037916Y015438D02*
X038084Y015438D01*
X038124Y015320D02*
X037876Y015320D01*
X037790Y015201D02*
X038210Y015201D01*
X038257Y014846D02*
X037743Y014846D01*
X037856Y014727D02*
X038144Y014727D01*
X038095Y014609D02*
X037905Y014609D01*
X037916Y014490D02*
X038084Y014490D01*
X038103Y014372D02*
X037897Y014372D01*
X037842Y014253D02*
X038158Y014253D01*
X038294Y014135D02*
X037706Y014135D01*
X034709Y014964D02*
X034400Y014964D01*
X034400Y014846D02*
X034516Y014846D01*
X034415Y014727D02*
X034400Y014727D01*
X034400Y015083D02*
X034700Y015083D01*
X034510Y015201D02*
X034400Y015201D01*
X034400Y015320D02*
X034410Y015320D01*
X034400Y015912D02*
X034424Y015912D01*
X034400Y016031D02*
X034543Y016031D01*
X034400Y016149D02*
X034779Y016149D01*
X034594Y016268D02*
X034400Y016268D01*
X034400Y016386D02*
X034466Y016386D01*
X035000Y016149D02*
X037262Y016149D01*
X037384Y017097D02*
X035311Y017097D01*
X035180Y017216D02*
X037195Y017216D01*
X037118Y017334D02*
X035059Y017334D01*
X035263Y017453D02*
X037084Y017453D01*
X037084Y017571D02*
X035368Y017571D01*
X035417Y017690D02*
X037128Y017690D01*
X037220Y017808D02*
X035443Y017808D01*
X035363Y018164D02*
X037247Y018164D01*
X037140Y018282D02*
X035249Y018282D01*
X035026Y018401D02*
X037091Y018401D01*
X037084Y018519D02*
X031483Y018519D01*
X031602Y018401D02*
X033759Y018401D01*
X033536Y018282D02*
X033214Y018282D01*
X033328Y018164D02*
X033423Y018164D01*
X032933Y018164D02*
X032853Y018164D01*
X032853Y018282D02*
X032933Y018282D01*
X032933Y018045D02*
X032853Y018045D01*
X032853Y017927D02*
X032933Y017927D01*
X032933Y017808D02*
X032853Y017808D01*
X032853Y017821D02*
X032853Y017331D01*
X032851Y017331D01*
X032769Y017344D01*
X032689Y017370D01*
X032615Y017408D01*
X032548Y017457D01*
X032489Y017516D01*
X032440Y017583D01*
X032402Y017658D01*
X032376Y017737D01*
X032363Y017819D01*
X032363Y017821D01*
X032853Y017821D01*
X032853Y017690D02*
X032933Y017690D01*
X032933Y017571D02*
X032853Y017571D01*
X032853Y017453D02*
X032933Y017453D01*
X032933Y017334D02*
X032853Y017334D01*
X032829Y017334D02*
X031785Y017334D01*
X031785Y017216D02*
X032654Y017216D01*
X032850Y017216D02*
X032930Y017216D01*
X032930Y017097D02*
X032850Y017097D01*
X032850Y016979D02*
X032930Y016979D01*
X032930Y016860D02*
X032850Y016860D01*
X032850Y016742D02*
X031785Y016742D01*
X031785Y016860D02*
X032372Y016860D01*
X032416Y016979D02*
X031785Y016979D01*
X031785Y017097D02*
X032497Y017097D01*
X032553Y017453D02*
X031785Y017453D01*
X031785Y017571D02*
X032448Y017571D01*
X032391Y017690D02*
X031785Y017690D01*
X031785Y017808D02*
X032365Y017808D01*
X032367Y017927D02*
X031785Y017927D01*
X031785Y018045D02*
X032395Y018045D01*
X032458Y018164D02*
X031784Y018164D01*
X031720Y018282D02*
X032571Y018282D01*
X033383Y017655D02*
X033383Y017655D01*
X033383Y017571D02*
X033338Y017571D01*
X033383Y017453D02*
X033233Y017453D01*
X033383Y017334D02*
X032956Y017334D01*
X033125Y017216D02*
X033383Y017216D01*
X033383Y017097D02*
X033283Y017097D01*
X033363Y016979D02*
X033383Y016979D01*
X032930Y016623D02*
X032850Y016623D01*
X032850Y016701D02*
X032850Y016211D01*
X032848Y016211D01*
X032765Y016224D01*
X032686Y016250D01*
X032612Y016288D01*
X032544Y016337D01*
X032485Y016396D01*
X032436Y016463D01*
X032398Y016538D01*
X032373Y016617D01*
X032360Y016699D01*
X032360Y016701D01*
X032850Y016701D01*
X032850Y016505D02*
X032930Y016505D01*
X032930Y016386D02*
X032850Y016386D01*
X032850Y016268D02*
X032930Y016268D01*
X033129Y016268D02*
X033380Y016268D01*
X033380Y016386D02*
X033285Y016386D01*
X033364Y016505D02*
X033380Y016505D01*
X033380Y016535D02*
X033380Y016535D01*
X033380Y016149D02*
X031755Y016149D01*
X031755Y016031D02*
X032581Y016031D01*
X032462Y015912D02*
X031755Y015912D01*
X031755Y015794D02*
X032395Y015794D01*
X032365Y015675D02*
X031755Y015675D01*
X031755Y015557D02*
X032360Y015557D01*
X032360Y015558D02*
X032373Y015476D01*
X032398Y015396D01*
X032436Y015322D01*
X032485Y015255D01*
X032544Y015196D01*
X032612Y015147D01*
X032686Y015109D01*
X032765Y015083D01*
X031755Y015083D01*
X031755Y015201D02*
X032538Y015201D01*
X032438Y015320D02*
X031755Y015320D01*
X031755Y015438D02*
X032385Y015438D01*
X032360Y015558D02*
X032360Y015560D01*
X032850Y015560D01*
X032850Y015070D01*
X032848Y015070D01*
X032765Y015083D01*
X032850Y015083D02*
X032930Y015083D01*
X033014Y015083D02*
X033093Y015109D01*
X033167Y015147D01*
X033235Y015196D01*
X033341Y015320D02*
X033380Y015320D01*
X033380Y015394D02*
X033380Y015394D01*
X032930Y015438D02*
X032850Y015438D01*
X032850Y015320D02*
X032930Y015320D01*
X032930Y015201D02*
X032850Y015201D01*
X032854Y014846D02*
X032934Y014846D01*
X032930Y015557D02*
X032850Y015557D01*
X032850Y015675D02*
X032930Y015675D01*
X032930Y015794D02*
X032850Y015794D01*
X032850Y015912D02*
X032930Y015912D01*
X032930Y016031D02*
X032850Y016031D01*
X032651Y016268D02*
X031755Y016268D01*
X031755Y016386D02*
X032495Y016386D01*
X032415Y016505D02*
X031755Y016505D01*
X031785Y016623D02*
X032372Y016623D01*
X031525Y016640D02*
X031495Y016610D01*
X030840Y016623D02*
X025399Y016623D01*
X025517Y016742D02*
X030840Y016742D01*
X030840Y016860D02*
X025636Y016860D01*
X025754Y016979D02*
X030840Y016979D01*
X030840Y017097D02*
X025873Y017097D01*
X025991Y017216D02*
X030840Y017216D01*
X030840Y017334D02*
X026110Y017334D01*
X026228Y017453D02*
X030840Y017453D01*
X030840Y017571D02*
X026347Y017571D01*
X026465Y017690D02*
X030840Y017690D01*
X030840Y017808D02*
X026584Y017808D01*
X026702Y017927D02*
X030840Y017927D01*
X030840Y018045D02*
X026821Y018045D01*
X026991Y018164D02*
X030748Y018164D01*
X030630Y018282D02*
X027128Y018282D01*
X027171Y018401D02*
X030511Y018401D01*
X030393Y018519D02*
X027168Y018519D01*
X027113Y018638D02*
X030310Y018638D01*
X030295Y018756D02*
X026937Y018756D01*
X026775Y018756D02*
X020389Y018756D01*
X020507Y018638D02*
X026600Y018638D01*
X026545Y018519D02*
X020626Y018519D01*
X020744Y018401D02*
X026441Y018401D01*
X026322Y018282D02*
X020863Y018282D01*
X020981Y018164D02*
X026204Y018164D01*
X026085Y018045D02*
X021100Y018045D01*
X021218Y017927D02*
X025967Y017927D01*
X025651Y019112D02*
X030295Y019112D01*
X030295Y019230D02*
X025819Y019230D01*
X025888Y019349D02*
X025893Y019349D01*
X025349Y019112D02*
X024651Y019112D01*
X024583Y019084D02*
X024736Y019147D01*
X024853Y019264D01*
X024916Y019417D01*
X024916Y019583D01*
X024853Y019736D01*
X024736Y019853D01*
X024583Y019916D01*
X024417Y019916D01*
X024264Y019853D01*
X024147Y019736D01*
X024084Y019583D01*
X024084Y019417D01*
X024147Y019264D01*
X024264Y019147D01*
X024417Y019084D01*
X024583Y019084D01*
X024349Y019112D02*
X023651Y019112D01*
X023583Y019084D02*
X023736Y019147D01*
X023853Y019264D01*
X023916Y019417D01*
X023916Y019583D01*
X023853Y019736D01*
X023736Y019853D01*
X023583Y019916D01*
X023417Y019916D01*
X023264Y019853D01*
X023147Y019736D01*
X023084Y019583D01*
X023084Y019417D01*
X023147Y019264D01*
X023264Y019147D01*
X023417Y019084D01*
X023583Y019084D01*
X023349Y019112D02*
X022651Y019112D01*
X022583Y019084D02*
X022736Y019147D01*
X022853Y019264D01*
X022916Y019417D01*
X022916Y019583D01*
X022853Y019736D01*
X022736Y019853D01*
X022583Y019916D01*
X022417Y019916D01*
X022264Y019853D01*
X022147Y019736D01*
X022084Y019583D01*
X022084Y019417D01*
X022147Y019264D01*
X022264Y019147D01*
X022417Y019084D01*
X022583Y019084D01*
X022349Y019112D02*
X021651Y019112D01*
X021583Y019084D02*
X021736Y019147D01*
X021853Y019264D01*
X021916Y019417D01*
X021916Y019583D01*
X021853Y019736D01*
X021736Y019853D01*
X021583Y019916D01*
X021417Y019916D01*
X021264Y019853D01*
X021147Y019736D01*
X021084Y019583D01*
X021084Y019417D01*
X021147Y019264D01*
X021264Y019147D01*
X021417Y019084D01*
X021583Y019084D01*
X021349Y019112D02*
X020651Y019112D01*
X020583Y019084D02*
X020736Y019147D01*
X020853Y019264D01*
X020916Y019417D01*
X020916Y019583D01*
X020853Y019736D01*
X020736Y019853D01*
X020583Y019916D01*
X020417Y019916D01*
X020264Y019853D01*
X020147Y019736D01*
X020084Y019583D01*
X020084Y019417D01*
X020147Y019264D01*
X020264Y019147D01*
X020417Y019084D01*
X020583Y019084D01*
X020349Y019112D02*
X019651Y019112D01*
X019583Y019084D02*
X019736Y019147D01*
X019853Y019264D01*
X019916Y019417D01*
X019916Y019583D01*
X019853Y019736D01*
X019736Y019853D01*
X019583Y019916D01*
X019417Y019916D01*
X019264Y019853D01*
X019147Y019736D01*
X019084Y019583D01*
X019084Y019417D01*
X019147Y019264D01*
X019264Y019147D01*
X019417Y019084D01*
X019583Y019084D01*
X019349Y019112D02*
X018651Y019112D01*
X018583Y019084D02*
X018736Y019147D01*
X018853Y019264D01*
X018916Y019417D01*
X018916Y019583D01*
X018853Y019736D01*
X018736Y019853D01*
X018583Y019916D01*
X018417Y019916D01*
X018264Y019853D01*
X018147Y019736D01*
X018084Y019583D01*
X018084Y019417D01*
X018147Y019264D01*
X018264Y019147D01*
X018417Y019084D01*
X018583Y019084D01*
X018349Y019112D02*
X017151Y019112D01*
X017083Y019084D02*
X017236Y019147D01*
X017353Y019264D01*
X017416Y019417D01*
X017416Y019583D01*
X017353Y019736D01*
X017236Y019853D01*
X017083Y019916D01*
X016917Y019916D01*
X016764Y019853D01*
X016647Y019736D01*
X016584Y019583D01*
X016584Y019417D01*
X016647Y019264D01*
X016764Y019147D01*
X016917Y019084D01*
X017083Y019084D01*
X016849Y019112D02*
X016151Y019112D01*
X016083Y019084D02*
X016236Y019147D01*
X016353Y019264D01*
X016416Y019417D01*
X016416Y019583D01*
X016353Y019736D01*
X016236Y019853D01*
X016083Y019916D01*
X015917Y019916D01*
X015764Y019853D01*
X015647Y019736D01*
X015584Y019583D01*
X015584Y019417D01*
X015647Y019264D01*
X015764Y019147D01*
X015917Y019084D01*
X016083Y019084D01*
X015849Y019112D02*
X015151Y019112D01*
X015083Y019084D02*
X015236Y019147D01*
X015353Y019264D01*
X015416Y019417D01*
X015416Y019583D01*
X015353Y019736D01*
X015236Y019853D01*
X015083Y019916D01*
X014917Y019916D01*
X014764Y019853D01*
X014647Y019736D01*
X014584Y019583D01*
X014584Y019417D01*
X014647Y019264D01*
X014764Y019147D01*
X014917Y019084D01*
X015083Y019084D01*
X014849Y019112D02*
X014151Y019112D01*
X014319Y019230D02*
X014681Y019230D01*
X014612Y019349D02*
X014388Y019349D01*
X014416Y019467D02*
X014584Y019467D01*
X014585Y019586D02*
X014415Y019586D01*
X014366Y019704D02*
X014634Y019704D01*
X014734Y019823D02*
X014266Y019823D01*
X014083Y020084D02*
X013917Y020084D01*
X013764Y020147D01*
X013647Y020264D01*
X013584Y020417D01*
X013584Y020583D01*
X013647Y020736D01*
X013764Y020853D01*
X013917Y020916D01*
X014083Y020916D01*
X014236Y020853D01*
X014353Y020736D01*
X014416Y020583D01*
X014416Y020417D01*
X014353Y020264D01*
X014236Y020147D01*
X014083Y020084D01*
X014267Y020178D02*
X014733Y020178D01*
X014764Y020147D02*
X014917Y020084D01*
X015083Y020084D01*
X015236Y020147D01*
X015353Y020264D01*
X015416Y020417D01*
X015416Y020583D01*
X015353Y020736D01*
X015236Y020853D01*
X015083Y020916D01*
X014917Y020916D01*
X014764Y020853D01*
X014647Y020736D01*
X014584Y020583D01*
X014584Y020417D01*
X014647Y020264D01*
X014764Y020147D01*
X014634Y020297D02*
X014366Y020297D01*
X014415Y020415D02*
X014585Y020415D01*
X014584Y020534D02*
X014416Y020534D01*
X014387Y020652D02*
X014613Y020652D01*
X014682Y020771D02*
X014318Y020771D01*
X014147Y020889D02*
X014853Y020889D01*
X015147Y020889D02*
X015853Y020889D01*
X015917Y020916D02*
X015764Y020853D01*
X015647Y020736D01*
X015584Y020583D01*
X015584Y020417D01*
X015647Y020264D01*
X015764Y020147D01*
X015917Y020084D01*
X016083Y020084D01*
X016236Y020147D01*
X016353Y020264D01*
X016416Y020417D01*
X016416Y020583D01*
X016353Y020736D01*
X016236Y020853D01*
X016083Y020916D01*
X015917Y020916D01*
X016147Y020889D02*
X016853Y020889D01*
X016917Y020916D02*
X016764Y020853D01*
X016647Y020736D01*
X016584Y020583D01*
X016584Y020417D01*
X016647Y020264D01*
X016764Y020147D01*
X016917Y020084D01*
X017083Y020084D01*
X017236Y020147D01*
X017353Y020264D01*
X017416Y020417D01*
X017416Y020583D01*
X017353Y020736D01*
X017236Y020853D01*
X017083Y020916D01*
X016917Y020916D01*
X017147Y020889D02*
X018353Y020889D01*
X018417Y020916D02*
X018264Y020853D01*
X018147Y020736D01*
X018084Y020583D01*
X018084Y020417D01*
X018147Y020264D01*
X018264Y020147D01*
X018417Y020084D01*
X018583Y020084D01*
X018736Y020147D01*
X018853Y020264D01*
X018916Y020417D01*
X018916Y020583D01*
X018853Y020736D01*
X018736Y020853D01*
X018583Y020916D01*
X018417Y020916D01*
X018647Y020889D02*
X019353Y020889D01*
X019417Y020916D02*
X019264Y020853D01*
X019147Y020736D01*
X019084Y020583D01*
X019084Y020417D01*
X019147Y020264D01*
X019264Y020147D01*
X019417Y020084D01*
X019583Y020084D01*
X019736Y020147D01*
X019853Y020264D01*
X019916Y020417D01*
X019916Y020583D01*
X019853Y020736D01*
X019736Y020853D01*
X019583Y020916D01*
X019417Y020916D01*
X019647Y020889D02*
X020353Y020889D01*
X020417Y020916D02*
X020264Y020853D01*
X020147Y020736D01*
X020084Y020583D01*
X020084Y020417D01*
X020147Y020264D01*
X020264Y020147D01*
X020417Y020084D01*
X020583Y020084D01*
X020736Y020147D01*
X020853Y020264D01*
X020916Y020417D01*
X020916Y020583D01*
X020853Y020736D01*
X020736Y020853D01*
X020583Y020916D01*
X020417Y020916D01*
X020647Y020889D02*
X021353Y020889D01*
X021417Y020916D02*
X021264Y020853D01*
X021147Y020736D01*
X021084Y020583D01*
X021084Y020417D01*
X021147Y020264D01*
X021264Y020147D01*
X021417Y020084D01*
X021583Y020084D01*
X021736Y020147D01*
X021853Y020264D01*
X021916Y020417D01*
X021916Y020583D01*
X021853Y020736D01*
X021736Y020853D01*
X021583Y020916D01*
X021417Y020916D01*
X021647Y020889D02*
X022353Y020889D01*
X022417Y020916D02*
X022264Y020853D01*
X022147Y020736D01*
X022084Y020583D01*
X022084Y020417D01*
X022147Y020264D01*
X022264Y020147D01*
X022417Y020084D01*
X022583Y020084D01*
X022736Y020147D01*
X022853Y020264D01*
X022916Y020417D01*
X022916Y020583D01*
X022853Y020736D01*
X022736Y020853D01*
X022583Y020916D01*
X022417Y020916D01*
X022647Y020889D02*
X023353Y020889D01*
X023417Y020916D02*
X023264Y020853D01*
X023147Y020736D01*
X023084Y020583D01*
X023084Y020417D01*
X023147Y020264D01*
X023264Y020147D01*
X023417Y020084D01*
X023583Y020084D01*
X023736Y020147D01*
X023853Y020264D01*
X023916Y020417D01*
X023916Y020583D01*
X023853Y020736D01*
X023736Y020853D01*
X023583Y020916D01*
X023417Y020916D01*
X023647Y020889D02*
X024353Y020889D01*
X024182Y020771D02*
X023818Y020771D01*
X023887Y020652D02*
X024113Y020652D01*
X024084Y020534D02*
X023916Y020534D01*
X023915Y020415D02*
X024085Y020415D01*
X024134Y020297D02*
X023866Y020297D01*
X023767Y020178D02*
X024233Y020178D01*
X024572Y020060D02*
X012779Y020060D01*
X012733Y020178D02*
X012725Y020178D01*
X012898Y019941D02*
X024691Y019941D01*
X024766Y019823D02*
X024809Y019823D01*
X024866Y019704D02*
X025134Y019704D01*
X025085Y019586D02*
X024915Y019586D01*
X024916Y019467D02*
X025084Y019467D01*
X025112Y019349D02*
X024888Y019349D01*
X024819Y019230D02*
X025181Y019230D01*
X024234Y019823D02*
X023766Y019823D01*
X023866Y019704D02*
X024134Y019704D01*
X024085Y019586D02*
X023915Y019586D01*
X023916Y019467D02*
X024084Y019467D01*
X024112Y019349D02*
X023888Y019349D01*
X023819Y019230D02*
X024181Y019230D01*
X023181Y019230D02*
X022819Y019230D01*
X022888Y019349D02*
X023112Y019349D01*
X023084Y019467D02*
X022916Y019467D01*
X022915Y019586D02*
X023085Y019586D01*
X023134Y019704D02*
X022866Y019704D01*
X022766Y019823D02*
X023234Y019823D01*
X023233Y020178D02*
X022767Y020178D01*
X022866Y020297D02*
X023134Y020297D01*
X023085Y020415D02*
X022915Y020415D01*
X022916Y020534D02*
X023084Y020534D01*
X023113Y020652D02*
X022887Y020652D01*
X022818Y020771D02*
X023182Y020771D01*
X022182Y020771D02*
X021818Y020771D01*
X021887Y020652D02*
X022113Y020652D01*
X022084Y020534D02*
X021916Y020534D01*
X021915Y020415D02*
X022085Y020415D01*
X022134Y020297D02*
X021866Y020297D01*
X021767Y020178D02*
X022233Y020178D01*
X022234Y019823D02*
X021766Y019823D01*
X021866Y019704D02*
X022134Y019704D01*
X022085Y019586D02*
X021915Y019586D01*
X021916Y019467D02*
X022084Y019467D01*
X022112Y019349D02*
X021888Y019349D01*
X021819Y019230D02*
X022181Y019230D01*
X021181Y019230D02*
X020819Y019230D01*
X020888Y019349D02*
X021112Y019349D01*
X021084Y019467D02*
X020916Y019467D01*
X020915Y019586D02*
X021085Y019586D01*
X021134Y019704D02*
X020866Y019704D01*
X020766Y019823D02*
X021234Y019823D01*
X021233Y020178D02*
X020767Y020178D01*
X020866Y020297D02*
X021134Y020297D01*
X021085Y020415D02*
X020915Y020415D01*
X020916Y020534D02*
X021084Y020534D01*
X021113Y020652D02*
X020887Y020652D01*
X020818Y020771D02*
X021182Y020771D01*
X020182Y020771D02*
X019818Y020771D01*
X019887Y020652D02*
X020113Y020652D01*
X020084Y020534D02*
X019916Y020534D01*
X019915Y020415D02*
X020085Y020415D01*
X020134Y020297D02*
X019866Y020297D01*
X019767Y020178D02*
X020233Y020178D01*
X020234Y019823D02*
X019766Y019823D01*
X019866Y019704D02*
X020134Y019704D01*
X020085Y019586D02*
X019915Y019586D01*
X019916Y019467D02*
X020084Y019467D01*
X020112Y019349D02*
X019888Y019349D01*
X019819Y019230D02*
X020181Y019230D01*
X020270Y018875D02*
X030295Y018875D01*
X030295Y018993D02*
X019112Y018993D01*
X018870Y018993D02*
X013833Y018993D01*
X013714Y018875D02*
X014378Y018875D01*
X015319Y019230D02*
X015681Y019230D01*
X015612Y019349D02*
X015388Y019349D01*
X015416Y019467D02*
X015584Y019467D01*
X015585Y019586D02*
X015415Y019586D01*
X015366Y019704D02*
X015634Y019704D01*
X015734Y019823D02*
X015266Y019823D01*
X015267Y020178D02*
X015733Y020178D01*
X015634Y020297D02*
X015366Y020297D01*
X015415Y020415D02*
X015585Y020415D01*
X015584Y020534D02*
X015416Y020534D01*
X015387Y020652D02*
X015613Y020652D01*
X015682Y020771D02*
X015318Y020771D01*
X016318Y020771D02*
X016682Y020771D01*
X016613Y020652D02*
X016387Y020652D01*
X016416Y020534D02*
X016584Y020534D01*
X016585Y020415D02*
X016415Y020415D01*
X016366Y020297D02*
X016634Y020297D01*
X016733Y020178D02*
X016267Y020178D01*
X016266Y019823D02*
X016734Y019823D01*
X016634Y019704D02*
X016366Y019704D01*
X016415Y019586D02*
X016585Y019586D01*
X016584Y019467D02*
X016416Y019467D01*
X016388Y019349D02*
X016612Y019349D01*
X016681Y019230D02*
X016319Y019230D01*
X017319Y019230D02*
X018181Y019230D01*
X018112Y019349D02*
X017388Y019349D01*
X017416Y019467D02*
X018084Y019467D01*
X018085Y019586D02*
X017415Y019586D01*
X017366Y019704D02*
X018134Y019704D01*
X018234Y019823D02*
X017266Y019823D01*
X017267Y020178D02*
X018233Y020178D01*
X018134Y020297D02*
X017366Y020297D01*
X017415Y020415D02*
X018085Y020415D01*
X018084Y020534D02*
X017416Y020534D01*
X017387Y020652D02*
X018113Y020652D01*
X018182Y020771D02*
X017318Y020771D01*
X018818Y020771D02*
X019182Y020771D01*
X019113Y020652D02*
X018887Y020652D01*
X018916Y020534D02*
X019084Y020534D01*
X019085Y020415D02*
X018915Y020415D01*
X018866Y020297D02*
X019134Y020297D01*
X019233Y020178D02*
X018767Y020178D01*
X018766Y019823D02*
X019234Y019823D01*
X019134Y019704D02*
X018866Y019704D01*
X018915Y019586D02*
X019085Y019586D01*
X019084Y019467D02*
X018916Y019467D01*
X018888Y019349D02*
X019112Y019349D01*
X019181Y019230D02*
X018819Y019230D01*
X016470Y017350D02*
X016040Y016920D01*
X016040Y014490D01*
X020046Y014846D02*
X020713Y014846D01*
X020628Y014964D02*
X020150Y014964D01*
X020280Y015083D02*
X020587Y015083D01*
X020587Y015201D02*
X020462Y015201D01*
X020519Y015320D02*
X020621Y015320D01*
X020696Y015438D02*
X020524Y015438D01*
X020483Y015557D02*
X020874Y015557D01*
X021160Y015557D02*
X021661Y015557D01*
X021484Y015438D02*
X021337Y015438D01*
X021947Y015557D02*
X022449Y015557D01*
X022271Y015438D02*
X022124Y015438D01*
X022192Y014964D02*
X022203Y014964D01*
X022288Y014846D02*
X022107Y014846D01*
X021501Y014846D02*
X021320Y014846D01*
X021405Y014964D02*
X021416Y014964D01*
X022734Y015557D02*
X023236Y015557D01*
X023059Y015438D02*
X022912Y015438D01*
X022980Y014964D02*
X022991Y014964D01*
X023076Y014846D02*
X022895Y014846D01*
X023682Y014846D02*
X023863Y014846D01*
X023778Y014964D02*
X023767Y014964D01*
X023699Y015438D02*
X023846Y015438D01*
X024023Y015557D02*
X023522Y015557D01*
X024806Y016031D02*
X030845Y016031D01*
X030842Y016149D02*
X024925Y016149D01*
X025043Y016268D02*
X030840Y016268D01*
X030840Y016386D02*
X025162Y016386D01*
X025280Y016505D02*
X030840Y016505D01*
X033198Y016031D02*
X033380Y016031D01*
X033380Y015912D02*
X033318Y015912D01*
X034403Y017097D02*
X034468Y017097D01*
X034403Y017216D02*
X034599Y017216D01*
X034727Y017334D02*
X034403Y017334D01*
X034403Y017453D02*
X034523Y017453D01*
X034417Y017571D02*
X034403Y017571D01*
X034423Y018164D02*
X034363Y018164D01*
X034249Y018282D02*
X034536Y018282D01*
X034759Y018401D02*
X034026Y018401D01*
X031365Y018638D02*
X037107Y018638D01*
X037168Y018756D02*
X031246Y018756D01*
X031128Y018875D02*
X037318Y018875D01*
X030233Y020178D02*
X029767Y020178D01*
X029866Y020297D02*
X030134Y020297D01*
X030085Y020415D02*
X029915Y020415D01*
X029916Y020534D02*
X030084Y020534D01*
X030113Y020652D02*
X029887Y020652D01*
X029818Y020771D02*
X030182Y020771D01*
X030353Y020889D02*
X029647Y020889D01*
X029353Y020889D02*
X028647Y020889D01*
X028818Y020771D02*
X029182Y020771D01*
X029113Y020652D02*
X028887Y020652D01*
X028916Y020534D02*
X029084Y020534D01*
X029085Y020415D02*
X028915Y020415D01*
X028866Y020297D02*
X029134Y020297D01*
X029233Y020178D02*
X028767Y020178D01*
X028233Y020178D02*
X027767Y020178D01*
X027866Y020297D02*
X028134Y020297D01*
X028085Y020415D02*
X027915Y020415D01*
X027916Y020534D02*
X028084Y020534D01*
X028113Y020652D02*
X027887Y020652D01*
X027818Y020771D02*
X028182Y020771D01*
X028353Y020889D02*
X027647Y020889D01*
X027353Y020889D02*
X025647Y020889D01*
X025818Y020771D02*
X027182Y020771D01*
X027113Y020652D02*
X025887Y020652D01*
X025916Y020534D02*
X027084Y020534D01*
X027085Y020415D02*
X025952Y020415D01*
X026071Y020297D02*
X027134Y020297D01*
X027233Y020178D02*
X026189Y020178D01*
X025134Y020297D02*
X025071Y020297D01*
X025085Y020415D02*
X024952Y020415D01*
X024916Y020534D02*
X025084Y020534D01*
X025113Y020652D02*
X024887Y020652D01*
X024818Y020771D02*
X025182Y020771D01*
X025353Y020889D02*
X024647Y020889D01*
X024900Y016860D02*
X023855Y016860D01*
X023875Y016742D02*
X024782Y016742D01*
X024663Y016623D02*
X023848Y016623D01*
X023760Y016505D02*
X024545Y016505D01*
X017276Y016623D02*
X017196Y016623D01*
X017196Y016742D02*
X017276Y016742D01*
X017276Y016860D02*
X017196Y016860D01*
X016876Y016860D02*
X016320Y016860D01*
X016280Y016742D02*
X016779Y016742D01*
X016728Y016623D02*
X016280Y016623D01*
X013391Y019230D02*
X013319Y019230D01*
X013267Y020178D02*
X013733Y020178D01*
X013634Y020297D02*
X013366Y020297D01*
X013415Y020415D02*
X013585Y020415D01*
X013584Y020534D02*
X013416Y020534D01*
X013387Y020652D02*
X013613Y020652D01*
X013682Y020771D02*
X013318Y020771D01*
X013147Y020889D02*
X013853Y020889D01*
X012853Y020889D02*
X012651Y020889D01*
X006989Y019586D02*
X000710Y019586D01*
X000710Y016860D02*
X002695Y016860D01*
X002695Y016742D02*
X000710Y016742D01*
X000710Y016623D02*
X002695Y016623D01*
X002695Y016505D02*
X000710Y016505D01*
X000710Y016386D02*
X002582Y016386D01*
X002464Y016268D02*
X000710Y016268D01*
X000710Y016149D02*
X002345Y016149D01*
X002227Y016031D02*
X000710Y016031D01*
X000710Y015912D02*
X002108Y015912D01*
X001990Y015794D02*
X000710Y015794D01*
X000710Y015675D02*
X001871Y015675D01*
X001753Y015557D02*
X000710Y015557D01*
X000710Y015438D02*
X001634Y015438D01*
X001516Y015320D02*
X000710Y015320D01*
X000710Y015201D02*
X001397Y015201D01*
X001279Y015083D02*
X000710Y015083D01*
X000710Y014964D02*
X001160Y014964D01*
X001042Y014846D02*
X000710Y014846D01*
X000710Y014727D02*
X000960Y014727D01*
X000950Y014609D02*
X000710Y014609D01*
X000710Y014490D02*
X000950Y014490D01*
X000950Y014372D02*
X000710Y014372D01*
X000710Y014253D02*
X000950Y014253D01*
X000950Y014135D02*
X000710Y014135D01*
X000710Y014016D02*
X000950Y014016D01*
X000950Y013898D02*
X000710Y013898D01*
X000710Y013779D02*
X000950Y013779D01*
X000950Y013661D02*
X000710Y013661D01*
X000710Y013542D02*
X000950Y013542D01*
X000966Y013424D02*
X000710Y013424D01*
X000710Y013305D02*
X001055Y013305D01*
X001174Y013187D02*
X000710Y013187D01*
X000710Y013068D02*
X001292Y013068D01*
X001411Y012950D02*
X000710Y012950D01*
X000710Y012831D02*
X001579Y012831D01*
X001788Y012713D02*
X000710Y012713D01*
X000710Y012594D02*
X002920Y012594D01*
X002920Y012476D02*
X000710Y012476D01*
X000710Y012357D02*
X001788Y012357D01*
X001690Y012239D02*
X000710Y012239D01*
X000710Y012120D02*
X001641Y012120D01*
X001640Y012002D02*
X000710Y012002D01*
X000710Y011883D02*
X001668Y011883D01*
X001736Y011765D02*
X000710Y011765D01*
X000710Y011646D02*
X001901Y011646D01*
X002300Y012035D02*
X002855Y012035D01*
X002854Y012357D02*
X002812Y012357D01*
X002812Y012713D02*
X002920Y012713D01*
X002910Y012831D02*
X002920Y012831D01*
X002300Y013035D02*
X002300Y013070D01*
X001630Y013070D01*
X001190Y013510D01*
X001190Y014655D01*
X002935Y016400D01*
X005542Y016268D02*
X005980Y016268D01*
X005980Y016386D02*
X005661Y016386D01*
X005779Y016505D02*
X005980Y016505D01*
X005980Y016623D02*
X005898Y016623D01*
X005980Y016149D02*
X005540Y016149D01*
X005540Y016031D02*
X005980Y016031D01*
X005980Y015912D02*
X005540Y015912D01*
X005540Y015794D02*
X005980Y015794D01*
X005980Y015675D02*
X005540Y015675D01*
X005540Y015557D02*
X005980Y015557D01*
X005980Y015438D02*
X005540Y015438D01*
X005540Y015320D02*
X005980Y015320D01*
X005980Y015201D02*
X005540Y015201D01*
X005540Y015083D02*
X005980Y015083D01*
X005980Y014964D02*
X005540Y014964D01*
X005540Y014846D02*
X005980Y014846D01*
X005980Y014727D02*
X005540Y014727D01*
X005540Y014609D02*
X005980Y014609D01*
X005320Y012357D02*
X005280Y012357D01*
X005280Y012239D02*
X005320Y012239D01*
X005320Y012120D02*
X005280Y012120D01*
X005280Y012002D02*
X005320Y012002D01*
X005320Y011883D02*
X005280Y011883D01*
X005280Y011765D02*
X005320Y011765D01*
X005320Y011646D02*
X005280Y011646D01*
X005734Y011409D02*
X007513Y011409D01*
X007631Y011291D02*
X005878Y011291D01*
X005938Y011172D02*
X007485Y011172D01*
X007403Y011054D02*
X005960Y011054D01*
X005953Y010935D02*
X007354Y010935D01*
X007345Y010817D02*
X006050Y010817D01*
X006182Y010698D02*
X007345Y010698D01*
X007393Y010580D02*
X006554Y010580D01*
X006721Y010461D02*
X007461Y010461D01*
X007579Y010343D02*
X006779Y010343D01*
X006788Y010224D02*
X007537Y010224D01*
X007424Y010106D02*
X006757Y010106D01*
X006700Y009987D02*
X007375Y009987D01*
X007345Y009869D02*
X006700Y009869D01*
X006700Y009750D02*
X007345Y009750D01*
X007371Y009632D02*
X006700Y009632D01*
X006700Y009513D02*
X007420Y009513D01*
X007527Y009395D02*
X006700Y009395D01*
X006700Y009276D02*
X007596Y009276D01*
X007470Y009158D02*
X006700Y009158D01*
X006700Y009039D02*
X007397Y009039D01*
X007348Y008921D02*
X006700Y008921D01*
X006700Y008802D02*
X007345Y008802D01*
X007350Y008684D02*
X006700Y008684D01*
X006700Y008565D02*
X007399Y008565D01*
X007475Y008447D02*
X006811Y008447D01*
X006761Y007854D02*
X010123Y007854D01*
X010241Y007736D02*
X006851Y007736D01*
X006942Y007617D02*
X010360Y007617D01*
X010478Y007499D02*
X007032Y007499D01*
X007123Y007380D02*
X010597Y007380D01*
X010707Y007262D02*
X007214Y007262D01*
X007304Y007143D02*
X010709Y007143D01*
X010714Y007025D02*
X007395Y007025D01*
X007485Y006906D02*
X010713Y006906D01*
X010712Y006788D02*
X007576Y006788D01*
X007667Y006669D02*
X010712Y006669D01*
X010711Y006551D02*
X007757Y006551D01*
X007848Y006432D02*
X010710Y006432D01*
X010710Y006314D02*
X007938Y006314D01*
X008029Y006195D02*
X010709Y006195D01*
X010708Y006077D02*
X008120Y006077D01*
X008210Y005958D02*
X010708Y005958D01*
X010707Y005840D02*
X008301Y005840D01*
X008391Y005721D02*
X010706Y005721D01*
X010706Y005603D02*
X008482Y005603D01*
X008573Y005484D02*
X010705Y005484D01*
X010705Y005366D02*
X008663Y005366D01*
X008754Y005247D02*
X010704Y005247D01*
X010703Y005129D02*
X008844Y005129D01*
X008935Y005010D02*
X010703Y005010D01*
X010702Y004892D02*
X009026Y004892D01*
X009116Y004773D02*
X010701Y004773D01*
X010701Y004655D02*
X009207Y004655D01*
X009240Y004536D02*
X010700Y004536D01*
X010720Y004418D02*
X009243Y004418D01*
X009250Y004299D02*
X010795Y004299D01*
X010913Y004181D02*
X009256Y004181D01*
X009263Y004062D02*
X011045Y004062D01*
X010104Y003944D02*
X009270Y003944D01*
X009311Y003825D02*
X009985Y003825D01*
X009867Y003707D02*
X009338Y003707D01*
X009319Y003588D02*
X009748Y003588D01*
X009630Y003470D02*
X009242Y003470D01*
X009393Y003233D02*
X005187Y003233D01*
X005068Y003351D02*
X009511Y003351D01*
X009274Y003114D02*
X005305Y003114D01*
X005424Y002996D02*
X009156Y002996D01*
X009037Y002877D02*
X005542Y002877D01*
X005661Y002759D02*
X008919Y002759D01*
X009417Y002522D02*
X011571Y002522D01*
X011462Y002640D02*
X009535Y002640D01*
X009654Y002759D02*
X011425Y002759D01*
X011434Y002877D02*
X009772Y002877D01*
X009891Y002996D02*
X011497Y002996D01*
X011908Y002522D02*
X012260Y002522D01*
X013273Y002996D02*
X016891Y002996D01*
X016773Y003114D02*
X010009Y003114D01*
X010128Y003233D02*
X016654Y003233D01*
X016536Y003351D02*
X010246Y003351D01*
X010365Y003470D02*
X016417Y003470D01*
X016461Y001896D02*
X016384Y001881D01*
X016312Y001851D01*
X016247Y001808D01*
X016192Y001753D01*
X016149Y001688D01*
X016119Y001616D01*
X016104Y001539D01*
X016104Y001519D01*
X016481Y001519D01*
X016481Y001896D01*
X016461Y001896D01*
X016519Y001896D02*
X016539Y001896D01*
X016616Y001881D01*
X016688Y001851D01*
X016753Y001808D01*
X016808Y001753D01*
X016851Y001688D01*
X016881Y001616D01*
X016896Y001539D01*
X016896Y001519D01*
X016519Y001519D01*
X016519Y001481D01*
X016896Y001481D01*
X016896Y001461D01*
X016881Y001384D01*
X016851Y001312D01*
X016808Y001247D01*
X016753Y001192D01*
X016688Y001149D01*
X016616Y001119D01*
X016539Y001104D01*
X016519Y001104D01*
X016519Y001481D01*
X016481Y001481D01*
X016481Y001104D01*
X016461Y001104D01*
X016384Y001119D01*
X016312Y001149D01*
X016247Y001192D01*
X016192Y001247D01*
X016149Y001312D01*
X016119Y001384D01*
X016104Y001461D01*
X016104Y001481D01*
X016481Y001481D01*
X016481Y001519D01*
X016519Y001519D01*
X016519Y001896D01*
X016519Y001811D02*
X016481Y001811D01*
X016481Y001692D02*
X016519Y001692D01*
X016519Y001574D02*
X016481Y001574D01*
X016481Y001455D02*
X016519Y001455D01*
X016519Y001337D02*
X016481Y001337D01*
X016481Y001218D02*
X016519Y001218D01*
X016779Y001218D02*
X017221Y001218D01*
X017247Y001192D02*
X017192Y001247D01*
X017149Y001312D01*
X017119Y001384D01*
X017104Y001461D01*
X017104Y001481D01*
X017481Y001481D01*
X017519Y001481D01*
X017519Y001519D01*
X017896Y001519D01*
X017896Y001539D01*
X017881Y001616D01*
X017851Y001688D01*
X017808Y001753D01*
X017753Y001808D01*
X017688Y001851D01*
X017616Y001881D01*
X017539Y001896D01*
X017519Y001896D01*
X017519Y001519D01*
X017481Y001519D01*
X017481Y001896D01*
X017461Y001896D01*
X017384Y001881D01*
X017312Y001851D01*
X017247Y001808D01*
X017192Y001753D01*
X017149Y001688D01*
X017119Y001616D01*
X017104Y001539D01*
X017104Y001519D01*
X017481Y001519D01*
X017481Y001481D01*
X017481Y001104D01*
X017461Y001104D01*
X017384Y001119D01*
X017312Y001149D01*
X017247Y001192D01*
X017139Y001337D02*
X016861Y001337D01*
X016895Y001455D02*
X017105Y001455D01*
X017111Y001574D02*
X016889Y001574D01*
X016848Y001692D02*
X017152Y001692D01*
X017252Y001811D02*
X016748Y001811D01*
X016252Y001811D02*
X015778Y001811D01*
X015871Y001692D02*
X016152Y001692D01*
X016111Y001574D02*
X015916Y001574D01*
X015916Y001455D02*
X016105Y001455D01*
X016139Y001337D02*
X015883Y001337D01*
X015807Y001218D02*
X016221Y001218D01*
X015193Y001218D02*
X014807Y001218D01*
X014883Y001337D02*
X015117Y001337D01*
X015084Y001455D02*
X014916Y001455D01*
X014916Y001574D02*
X015084Y001574D01*
X015129Y001692D02*
X014871Y001692D01*
X014778Y001811D02*
X015222Y001811D01*
X014222Y001811D02*
X013778Y001811D01*
X013871Y001692D02*
X014129Y001692D01*
X014084Y001574D02*
X013916Y001574D01*
X013916Y001455D02*
X014084Y001455D01*
X014117Y001337D02*
X013883Y001337D01*
X013807Y001218D02*
X014193Y001218D01*
X017481Y001218D02*
X017519Y001218D01*
X017519Y001104D02*
X017539Y001104D01*
X017616Y001119D01*
X017688Y001149D01*
X017753Y001192D01*
X017808Y001247D01*
X017851Y001312D01*
X017881Y001384D01*
X017896Y001461D01*
X017896Y001481D01*
X017519Y001481D01*
X017519Y001104D01*
X017519Y001337D02*
X017481Y001337D01*
X017481Y001455D02*
X017519Y001455D01*
X017519Y001574D02*
X017481Y001574D01*
X017481Y001692D02*
X017519Y001692D01*
X017519Y001811D02*
X017481Y001811D01*
X017748Y001811D02*
X018222Y001811D01*
X018129Y001692D02*
X017848Y001692D01*
X017889Y001574D02*
X018084Y001574D01*
X018084Y001455D02*
X017895Y001455D01*
X017861Y001337D02*
X018117Y001337D01*
X018193Y001218D02*
X017779Y001218D01*
X018807Y001218D02*
X020193Y001218D01*
X020117Y001337D02*
X018883Y001337D01*
X018916Y001455D02*
X020084Y001455D01*
X020084Y001574D02*
X018916Y001574D01*
X018871Y001692D02*
X020129Y001692D01*
X020222Y001811D02*
X018778Y001811D01*
X020778Y001811D02*
X021222Y001811D01*
X021129Y001692D02*
X020871Y001692D01*
X020916Y001574D02*
X021084Y001574D01*
X021084Y001455D02*
X020916Y001455D01*
X020883Y001337D02*
X021117Y001337D01*
X021193Y001218D02*
X020807Y001218D01*
X021807Y001218D02*
X022193Y001218D01*
X022117Y001337D02*
X021883Y001337D01*
X021916Y001455D02*
X022084Y001455D01*
X022084Y001574D02*
X021916Y001574D01*
X021871Y001692D02*
X022129Y001692D01*
X022222Y001811D02*
X021778Y001811D01*
X022778Y001811D02*
X023222Y001811D01*
X023129Y001692D02*
X022871Y001692D01*
X022916Y001574D02*
X023084Y001574D01*
X023084Y001455D02*
X022916Y001455D01*
X022883Y001337D02*
X023117Y001337D01*
X023193Y001218D02*
X022807Y001218D01*
X023807Y001218D02*
X024193Y001218D01*
X024117Y001337D02*
X023883Y001337D01*
X023916Y001455D02*
X024084Y001455D01*
X024084Y001574D02*
X023916Y001574D01*
X023871Y001692D02*
X024129Y001692D01*
X024222Y001811D02*
X023778Y001811D01*
X024778Y001811D02*
X025222Y001811D01*
X025129Y001692D02*
X024871Y001692D01*
X024916Y001574D02*
X025084Y001574D01*
X025084Y001455D02*
X024916Y001455D01*
X024883Y001337D02*
X025117Y001337D01*
X025193Y001218D02*
X024807Y001218D01*
X025807Y001218D02*
X026193Y001218D01*
X026117Y001337D02*
X025883Y001337D01*
X025916Y001455D02*
X026084Y001455D01*
X026084Y001574D02*
X025916Y001574D01*
X025871Y001692D02*
X026129Y001692D01*
X026222Y001811D02*
X025778Y001811D01*
X026778Y001811D02*
X027222Y001811D01*
X027129Y001692D02*
X026871Y001692D01*
X026916Y001574D02*
X027084Y001574D01*
X027084Y001455D02*
X026916Y001455D01*
X026883Y001337D02*
X027117Y001337D01*
X027193Y001218D02*
X026807Y001218D01*
X027807Y001218D02*
X029193Y001218D01*
X029117Y001337D02*
X027883Y001337D01*
X027916Y001455D02*
X029084Y001455D01*
X029084Y001574D02*
X027916Y001574D01*
X027871Y001692D02*
X029129Y001692D01*
X029222Y001811D02*
X027778Y001811D01*
X027385Y002759D02*
X026459Y002759D01*
X026508Y002877D02*
X027336Y002877D01*
X027319Y002996D02*
X026526Y002996D01*
X026526Y003114D02*
X027319Y003114D01*
X027359Y003233D02*
X026488Y003233D01*
X026433Y003351D02*
X027415Y003351D01*
X027534Y003470D02*
X026315Y003470D01*
X026312Y003588D02*
X027530Y003588D01*
X027412Y003707D02*
X026431Y003707D01*
X026487Y003825D02*
X027358Y003825D01*
X027319Y003944D02*
X026526Y003944D01*
X026526Y004062D02*
X027319Y004062D01*
X027337Y004181D02*
X026509Y004181D01*
X026460Y004299D02*
X027387Y004299D01*
X027482Y004418D02*
X026367Y004418D01*
X026192Y004536D02*
X027661Y004536D01*
X027492Y004655D02*
X026350Y004655D01*
X026440Y004773D02*
X027404Y004773D01*
X027356Y004892D02*
X026489Y004892D01*
X026497Y005129D02*
X027349Y005129D01*
X027386Y005247D02*
X026461Y005247D01*
X026388Y005366D02*
X027460Y005366D01*
X028078Y004536D02*
X032445Y004536D01*
X032445Y004418D02*
X028257Y004418D01*
X028352Y004299D02*
X032445Y004299D01*
X032445Y004181D02*
X028401Y004181D01*
X028419Y004062D02*
X032481Y004062D01*
X032599Y003944D02*
X028419Y003944D01*
X028381Y003825D02*
X032717Y003825D01*
X032836Y003707D02*
X028327Y003707D01*
X028208Y003588D02*
X032954Y003588D01*
X033073Y003470D02*
X028205Y003470D01*
X028323Y003351D02*
X037133Y003351D01*
X037119Y003384D02*
X037149Y003312D01*
X037192Y003247D01*
X037247Y003192D01*
X037312Y003149D01*
X037384Y003119D01*
X037461Y003104D01*
X037481Y003104D01*
X037481Y003481D01*
X037104Y003481D01*
X037104Y003461D01*
X037119Y003384D01*
X037104Y003470D02*
X036677Y003470D01*
X036795Y003588D02*
X037114Y003588D01*
X037162Y003707D02*
X036914Y003707D01*
X037032Y003825D02*
X037274Y003825D01*
X037151Y003944D02*
X037800Y003944D01*
X037820Y003825D02*
X037726Y003825D01*
X037519Y003825D02*
X037481Y003825D01*
X037481Y003707D02*
X037519Y003707D01*
X037519Y003588D02*
X037481Y003588D01*
X037481Y003470D02*
X037519Y003470D01*
X037519Y003351D02*
X037481Y003351D01*
X037481Y003233D02*
X037519Y003233D01*
X037519Y003114D02*
X037481Y003114D01*
X037408Y003114D02*
X028419Y003114D01*
X028419Y002996D02*
X037820Y002996D01*
X037820Y003114D02*
X037592Y003114D01*
X037793Y003233D02*
X037820Y003233D01*
X037820Y002877D02*
X028402Y002877D01*
X028353Y002759D02*
X037786Y002759D01*
X038060Y002665D02*
X038060Y003945D01*
X037827Y004062D02*
X037269Y004062D01*
X037367Y004500D02*
X036495Y003627D01*
X033255Y003627D01*
X032685Y004197D01*
X032685Y006897D01*
X032145Y007437D01*
X032145Y007827D01*
X031842Y008130D01*
X026265Y008130D01*
X026054Y007973D02*
X024568Y007973D01*
X024525Y008016D02*
X024525Y008875D01*
X024532Y008882D01*
X024580Y008997D01*
X024580Y009123D01*
X024532Y009238D01*
X024443Y009327D01*
X024328Y009375D01*
X024202Y009375D01*
X024087Y009327D01*
X023998Y009238D01*
X023950Y009123D01*
X023950Y008997D01*
X023998Y008882D01*
X024005Y008875D01*
X024005Y007911D01*
X024005Y007860D01*
X024005Y007859D01*
X024005Y007858D01*
X024024Y007812D01*
X024043Y007765D01*
X024044Y007764D01*
X024045Y007763D01*
X024080Y007727D01*
X024673Y007124D01*
X024694Y007096D01*
X024709Y007088D01*
X024721Y007076D01*
X024753Y007062D01*
X024776Y007049D01*
X024794Y007032D01*
X024820Y007023D01*
X024844Y007009D01*
X024868Y007006D01*
X024892Y006998D01*
X024919Y006999D01*
X024946Y006995D01*
X024970Y007002D01*
X025242Y007016D01*
X025352Y006970D01*
X025478Y006970D01*
X025593Y007018D01*
X025682Y007107D01*
X025730Y007222D01*
X025730Y007348D01*
X025682Y007463D01*
X025593Y007552D01*
X025478Y007600D01*
X025352Y007600D01*
X025237Y007552D01*
X025220Y007535D01*
X025009Y007524D01*
X024525Y008016D01*
X024525Y008091D02*
X025936Y008091D01*
X025817Y008210D02*
X024525Y008210D01*
X024525Y008328D02*
X025699Y008328D01*
X025580Y008447D02*
X024525Y008447D01*
X024525Y008565D02*
X025462Y008565D01*
X025343Y008684D02*
X024525Y008684D01*
X024525Y008802D02*
X025225Y008802D01*
X025106Y008921D02*
X024548Y008921D01*
X024580Y009039D02*
X024988Y009039D01*
X024869Y009158D02*
X024565Y009158D01*
X024494Y009276D02*
X024751Y009276D01*
X024632Y009395D02*
X016298Y009395D01*
X016416Y009513D02*
X022497Y009513D01*
X022367Y009632D02*
X016535Y009632D01*
X016653Y009750D02*
X022325Y009750D01*
X022330Y009869D02*
X016772Y009869D01*
X016392Y010224D02*
X008253Y010224D01*
X008211Y010343D02*
X016510Y010343D01*
X016273Y010106D02*
X008366Y010106D01*
X008415Y009987D02*
X016155Y009987D01*
X016036Y009869D02*
X008445Y009869D01*
X008445Y009750D02*
X015918Y009750D01*
X015799Y009632D02*
X008419Y009632D01*
X008370Y009513D02*
X015681Y009513D01*
X015562Y009395D02*
X008263Y009395D01*
X008194Y009276D02*
X015444Y009276D01*
X015325Y009158D02*
X008320Y009158D01*
X008393Y009039D02*
X015207Y009039D01*
X015088Y008921D02*
X008442Y008921D01*
X008445Y008802D02*
X014970Y008802D01*
X014851Y008684D02*
X008440Y008684D01*
X008391Y008565D02*
X014733Y008565D01*
X014614Y008447D02*
X008315Y008447D01*
X010404Y008328D02*
X014496Y008328D01*
X014377Y008210D02*
X010503Y008210D01*
X010621Y008091D02*
X014259Y008091D01*
X014140Y007973D02*
X010740Y007973D01*
X010858Y007854D02*
X014022Y007854D01*
X013903Y007736D02*
X010977Y007736D01*
X011220Y007617D02*
X013785Y007617D01*
X013666Y007499D02*
X011339Y007499D01*
X011403Y007380D02*
X013548Y007380D01*
X013429Y007262D02*
X011403Y007262D01*
X011401Y007143D02*
X013311Y007143D01*
X013192Y007025D02*
X011394Y007025D01*
X011393Y006906D02*
X013074Y006906D01*
X012955Y006788D02*
X011392Y006788D01*
X011392Y006669D02*
X012837Y006669D01*
X012718Y006551D02*
X011391Y006551D01*
X011390Y006432D02*
X012600Y006432D01*
X012530Y006314D02*
X011390Y006314D01*
X011389Y006195D02*
X012525Y006195D01*
X012525Y006077D02*
X011388Y006077D01*
X011388Y005958D02*
X012525Y005958D01*
X012525Y005840D02*
X011387Y005840D01*
X011386Y005721D02*
X012449Y005721D01*
X012330Y005603D02*
X011386Y005603D01*
X011385Y005484D02*
X012212Y005484D01*
X012015Y005366D02*
X011385Y005366D01*
X011384Y005247D02*
X011936Y005247D01*
X011915Y005129D02*
X011383Y005129D01*
X011383Y005010D02*
X011941Y005010D01*
X012028Y004892D02*
X011382Y004892D01*
X011381Y004773D02*
X012198Y004773D01*
X013045Y005721D02*
X021761Y005721D01*
X021642Y005840D02*
X013045Y005840D01*
X013045Y005958D02*
X021559Y005958D01*
X021544Y006077D02*
X021145Y006077D01*
X021331Y006195D02*
X021490Y006195D01*
X021411Y006314D02*
X021409Y006314D01*
X021408Y006669D02*
X021413Y006669D01*
X021495Y006788D02*
X021326Y006788D01*
X021133Y006906D02*
X021687Y006906D01*
X021921Y006906D02*
X022475Y006906D01*
X022282Y006788D02*
X022114Y006788D01*
X022195Y006669D02*
X022201Y006669D01*
X022708Y006906D02*
X023262Y006906D01*
X023069Y006788D02*
X022901Y006788D01*
X022982Y006669D02*
X022988Y006669D01*
X023496Y006906D02*
X024050Y006906D01*
X023857Y006788D02*
X023688Y006788D01*
X023770Y006669D02*
X023775Y006669D01*
X024283Y006906D02*
X024837Y006906D01*
X024815Y007025D02*
X013928Y007025D01*
X014046Y007143D02*
X024654Y007143D01*
X024538Y007262D02*
X014165Y007262D01*
X014283Y007380D02*
X024421Y007380D01*
X024305Y007499D02*
X014402Y007499D01*
X014520Y007617D02*
X024188Y007617D01*
X024071Y007736D02*
X014639Y007736D01*
X014757Y007854D02*
X024007Y007854D01*
X024005Y007973D02*
X014876Y007973D01*
X014994Y008091D02*
X024005Y008091D01*
X024005Y008210D02*
X015113Y008210D01*
X015231Y008328D02*
X024005Y008328D01*
X024005Y008447D02*
X015350Y008447D01*
X015468Y008565D02*
X024005Y008565D01*
X024005Y008684D02*
X015587Y008684D01*
X015705Y008802D02*
X024005Y008802D01*
X023982Y008921D02*
X015824Y008921D01*
X015942Y009039D02*
X023950Y009039D01*
X023965Y009158D02*
X016061Y009158D01*
X016179Y009276D02*
X024036Y009276D01*
X024514Y009513D02*
X022783Y009513D01*
X024684Y007854D02*
X030545Y007854D01*
X030505Y007736D02*
X024801Y007736D01*
X024918Y007617D02*
X030511Y007617D01*
X030560Y007499D02*
X025647Y007499D01*
X025716Y007380D02*
X030560Y007380D01*
X030560Y007262D02*
X025730Y007262D01*
X025697Y007143D02*
X030560Y007143D01*
X030451Y007025D02*
X025600Y007025D01*
X025624Y006906D02*
X025070Y006906D01*
X025263Y006788D02*
X025432Y006788D01*
X025350Y006669D02*
X025345Y006669D01*
X024644Y006788D02*
X024476Y006788D01*
X024557Y006669D02*
X024563Y006669D01*
X025858Y006906D02*
X026412Y006906D01*
X026219Y006788D02*
X026051Y006788D01*
X026132Y006669D02*
X026138Y006669D01*
X026645Y006906D02*
X027199Y006906D01*
X027006Y006788D02*
X026838Y006788D01*
X026919Y006669D02*
X026925Y006669D01*
X027433Y006906D02*
X030342Y006906D01*
X030292Y006788D02*
X028385Y006788D01*
X028370Y006802D02*
X028318Y006840D01*
X028261Y006869D01*
X028199Y006889D01*
X028136Y006899D01*
X028122Y006899D01*
X028122Y006508D01*
X028513Y006508D01*
X028513Y006522D01*
X028503Y006585D01*
X028483Y006647D01*
X028454Y006704D01*
X028416Y006756D01*
X028370Y006802D01*
X028472Y006669D02*
X030264Y006669D01*
X030264Y006551D02*
X028509Y006551D01*
X028509Y006432D02*
X030292Y006432D01*
X030341Y006314D02*
X028474Y006314D01*
X028389Y006195D02*
X030451Y006195D01*
X032338Y005247D02*
X032445Y005247D01*
X032445Y005129D02*
X032188Y005129D01*
X032445Y005010D02*
X031691Y005010D01*
X031600Y004892D02*
X032445Y004892D01*
X032445Y004773D02*
X031569Y004773D01*
X031428Y004655D02*
X032445Y004655D01*
X033165Y004655D02*
X036675Y004655D01*
X036675Y004773D02*
X033165Y004773D01*
X033165Y004892D02*
X036707Y004892D01*
X036818Y005010D02*
X033165Y005010D01*
X033165Y005129D02*
X036937Y005129D01*
X037155Y005007D02*
X036915Y004767D01*
X036915Y004407D01*
X036435Y003927D01*
X033345Y003927D01*
X033315Y003897D01*
X032925Y004287D01*
X032925Y006957D01*
X032145Y007407D02*
X032145Y007437D01*
X032580Y008091D02*
X037399Y008091D01*
X037201Y008210D02*
X032462Y008210D01*
X032343Y008328D02*
X033682Y008328D01*
X033688Y008322D02*
X033410Y008601D01*
X033410Y008777D01*
X033865Y008777D01*
X033905Y008777D01*
X033905Y008322D01*
X034082Y008322D01*
X034360Y008601D01*
X034360Y008777D01*
X033905Y008777D01*
X033905Y008817D01*
X034360Y008817D01*
X034360Y008994D01*
X034082Y009272D01*
X033905Y009272D01*
X033905Y008817D01*
X033865Y008817D01*
X033865Y008777D01*
X033865Y008322D01*
X033688Y008322D01*
X033564Y008447D02*
X032225Y008447D01*
X032106Y008565D02*
X033445Y008565D01*
X033410Y008684D02*
X031615Y008684D01*
X031764Y008802D02*
X033865Y008802D01*
X033865Y008817D02*
X033410Y008817D01*
X033410Y008994D01*
X033688Y009272D01*
X033865Y009272D01*
X033865Y008817D01*
X033905Y008802D02*
X037214Y008802D01*
X037126Y008684D02*
X034360Y008684D01*
X034325Y008565D02*
X037084Y008565D01*
X037084Y008447D02*
X034206Y008447D01*
X034088Y008328D02*
X037121Y008328D01*
X037253Y009158D02*
X034196Y009158D01*
X034315Y009039D02*
X040160Y009039D01*
X040160Y008921D02*
X034360Y008921D01*
X033905Y008921D02*
X033865Y008921D01*
X033865Y009039D02*
X033905Y009039D01*
X033905Y009158D02*
X033865Y009158D01*
X033574Y009158D02*
X031758Y009158D01*
X031755Y009276D02*
X037142Y009276D01*
X037093Y009395D02*
X031755Y009395D01*
X031755Y009513D02*
X037084Y009513D01*
X037104Y009632D02*
X031755Y009632D01*
X031755Y009750D02*
X033631Y009750D01*
X033492Y009869D02*
X031755Y009869D01*
X031755Y009987D02*
X033420Y009987D01*
X033375Y010106D02*
X031755Y010106D01*
X031755Y010224D02*
X033375Y010224D01*
X033378Y010343D02*
X031755Y010343D01*
X031755Y010461D02*
X033378Y010461D01*
X033378Y010580D02*
X031755Y010580D01*
X031755Y010698D02*
X033378Y010698D01*
X033378Y010817D02*
X031755Y010817D01*
X031755Y010935D02*
X033378Y010935D01*
X033378Y011054D02*
X031755Y011054D01*
X031755Y011172D02*
X033378Y011172D01*
X033378Y011291D02*
X031755Y011291D01*
X031755Y011409D02*
X033378Y011409D01*
X033378Y011528D02*
X032984Y011528D01*
X032928Y011528D02*
X032848Y011528D01*
X032848Y011519D02*
X032848Y012009D01*
X032358Y012009D01*
X032358Y012008D01*
X032371Y011925D01*
X032397Y011846D01*
X032435Y011772D01*
X032484Y011704D01*
X032543Y011645D01*
X032611Y011596D01*
X032685Y011558D01*
X032764Y011532D01*
X032847Y011519D01*
X032848Y011519D01*
X032793Y011528D02*
X031755Y011528D01*
X031755Y011646D02*
X032542Y011646D01*
X032440Y011765D02*
X031755Y011765D01*
X031755Y011883D02*
X032385Y011883D01*
X032359Y012002D02*
X031755Y012002D01*
X031755Y012120D02*
X032363Y012120D01*
X032358Y012091D02*
X032358Y012089D01*
X032848Y012089D01*
X032848Y012579D01*
X032847Y012579D01*
X032764Y012566D01*
X032685Y012541D01*
X032611Y012503D01*
X032543Y012454D01*
X032484Y012395D01*
X032435Y012327D01*
X032397Y012253D01*
X032371Y012174D01*
X032358Y012091D01*
X032393Y012239D02*
X031755Y012239D01*
X031755Y012357D02*
X032457Y012357D01*
X032574Y012476D02*
X031755Y012476D01*
X031755Y012594D02*
X033374Y012594D01*
X033374Y012476D02*
X033203Y012476D01*
X033320Y012357D02*
X033374Y012357D01*
X032928Y012357D02*
X032848Y012357D01*
X032848Y012239D02*
X032928Y012239D01*
X032928Y012120D02*
X032848Y012120D01*
X032848Y012002D02*
X032928Y012002D01*
X032928Y011883D02*
X032848Y011883D01*
X032848Y011765D02*
X032928Y011765D01*
X032928Y011646D02*
X032848Y011646D01*
X033235Y011646D02*
X033378Y011646D01*
X033378Y011765D02*
X033337Y011765D01*
X034398Y011765D02*
X034411Y011765D01*
X034398Y011646D02*
X034514Y011646D01*
X034398Y011528D02*
X034710Y011528D01*
X034398Y011409D02*
X037087Y011409D01*
X037084Y011528D02*
X035067Y011528D01*
X035263Y011646D02*
X037110Y011646D01*
X037176Y011765D02*
X035366Y011765D01*
X034398Y011291D02*
X037136Y011291D01*
X037239Y011172D02*
X034398Y011172D01*
X034398Y011054D02*
X040160Y011054D01*
X040160Y011172D02*
X038761Y011172D01*
X038864Y011291D02*
X040160Y011291D01*
X040160Y011409D02*
X038913Y011409D01*
X038916Y011528D02*
X040160Y011528D01*
X040160Y011646D02*
X038890Y011646D01*
X038824Y011765D02*
X040160Y011765D01*
X040160Y011883D02*
X038662Y011883D01*
X040160Y010935D02*
X034398Y010935D01*
X034398Y010817D02*
X037228Y010817D01*
X037132Y010698D02*
X034398Y010698D01*
X034398Y010580D02*
X037084Y010580D01*
X037084Y010461D02*
X034398Y010461D01*
X034398Y010343D02*
X037115Y010343D01*
X037187Y010224D02*
X034398Y010224D01*
X034398Y010106D02*
X037364Y010106D01*
X037303Y009869D02*
X034281Y009869D01*
X034353Y009987D02*
X040160Y009987D01*
X040160Y009869D02*
X038697Y009869D01*
X038838Y009750D02*
X040160Y009750D01*
X040160Y009632D02*
X038896Y009632D01*
X038916Y009513D02*
X040160Y009513D01*
X040160Y009395D02*
X038907Y009395D01*
X038858Y009276D02*
X040160Y009276D01*
X040160Y009158D02*
X038747Y009158D01*
X038786Y008802D02*
X040160Y008802D01*
X040160Y008684D02*
X038874Y008684D01*
X038916Y008565D02*
X040160Y008565D01*
X040160Y008447D02*
X038916Y008447D01*
X038879Y008328D02*
X040160Y008328D01*
X040160Y008210D02*
X038799Y008210D01*
X038199Y006788D02*
X037801Y006788D01*
X037880Y006669D02*
X038120Y006669D01*
X038084Y006551D02*
X037916Y006551D01*
X037916Y006432D02*
X038084Y006432D01*
X038127Y006314D02*
X037873Y006314D01*
X037784Y006195D02*
X038216Y006195D01*
X038251Y005840D02*
X037749Y005840D01*
X037859Y005721D02*
X038141Y005721D01*
X038092Y005603D02*
X037908Y005603D01*
X037916Y005484D02*
X038084Y005484D01*
X037984Y005366D02*
X037895Y005366D01*
X037865Y005247D02*
X037836Y005247D01*
X037965Y005007D02*
X038457Y005500D01*
X038490Y005500D01*
X038916Y005484D02*
X040160Y005484D01*
X040160Y005366D02*
X038895Y005366D01*
X038836Y005247D02*
X040160Y005247D01*
X040160Y005129D02*
X038692Y005129D01*
X038641Y004892D02*
X040160Y004892D01*
X040160Y005010D02*
X038307Y005010D01*
X038359Y004892D02*
X038189Y004892D01*
X038185Y004773D02*
X038027Y004773D01*
X038114Y004655D02*
X037886Y004655D01*
X037916Y004536D02*
X038084Y004536D01*
X038084Y004418D02*
X037916Y004418D01*
X037867Y004299D02*
X038047Y004299D01*
X037928Y004181D02*
X037770Y004181D01*
X037500Y004500D02*
X037367Y004500D01*
X037155Y005007D02*
X037965Y005007D01*
X037164Y005247D02*
X033165Y005247D01*
X033165Y005366D02*
X037105Y005366D01*
X037084Y005484D02*
X033165Y005484D01*
X033165Y005603D02*
X037092Y005603D01*
X037141Y005721D02*
X033165Y005721D01*
X033165Y005840D02*
X037251Y005840D01*
X038749Y005840D02*
X040160Y005840D01*
X040160Y005958D02*
X033165Y005958D01*
X032445Y005366D02*
X032422Y005366D01*
X033165Y004536D02*
X036675Y004536D01*
X036586Y004418D02*
X033165Y004418D01*
X033252Y004299D02*
X036467Y004299D01*
X036349Y004181D02*
X033371Y004181D01*
X037207Y003233D02*
X028379Y003233D01*
X029778Y001811D02*
X030222Y001811D01*
X030129Y001692D02*
X029871Y001692D01*
X029916Y001574D02*
X030084Y001574D01*
X030084Y001455D02*
X029916Y001455D01*
X029883Y001337D02*
X030117Y001337D01*
X030193Y001218D02*
X029807Y001218D01*
X030807Y001218D02*
X031193Y001218D01*
X031117Y001337D02*
X030883Y001337D01*
X030916Y001455D02*
X031084Y001455D01*
X031084Y001574D02*
X030916Y001574D01*
X030871Y001692D02*
X031129Y001692D01*
X031222Y001811D02*
X030778Y001811D01*
X031778Y001811D02*
X032222Y001811D01*
X032129Y001692D02*
X031871Y001692D01*
X031916Y001574D02*
X032084Y001574D01*
X032084Y001455D02*
X031916Y001455D01*
X031883Y001337D02*
X032117Y001337D01*
X032193Y001218D02*
X031807Y001218D01*
X032807Y001218D02*
X033193Y001218D01*
X033117Y001337D02*
X032883Y001337D01*
X032916Y001455D02*
X033084Y001455D01*
X033084Y001574D02*
X032916Y001574D01*
X032871Y001692D02*
X033129Y001692D01*
X033222Y001811D02*
X032778Y001811D01*
X033778Y001811D02*
X034222Y001811D01*
X034129Y001692D02*
X033871Y001692D01*
X033916Y001574D02*
X034084Y001574D01*
X034084Y001455D02*
X033916Y001455D01*
X033883Y001337D02*
X034117Y001337D01*
X034193Y001218D02*
X033807Y001218D01*
X034807Y001218D02*
X035193Y001218D01*
X035117Y001337D02*
X034883Y001337D01*
X034916Y001455D02*
X035084Y001455D01*
X035084Y001574D02*
X034916Y001574D01*
X034871Y001692D02*
X035129Y001692D01*
X035222Y001811D02*
X034778Y001811D01*
X035778Y001811D02*
X036222Y001811D01*
X036129Y001692D02*
X035871Y001692D01*
X035916Y001574D02*
X036084Y001574D01*
X036084Y001455D02*
X035916Y001455D01*
X035883Y001337D02*
X036117Y001337D01*
X036193Y001218D02*
X035807Y001218D01*
X038282Y002522D02*
X040160Y002522D01*
X040160Y002640D02*
X038320Y002640D01*
X038303Y002759D02*
X040160Y002759D01*
X040160Y002877D02*
X038300Y002877D01*
X038300Y002996D02*
X040160Y002996D01*
X040160Y003114D02*
X038592Y003114D01*
X038616Y003119D02*
X038688Y003149D01*
X038753Y003192D01*
X038808Y003247D01*
X038851Y003312D01*
X038881Y003384D01*
X038896Y003461D01*
X038896Y003481D01*
X038519Y003481D01*
X038519Y003104D01*
X038539Y003104D01*
X038616Y003119D01*
X038519Y003114D02*
X038481Y003114D01*
X038408Y003114D02*
X038300Y003114D01*
X038481Y003233D02*
X038519Y003233D01*
X038519Y003351D02*
X038481Y003351D01*
X038481Y003470D02*
X038519Y003470D01*
X038519Y003519D02*
X038896Y003519D01*
X038896Y003539D01*
X038881Y003616D01*
X038851Y003688D01*
X038808Y003753D01*
X038753Y003808D01*
X038688Y003851D01*
X038616Y003881D01*
X038539Y003896D01*
X038519Y003896D01*
X038519Y003519D01*
X038519Y003588D02*
X038481Y003588D01*
X038481Y003707D02*
X038519Y003707D01*
X038519Y003825D02*
X038481Y003825D01*
X038427Y003944D02*
X040160Y003944D01*
X040160Y004062D02*
X038545Y004062D01*
X038770Y004181D02*
X040160Y004181D01*
X040160Y004299D02*
X038867Y004299D01*
X038916Y004418D02*
X040160Y004418D01*
X040160Y004536D02*
X038916Y004536D01*
X038886Y004655D02*
X040160Y004655D01*
X040160Y004773D02*
X038815Y004773D01*
X038908Y005603D02*
X040160Y005603D01*
X040160Y005721D02*
X038859Y005721D01*
X038726Y003825D02*
X040160Y003825D01*
X040160Y003707D02*
X038838Y003707D01*
X038886Y003588D02*
X040160Y003588D01*
X040160Y003470D02*
X038896Y003470D01*
X038867Y003351D02*
X040160Y003351D01*
X040160Y003233D02*
X038793Y003233D01*
X033905Y008328D02*
X033865Y008328D01*
X033865Y008447D02*
X033905Y008447D01*
X033905Y008565D02*
X033865Y008565D01*
X033865Y008684D02*
X033905Y008684D01*
X033410Y008921D02*
X031810Y008921D01*
X031809Y009039D02*
X033455Y009039D01*
X034142Y009750D02*
X037162Y009750D01*
X038636Y010106D02*
X040160Y010106D01*
X040160Y010224D02*
X038813Y010224D01*
X038885Y010343D02*
X040160Y010343D01*
X040160Y010461D02*
X038916Y010461D01*
X038916Y010580D02*
X040160Y010580D01*
X040160Y010698D02*
X038868Y010698D01*
X038772Y010817D02*
X040160Y010817D01*
X034767Y012594D02*
X034394Y012594D01*
X034394Y012476D02*
X034537Y012476D01*
X034421Y012357D02*
X034394Y012357D01*
X034394Y012713D02*
X034767Y012713D01*
X034535Y012831D02*
X034394Y012831D01*
X034394Y012950D02*
X034417Y012950D01*
X032924Y012831D02*
X032844Y012831D01*
X032848Y012476D02*
X032928Y012476D01*
X031235Y012120D02*
X031140Y012120D01*
X031060Y012002D02*
X031235Y012002D01*
X031235Y011883D02*
X031060Y011883D01*
X031060Y011765D02*
X031235Y011765D01*
X031235Y011646D02*
X031060Y011646D01*
X031060Y011528D02*
X031235Y011528D01*
X031235Y011409D02*
X031060Y011409D01*
X031060Y011291D02*
X031235Y011291D01*
X031235Y011172D02*
X031060Y011172D01*
X031060Y011054D02*
X031235Y011054D01*
X031235Y010935D02*
X031060Y010935D01*
X031060Y010817D02*
X031235Y010817D01*
X031235Y010698D02*
X031060Y010698D01*
X031060Y010580D02*
X031235Y010580D01*
X031235Y010461D02*
X031060Y010461D01*
X031060Y010343D02*
X031235Y010343D01*
X031235Y010224D02*
X031060Y010224D01*
X031060Y010106D02*
X031235Y010106D01*
X031235Y009987D02*
X031060Y009987D01*
X031060Y009869D02*
X031235Y009869D01*
X031235Y009750D02*
X031060Y009750D01*
X031060Y009632D02*
X031235Y009632D01*
X031235Y009513D02*
X031060Y009513D01*
X031060Y009395D02*
X031235Y009395D01*
X031235Y009276D02*
X031060Y009276D01*
X031060Y009158D02*
X031232Y009158D01*
X031181Y009039D02*
X031114Y009039D01*
X031135Y008921D02*
X031180Y008921D01*
X031226Y008802D02*
X031110Y008802D01*
X031024Y008684D02*
X031375Y008684D01*
X030820Y008925D02*
X030820Y012140D01*
X031195Y012515D01*
X028122Y006788D02*
X028085Y006788D01*
X028085Y006669D02*
X028122Y006669D01*
X028122Y006551D02*
X028085Y006551D01*
X027822Y006788D02*
X027625Y006788D01*
X027707Y006669D02*
X027735Y006669D01*
X025565Y005366D02*
X024447Y005366D01*
X024526Y005247D02*
X025492Y005247D01*
X025455Y005129D02*
X024568Y005129D01*
X024567Y004892D02*
X025464Y004892D01*
X025513Y004773D02*
X024522Y004773D01*
X024441Y004655D02*
X025603Y004655D01*
X025760Y004536D02*
X024280Y004536D01*
X024424Y004418D02*
X025586Y004418D01*
X025492Y004299D02*
X024527Y004299D01*
X024576Y004181D02*
X025443Y004181D01*
X025426Y004062D02*
X024600Y004062D01*
X024600Y003944D02*
X025426Y003944D01*
X025466Y003825D02*
X024567Y003825D01*
X024518Y003707D02*
X025522Y003707D01*
X025641Y003588D02*
X024402Y003588D01*
X024372Y003470D02*
X025638Y003470D01*
X025519Y003351D02*
X024490Y003351D01*
X024555Y003233D02*
X025465Y003233D01*
X025426Y003114D02*
X024600Y003114D01*
X024600Y002996D02*
X025426Y002996D01*
X025445Y002877D02*
X024589Y002877D01*
X024540Y002759D02*
X025494Y002759D01*
X020889Y006077D02*
X013045Y006077D01*
X013098Y006195D02*
X020702Y006195D01*
X020624Y006314D02*
X013217Y006314D01*
X013335Y006432D02*
X020587Y006432D01*
X020587Y006551D02*
X013454Y006551D01*
X013572Y006669D02*
X020626Y006669D01*
X020707Y006788D02*
X013691Y006788D01*
X013809Y006906D02*
X020900Y006906D01*
X008722Y004418D02*
X008479Y004418D01*
X008484Y004536D02*
X008643Y004536D01*
X008552Y004655D02*
X008491Y004655D01*
X008462Y004773D02*
X008455Y004773D01*
X008371Y004892D02*
X008366Y004892D01*
X007896Y004655D02*
X004885Y004655D01*
X004885Y004773D02*
X007812Y004773D01*
X007727Y004892D02*
X004885Y004892D01*
X004885Y005010D02*
X007642Y005010D01*
X007558Y005129D02*
X004885Y005129D01*
X004885Y005247D02*
X007473Y005247D01*
X007389Y005366D02*
X004885Y005366D01*
X004885Y005484D02*
X007304Y005484D01*
X007220Y005603D02*
X004885Y005603D01*
X004885Y005721D02*
X007135Y005721D01*
X007050Y005840D02*
X004885Y005840D01*
X004885Y005958D02*
X006966Y005958D01*
X006881Y006077D02*
X004885Y006077D01*
X004885Y006195D02*
X006797Y006195D01*
X006712Y006314D02*
X004885Y006314D01*
X004885Y006432D02*
X006627Y006432D01*
X006543Y006551D02*
X004885Y006551D01*
X004885Y006669D02*
X006458Y006669D01*
X006374Y006788D02*
X004885Y006788D01*
X004885Y006906D02*
X006289Y006906D01*
X006204Y007025D02*
X004885Y007025D01*
X004885Y007143D02*
X006120Y007143D01*
X006035Y007262D02*
X004885Y007262D01*
X004885Y007380D02*
X005951Y007380D01*
X005866Y007499D02*
X004885Y007499D01*
X004885Y007617D02*
X005782Y007617D01*
X005697Y007736D02*
X004885Y007736D01*
X004885Y007854D02*
X005632Y007854D01*
X005626Y007973D02*
X005413Y007973D01*
X005485Y008091D02*
X005629Y008091D01*
X005633Y008210D02*
X005500Y008210D01*
X005469Y008328D02*
X005636Y008328D01*
X005639Y008447D02*
X005445Y008447D01*
X005445Y008565D02*
X005642Y008565D01*
X005645Y008684D02*
X005445Y008684D01*
X005445Y008802D02*
X005648Y008802D01*
X005651Y008921D02*
X005445Y008921D01*
X005445Y009039D02*
X005655Y009039D01*
X005658Y009158D02*
X005445Y009158D01*
X005445Y009276D02*
X005661Y009276D01*
X005664Y009395D02*
X005445Y009395D01*
X005445Y009513D02*
X005667Y009513D01*
X005664Y009632D02*
X005670Y009632D01*
X004925Y009632D02*
X002664Y009632D01*
X002849Y009750D02*
X004751Y009750D01*
X004674Y009869D02*
X002926Y009869D01*
X002960Y009987D02*
X004640Y009987D01*
X004640Y010106D02*
X002960Y010106D01*
X002916Y010224D02*
X004684Y010224D01*
X004774Y010343D02*
X002826Y010343D01*
X002878Y011291D02*
X002922Y011291D01*
X003040Y011409D02*
X002734Y011409D01*
X003610Y011765D02*
X004764Y011765D01*
X004690Y011883D02*
X003610Y011883D01*
X003610Y012002D02*
X004660Y012002D01*
X004669Y012120D02*
X003610Y012120D01*
X003610Y012239D02*
X004715Y012239D01*
X004823Y012357D02*
X003610Y012357D01*
X006216Y010580D02*
X006326Y010580D01*
X004901Y008328D02*
X004699Y008328D01*
X004818Y008210D02*
X004870Y008210D01*
X004883Y008091D02*
X004885Y008091D01*
X004885Y007973D02*
X004957Y007973D01*
X004885Y004536D02*
X007964Y004536D01*
X007958Y004418D02*
X004885Y004418D01*
X004885Y004299D02*
X007953Y004299D01*
X007948Y004181D02*
X004885Y004181D01*
X004903Y004062D02*
X007943Y004062D01*
X007938Y003944D02*
X004940Y003944D01*
X004931Y003825D02*
X007904Y003825D01*
X007871Y003707D02*
X004867Y003707D01*
X004831Y003588D02*
X007885Y003588D01*
X007955Y003470D02*
X004950Y003470D01*
X008418Y003470D02*
X008804Y003470D01*
X008727Y003588D02*
X008488Y003588D01*
X008501Y003707D02*
X008708Y003707D01*
X008736Y003825D02*
X008469Y003825D01*
X008458Y003944D02*
X008749Y003944D01*
X008742Y004062D02*
X008463Y004062D01*
X008468Y004181D02*
X008736Y004181D01*
X008729Y004299D02*
X008474Y004299D01*
D19*
X008976Y004528D02*
X006280Y008055D01*
X005885Y007920D02*
X005955Y010565D01*
X005300Y011035D01*
X006440Y010250D02*
X006440Y008450D01*
X006745Y008145D01*
X010220Y008145D01*
X010220Y008125D01*
X011055Y007290D01*
X012785Y006250D02*
X016700Y010165D01*
X024715Y010165D01*
X026325Y008555D01*
X026470Y008410D01*
X026650Y008410D01*
X026265Y008130D02*
X024600Y009795D01*
X022640Y009795D01*
X024265Y009060D02*
X024265Y007910D01*
X024870Y007295D01*
X024930Y007260D01*
X025415Y007285D01*
X022591Y006489D02*
X022591Y006109D01*
X022800Y005900D01*
X030410Y005900D01*
X030700Y005610D01*
X030814Y005610D01*
X031340Y005027D02*
X031931Y005618D01*
X031340Y005027D02*
X031340Y004900D01*
X030490Y004900D01*
X029745Y005645D01*
X022635Y005645D01*
X022425Y005855D01*
X021995Y005855D01*
X021804Y006046D01*
X021804Y006489D01*
X017860Y002395D02*
X016485Y003770D01*
X010297Y003770D01*
X008985Y002457D01*
X005625Y002457D01*
X005595Y002457D01*
X004275Y003777D01*
X004275Y004677D01*
X004625Y003910D02*
X004625Y008035D01*
X004460Y008200D01*
X003390Y008200D01*
X003370Y008180D01*
X005185Y008190D02*
X005185Y009920D01*
X005300Y010035D01*
X005885Y007920D02*
X008228Y004637D01*
X008186Y003684D01*
X009023Y003697D02*
X008976Y004528D01*
X011740Y002793D02*
X013059Y002765D01*
X012230Y005135D02*
X012785Y005690D01*
X012785Y006250D01*
X017860Y002395D02*
X037790Y002395D01*
X038060Y002665D01*
X038060Y003945D02*
X038500Y004385D01*
X038500Y004500D01*
X038490Y005500D02*
X038500Y005500D01*
X031931Y006618D02*
X031895Y006618D01*
X031510Y007695D01*
X030820Y007695D02*
X030820Y006610D01*
X030814Y006610D01*
X030815Y007690D02*
X030820Y007695D01*
X031495Y008975D02*
X031495Y016610D01*
X031525Y016640D02*
X031525Y018110D01*
X030835Y018800D01*
X030835Y019860D01*
X026310Y019860D01*
X026140Y019860D01*
X025500Y020500D01*
X025625Y019985D02*
X025015Y019985D01*
X024500Y020500D01*
X025625Y019985D02*
X026060Y019550D01*
X026105Y019505D01*
X030555Y019505D01*
X030555Y018725D01*
X031100Y018180D01*
X031100Y016215D01*
X031195Y012515D01*
X030805Y012750D02*
X030790Y013350D01*
X029710Y014435D01*
X026856Y018449D02*
X024638Y016231D01*
X020205Y016231D01*
X021393Y017384D02*
X020045Y018732D01*
X019020Y018732D01*
X018991Y018703D01*
X021393Y017384D02*
X024775Y017384D01*
X017665Y012955D02*
X014660Y012955D01*
X014425Y012720D01*
X014425Y012235D01*
D20*
X017480Y003930D03*
D21*
X017480Y004590D01*
X016720Y005350D01*
X013255Y005350D01*
X012265Y004360D01*
X011215Y004360D01*
X011040Y004535D01*
X011055Y007290D01*
D22*
X011055Y007290D03*
D23*
X006440Y010250D03*
X004005Y014110D03*
X016040Y014490D03*
D24*
X020429Y016739D02*
X023549Y016739D01*
X023560Y016750D01*
D25*
X033890Y016741D02*
X033890Y015600D01*
X033890Y014446D01*
X033894Y014446D01*
X033894Y013260D01*
X033884Y013260D01*
X033884Y012049D01*
X033888Y012049D01*
X033888Y010197D01*
X033885Y010197D01*
X033890Y016741D02*
X033893Y016741D01*
X033893Y017861D01*
M02*
