%
M48
M72
T01C0.0130
T02C0.0197
T03C0.0315
T04C0.0320
T05C0.0400
T06C0.1260
%
T01
X3820Y1640
X4625Y3910
X4275Y4677
X8186Y3684
X9023Y3697
X11740Y2793
X13059Y2765
X12230Y5135
X17750Y6010
X19515Y5157
X25415Y7285
X24265Y9060
X22640Y9795
X21495Y9005
X18644Y12201
X17665Y12955
X14425Y12235
X12700Y10850
X9435Y12025
X11445Y14335
X14025Y14845
X16470Y17350
X14525Y18595
X18991Y18703
X21039Y18692
X20429Y16739
X20205Y16231
X20209Y15395
X23560Y16750
X24775Y17384
X26540Y16590
X27900Y16565
X30225Y16467
X29710Y14435
X30805Y12750
X35805Y11127
X31495Y8975
X30820Y8925
X30820Y7695
X31510Y7695
X29745Y4047
X21760Y12305
X26856Y18449
X24952Y18621
X6220Y18310
X3900Y17910
X1305Y16197
X1185Y11217
X3370Y8180
X5185Y8190
X6280Y8055
T02
X6440Y10250
X11055Y7290
X17480Y3930
X4005Y14110
X16040Y14490
T03
X21017Y15151
X21804Y15151
X22591Y15151
X23379Y15151
X24166Y15151
X24954Y15151
X25741Y15151
X26529Y15151
X27316Y15151
X28103Y15151
X25500Y19500
X24500Y19500
X23500Y19500
X22500Y19500
X21500Y19500
X20500Y19500
X19500Y19500
X18500Y19500
X18500Y20500
X19500Y20500
X20500Y20500
X21500Y20500
X22500Y20500
X23500Y20500
X24500Y20500
X25500Y20500
X27500Y20500
X28500Y20500
X29500Y20500
X30500Y20500
X31500Y20500
X32500Y20500
X33500Y20500
X34500Y20500
X37500Y20500
X38500Y20500
X38500Y19500
X37500Y19500
X37500Y18500
X38500Y18500
X38500Y17500
X37500Y17500
X37500Y16500
X38500Y16500
X38500Y15500
X37500Y15500
X37500Y14500
X38500Y14500
X38500Y13500
X37500Y13500
X37500Y12500
X38500Y12500
X38500Y11500
X37500Y11500
X37500Y10500
X38500Y10500
X38500Y9500
X37500Y9500
X37500Y8500
X38500Y8500
X38500Y7500
X37500Y7500
X37500Y6500
X38500Y6500
X38500Y5500
X37500Y5500
X37500Y4500
X38500Y4500
X38500Y3500
X37500Y3500
X36500Y1500
X35500Y1500
X34500Y1500
X33500Y1500
X32500Y1500
X31500Y1500
X30500Y1500
X29500Y1500
X27500Y1500
X26500Y1500
X25500Y1500
X24500Y1500
X23500Y1500
X22500Y1500
X21500Y1500
X20500Y1500
X18500Y1500
X17500Y1500
X16500Y1500
X15500Y1500
X14500Y1500
X13500Y1500
X21017Y6489
X21804Y6489
X22591Y6489
X23379Y6489
X24166Y6489
X24954Y6489
X25741Y6489
X26529Y6489
X27316Y6489
X28103Y6489
X17000Y19500
X16000Y19500
X15000Y19500
X14000Y19500
X13000Y19500
X12000Y19500
X11000Y19500
X10000Y19500
X10000Y20500
X11000Y20500
X12000Y20500
X13000Y20500
X14000Y20500
X15000Y20500
X16000Y20500
X17000Y20500
T04
X5300Y14035
X5300Y13035
X5300Y12035
X5300Y11035
X5300Y10035
X2300Y10035
X2300Y11035
X2300Y12035
X2300Y13035
X2300Y14035
X33885Y10197
X33885Y8797
T05
X31931Y6618
X30814Y6610
X30814Y5610
X31931Y5618
X27869Y5027
X25976Y5031
X25976Y4031
X27869Y4027
X27869Y3027
X25976Y3031
X24050Y3014
X24050Y4014
X24050Y5014
X22094Y5013
X22094Y4013
X22094Y3013
X7895Y8805
X7895Y9805
X7895Y10805
X7895Y11805
X7895Y12805
X7895Y13805
X7895Y14805
X17236Y14471
X18510Y14469
X18510Y15469
X17236Y15471
X17236Y16471
X18510Y16469
X32890Y16741
X33890Y16741
X34890Y16741
X34893Y17861
X33893Y17861
X32893Y17861
X32890Y15600
X33890Y15600
X34890Y15600
X34894Y14446
X33894Y14446
X32894Y14446
X32884Y13260
X33884Y13260
X34884Y13260
X34888Y12049
X33888Y12049
X32888Y12049
T06
X36000Y20500
X6500Y20500
X6500Y1500
X38500Y1500
M30
